<?xml version="1.0" standalone="no"?>
<!DOCTYPE svg PUBLIC "-//W3C//DTD SVG 1.1//EN" "http://www.w3.org/Graphics/SVG/1.1/DTD/svg11.dtd" >
<svg xmlns="http://www.w3.org/2000/svg">
<metadata></metadata>
<defs>
<font id="arcadiaregular" horiz-adv-x="1822" >
<font-face units-per-em="2048" ascent="2048" descent="0" />
<missing-glyph horiz-adv-x="512" />
<glyph horiz-adv-x="2048" />
<glyph horiz-adv-x="2048" />
<glyph unicode="&#xd;" horiz-adv-x="512" />
<glyph unicode=" "  horiz-adv-x="512" />
<glyph unicode="&#x09;" horiz-adv-x="512" />
<glyph unicode="&#xa0;" horiz-adv-x="512" />
<glyph unicode="," horiz-adv-x="798" d="M0 -512v1024h512v-512q0 -212 -152 -360q-150 -152 -360 -152z" />
<glyph unicode="." horiz-adv-x="798" d="M0 0v512h512v-512h-512z" />
<glyph unicode="0" d="M0 0v1536q0 212 150 360q150 152 362 152h512q212 0 360 -152q152 -150 152 -360v-1024q0 -214 -152 -362q-150 -150 -360 -150h-1024zM512 1280q0 -106 74 -182q76 -74 182 -74q104 0 180 74q76 76 76 182q0 104 -76 180t-180 76q-106 0 -182 -76q-74 -76 -74 -180z" />
<glyph unicode="1" d="M0 0v512h512v512q0 210 -152 360q-150 152 -360 152v512h512q212 0 360 -152q152 -150 152 -360v-1024h512q0 -214 -152 -362q-150 -150 -360 -150h-1024z" />
<glyph unicode="2" d="M0 0v512l1024 1024h-1024v512h1024q212 0 360 -152q152 -150 152 -360v-512l-512 -512h512q0 -214 -152 -362q-150 -150 -360 -150h-1024z" />
<glyph unicode="3" d="M0 0v512h1024v256h-512v512h512v256h-1024v512h1024q212 0 360 -152q152 -150 152 -360v-1024q0 -214 -152 -362q-150 -150 -360 -150h-1024z" />
<glyph unicode="4" d="M0 1024v1024h512v-512h512v512q212 0 360 -152q152 -150 152 -360v-1024q0 -214 -152 -362q-150 -150 -360 -150v512q0 210 -152 360q-150 152 -360 152h-512z" />
<glyph unicode="5" d="M0 0v512h512l-512 512v1024h1024q212 0 360 -152q152 -150 152 -360h-512l512 -512v-512q0 -214 -152 -362q-150 -150 -360 -150h-1024z" />
<glyph unicode="6" d="M0 0v2048h1024q212 0 360 -152q152 -150 152 -360q-212 0 -362 -152q-150 -150 -150 -360h512v-512q0 -214 -152 -362q-150 -150 -360 -150h-1024zM512 768q0 -106 74 -182q76 -74 182 -74q104 0 180 74q76 76 76 182q0 104 -76 180t-180 76q-106 0 -182 -76 q-74 -76 -74 -180z" />
<glyph unicode="7" d="M0 1536v512h1024q212 0 360 -152q152 -150 152 -360v-1024q0 -214 -152 -362q-150 -150 -360 -150v1024q0 210 -152 360q-150 152 -360 152h-512z" />
<glyph unicode="8" d="M0 0v1536q0 212 150 360q150 152 362 152h512q212 0 360 -152q152 -150 152 -360v-1024q0 -214 -152 -362q-150 -150 -360 -150h-1024zM512 768q0 -106 74 -182q76 -74 182 -74q104 0 180 74q76 76 76 182q0 104 -76 180t-180 76q104 0 180 74q76 76 76 182 q0 104 -76 180t-180 76q-106 0 -182 -76q-74 -76 -74 -180q0 -106 74 -182q76 -74 182 -74q-106 0 -182 -76q-74 -76 -74 -180z" />
<glyph unicode="9" d="M0 512v1536h1024q212 0 360 -152q152 -150 152 -360v-1024q0 -214 -152 -362q-150 -150 -360 -150v512h-1024zM512 1280q0 -106 74 -182q76 -74 182 -74q104 0 180 74q76 76 76 182q0 104 -76 180t-180 76q-106 0 -182 -76q-74 -76 -74 -180z" />
<glyph unicode="?" d="M0 1536v512h1024q212 0 360 -152q152 -150 152 -360v-512l-512 -256h-512v256q210 0 360 150q152 150 152 362h-1024zM512 0v512h512v-512h-512z" />
<glyph unicode="A" d="M0 0v2048h1024q212 0 360 -152q152 -150 152 -360v-1536h-512v512q0 210 -152 360q-150 152 -360 152v-1024h-512zM512 1280q0 -106 74 -182q76 -74 182 -74q104 0 180 74q76 76 76 182q0 104 -76 180t-180 76q-106 0 -182 -76q-74 -76 -74 -180z" />
<glyph unicode="B" d="M0 0v2048h1024q212 0 360 -152q152 -150 152 -360v-1024q0 -214 -152 -362q-150 -150 -360 -150h-1024zM512 768q0 -106 74 -182q76 -74 182 -74q104 0 180 74q76 76 76 182q0 104 -76 180t-180 76q104 0 180 74q76 76 76 182q0 104 -76 180t-180 76q-106 0 -182 -76 q-74 -76 -74 -180q0 -106 74 -182q76 -74 182 -74q-106 0 -182 -76q-74 -76 -74 -180z" />
<glyph unicode="C" d="M0 0v2048h1024q212 0 360 -152q152 -150 152 -360h-512q-212 0 -362 -152q-150 -150 -150 -360q0 -212 150 -362t362 -150h512q0 -214 -152 -362q-150 -150 -360 -150h-1024z" />
<glyph unicode="D" d="M0 0v2048h1024q212 0 360 -152q152 -150 152 -360v-1024q0 -214 -152 -362q-150 -150 -360 -150h-1024zM512 1280q0 -106 74 -182q76 -74 182 -74q104 0 180 74q76 76 76 182q0 104 -76 180t-180 76q-106 0 -182 -76q-74 -76 -74 -180z" />
<glyph unicode="E" d="M0 0v2048h1024q212 0 360 -152q152 -150 152 -360h-512q-212 0 -362 -152q-50 -48 -84 -104h446v-512h-446q34 -58 84 -106q150 -150 362 -150h512q0 -214 -152 -362q-150 -150 -360 -150h-1024z" />
<glyph unicode="F" d="M0 0v2048h1024q212 0 360 -152q152 -150 152 -360h-512q-212 0 -362 -152q-50 -48 -84 -104h446v-512h-512v-768h-512z" />
<glyph unicode="G" d="M0 0v2048h1024q212 0 360 -152q152 -150 152 -360h-1024v-1024h512v512q212 0 360 -152q152 -150 152 -360q0 -214 -152 -362q-150 -150 -360 -150h-1024z" />
<glyph unicode="H" d="M0 0v2048h512v-512h512v512q212 0 360 -152q152 -150 152 -360v-1024q0 -214 -152 -362q-150 -150 -360 -150v512q0 210 -152 360q-150 152 -360 152v-1024h-512z" />
<glyph unicode="I" d="M0 0v512h512v1024h-512v512h1024q212 0 360 -152q152 -150 152 -360h-512v-1024h512q0 -214 -152 -362q-150 -150 -360 -150h-1024z" />
<glyph unicode="J" d="M0 0v512h1024v512q0 210 -152 360q-150 152 -360 152h-512v512h1024q212 0 360 -152q152 -150 152 -360v-1024q0 -214 -152 -362q-150 -150 -360 -150h-1024z" />
<glyph unicode="K" d="M0 0v2048h512v-512h512v512q212 0 360 -152q152 -150 152 -360q-212 0 -362 -152q-50 -48 -84 -104h446v-768q0 -214 -152 -362q-150 -150 -360 -150v1024h-512v-1024h-512z" />
<glyph unicode="L" d="M0 0v2048h512v-1024q0 -212 150 -362t362 -150h512q0 -214 -152 -362q-150 -150 -360 -150h-1024z" />
<glyph unicode="M" horiz-adv-x="2334" d="M0 0v2048h1536q212 0 360 -152q152 -150 152 -360v-1024q0 -214 -152 -362q-150 -150 -360 -150v1024q0 210 -152 360q-48 50 -104 84v-444h-512v444q-58 -34 -106 -84q-150 -150 -150 -360v-1024h-512z" />
<glyph unicode="N" d="M0 0v2048h1024q212 0 360 -152q152 -150 152 -360v-1024q0 -214 -152 -362q-150 -150 -360 -150v1024q0 210 -152 360q-150 152 -360 152v-1536h-512z" />
<glyph unicode="O" d="M0 0v1536q0 212 150 360q150 152 362 152h512q212 0 360 -152q152 -150 152 -360v-1024q0 -214 -152 -362q-150 -150 -360 -150h-1024zM512 1280q0 -106 74 -182q76 -74 182 -74q104 0 180 74q76 76 76 182q0 104 -76 180t-180 76q-106 0 -182 -76q-74 -76 -74 -180z" />
<glyph unicode="P" d="M0 0v2048h1024q212 0 360 -152q152 -150 152 -360v-512q0 -214 -152 -362q-150 -150 -360 -150h-512v-512h-512zM512 1280q0 -106 74 -182q76 -74 182 -74q104 0 180 74q76 76 76 182q0 104 -76 180t-180 76q-106 0 -182 -76q-74 -76 -74 -180z" />
<glyph unicode="Q" horiz-adv-x="2334" d="M0 0v2048h1024q212 0 360 -152q152 -150 152 -360v-1024l512 -512q0 -212 -152 -360q-150 -152 -360 -152l-512 512h-1024zM512 1280q0 -106 74 -182q76 -74 182 -74q104 0 180 74q76 76 76 182q0 104 -76 180t-180 76q-106 0 -182 -76q-74 -76 -74 -180z" />
<glyph unicode="R" d="M0 0v2048h1024q212 0 360 -152q152 -150 152 -360q0 -214 -152 -362q-150 -150 -360 -150q212 0 360 -152q152 -150 152 -360v-512h-512v512q0 210 -152 360q-150 152 -360 152v-1024h-512zM512 1280q0 -106 74 -182q76 -74 182 -74q104 0 180 74q76 76 76 182 q0 104 -76 180t-180 76q-106 0 -182 -76q-74 -76 -74 -180z" />
<glyph unicode="S" d="M0 0v512h512l-512 512v1024h1024q212 0 360 -152q152 -150 152 -360h-512l512 -512v-512q0 -214 -152 -362q-150 -150 -360 -150h-1024z" />
<glyph unicode="T" d="M0 1536v512h1024q212 0 360 -152q152 -150 152 -360h-512v-1536h-512v1536h-512z" />
<glyph unicode="U" d="M0 0v2048h512v-1536h512v1536q212 0 360 -152q152 -150 152 -360v-1024q0 -214 -152 -362q-150 -150 -360 -150h-1024z" />
<glyph unicode="V" d="M0 0v2048h512v-1536q210 0 360 150q152 150 152 362v1024q212 0 360 -152q152 -150 152 -360v-1024q0 -214 -152 -362q-150 -150 -360 -150h-1024z" />
<glyph unicode="W" horiz-adv-x="2334" d="M0 0v2048h512v-1024q0 -212 150 -362q48 -50 106 -84v446h512v-446q56 34 104 84q152 150 152 362v1024q210 0 360 -152q152 -148 152 -360v-1024q0 -212 -152 -362q-148 -150 -360 -150h-1536z" />
<glyph unicode="X" d="M0 0v2048h512v-512q0 -142 66 -256h378q68 114 68 256v512q212 0 360 -152q152 -150 152 -360v-1024q0 -214 -152 -362q-150 -150 -360 -150v512q0 140 -68 256h-378q-66 -116 -66 -256v-512h-512z" />
<glyph unicode="Y" d="M0 512v1536h512v-1024q210 0 360 150q152 150 152 362v512q212 0 360 -152q152 -150 152 -360v-512q0 -214 -152 -362q-150 -150 -360 -150v-512h-512v512h-512z" />
<glyph unicode="Z" d="M0 0v512l1024 1024h-1024v512h1024q212 0 360 -152q152 -150 152 -360v-512l-512 -512h512q0 -214 -152 -362q-150 -150 -360 -150h-1024z" />
<glyph unicode="a" d="M0 0v2048h1024q212 0 360 -152q152 -150 152 -360v-1536h-512v512q0 210 -152 360q-150 152 -360 152v-1024h-512zM512 1280q0 -106 74 -182q76 -74 182 -74q104 0 180 74q76 76 76 182q0 104 -76 180t-180 76q-106 0 -182 -76q-74 -76 -74 -180z" />
<glyph unicode="b" d="M0 0v2048h1024q212 0 360 -152q152 -150 152 -360v-1024q0 -214 -152 -362q-150 -150 -360 -150h-1024zM512 768q0 -106 74 -182q76 -74 182 -74q104 0 180 74q76 76 76 182q0 104 -76 180t-180 76q104 0 180 74q76 76 76 182q0 104 -76 180t-180 76q-106 0 -182 -76 q-74 -76 -74 -180q0 -106 74 -182q76 -74 182 -74q-106 0 -182 -76q-74 -76 -74 -180z" />
<glyph unicode="c" d="M0 0v2048h1024q212 0 360 -152q152 -150 152 -360h-512q-212 0 -362 -152q-150 -150 -150 -360q0 -212 150 -362t362 -150h512q0 -214 -152 -362q-150 -150 -360 -150h-1024z" />
<glyph unicode="d" d="M0 0v2048h1024q212 0 360 -152q152 -150 152 -360v-1024q0 -214 -152 -362q-150 -150 -360 -150h-1024zM512 1280q0 -106 74 -182q76 -74 182 -74q104 0 180 74q76 76 76 182q0 104 -76 180t-180 76q-106 0 -182 -76q-74 -76 -74 -180z" />
<glyph unicode="e" d="M0 0v2048h1024q212 0 360 -152q152 -150 152 -360h-512q-212 0 -362 -152q-50 -48 -84 -104h446v-512h-446q34 -58 84 -106q150 -150 362 -150h512q0 -214 -152 -362q-150 -150 -360 -150h-1024z" />
<glyph unicode="f" d="M0 0v2048h1024q212 0 360 -152q152 -150 152 -360h-512q-212 0 -362 -152q-50 -48 -84 -104h446v-512h-512v-768h-512z" />
<glyph unicode="g" d="M0 0v2048h1024q212 0 360 -152q152 -150 152 -360h-1024v-1024h512v512q212 0 360 -152q152 -150 152 -360q0 -214 -152 -362q-150 -150 -360 -150h-1024z" />
<glyph unicode="h" d="M0 0v2048h512v-512h512v512q212 0 360 -152q152 -150 152 -360v-1024q0 -214 -152 -362q-150 -150 -360 -150v512q0 210 -152 360q-150 152 -360 152v-1024h-512z" />
<glyph unicode="i" d="M0 0v512h512v1024h-512v512h1024q212 0 360 -152q152 -150 152 -360h-512v-1024h512q0 -214 -152 -362q-150 -150 -360 -150h-1024z" />
<glyph unicode="j" d="M0 0v512h1024v512q0 210 -152 360q-150 152 -360 152h-512v512h1024q212 0 360 -152q152 -150 152 -360v-1024q0 -214 -152 -362q-150 -150 -360 -150h-1024z" />
<glyph unicode="k" d="M0 0v2048h512v-512h512v512q212 0 360 -152q152 -150 152 -360q-212 0 -362 -152q-50 -48 -84 -104h446v-768q0 -214 -152 -362q-150 -150 -360 -150v1024h-512v-1024h-512z" />
<glyph unicode="l" d="M0 0v2048h512v-1024q0 -212 150 -362t362 -150h512q0 -214 -152 -362q-150 -150 -360 -150h-1024z" />
<glyph unicode="m" horiz-adv-x="2334" d="M0 0v2048h1536q212 0 360 -152q152 -150 152 -360v-1024q0 -214 -152 -362q-150 -150 -360 -150v1024q0 210 -152 360q-48 50 -104 84v-444h-512v444q-58 -34 -106 -84q-150 -150 -150 -360v-1024h-512z" />
<glyph unicode="n" d="M0 0v2048h1024q212 0 360 -152q152 -150 152 -360v-1024q0 -214 -152 -362q-150 -150 -360 -150v1024q0 210 -152 360q-150 152 -360 152v-1536h-512z" />
<glyph unicode="o" d="M0 0v1536q0 212 150 360q150 152 362 152h512q212 0 360 -152q152 -150 152 -360v-1024q0 -214 -152 -362q-150 -150 -360 -150h-1024zM512 1280q0 -106 74 -182q76 -74 182 -74q104 0 180 74q76 76 76 182q0 104 -76 180t-180 76q-106 0 -182 -76q-74 -76 -74 -180z" />
<glyph unicode="p" d="M0 0v2048h1024q212 0 360 -152q152 -150 152 -360v-512q0 -214 -152 -362q-150 -150 -360 -150h-512v-512h-512zM512 1280q0 -106 74 -182q76 -74 182 -74q104 0 180 74q76 76 76 182q0 104 -76 180t-180 76q-106 0 -182 -76q-74 -76 -74 -180z" />
<glyph unicode="q" horiz-adv-x="2334" d="M0 0v2048h1024q212 0 360 -152q152 -150 152 -360v-1024l512 -512q0 -212 -152 -360q-150 -152 -360 -152l-512 512h-1024zM512 1280q0 -106 74 -182q76 -74 182 -74q104 0 180 74q76 76 76 182q0 104 -76 180t-180 76q-106 0 -182 -76q-74 -76 -74 -180z" />
<glyph unicode="r" d="M0 0v2048h1024q212 0 360 -152q152 -150 152 -360q0 -214 -152 -362q-150 -150 -360 -150q212 0 360 -152q152 -150 152 -360v-512h-512v512q0 210 -152 360q-150 152 -360 152v-1024h-512zM512 1280q0 -106 74 -182q76 -74 182 -74q104 0 180 74q76 76 76 182 q0 104 -76 180t-180 76q-106 0 -182 -76q-74 -76 -74 -180z" />
<glyph unicode="s" d="M0 0v512h512l-512 512v1024h1024q212 0 360 -152q152 -150 152 -360h-512l512 -512v-512q0 -214 -152 -362q-150 -150 -360 -150h-1024z" />
<glyph unicode="t" d="M0 1536v512h1024q212 0 360 -152q152 -150 152 -360h-512v-1536h-512v1536h-512z" />
<glyph unicode="u" d="M0 0v2048h512v-1536h512v1536q212 0 360 -152q152 -150 152 -360v-1024q0 -214 -152 -362q-150 -150 -360 -150h-1024z" />
<glyph unicode="v" d="M0 0v2048h512v-1536q210 0 360 150q152 150 152 362v1024q212 0 360 -152q152 -150 152 -360v-1024q0 -214 -152 -362q-150 -150 -360 -150h-1024z" />
<glyph unicode="w" horiz-adv-x="2334" d="M0 0v2048h512v-1024q0 -212 150 -362q48 -50 106 -84v446h512v-446q56 34 104 84q152 150 152 362v1024q210 0 360 -152q152 -148 152 -360v-1024q0 -212 -152 -362q-148 -150 -360 -150h-1536z" />
<glyph unicode="x" d="M0 0v2048h512v-512q0 -142 66 -256h378q68 114 68 256v512q212 0 360 -152q152 -150 152 -360v-1024q0 -214 -152 -362q-150 -150 -360 -150v512q0 140 -68 256h-378q-66 -116 -66 -256v-512h-512z" />
<glyph unicode="y" d="M0 512v1536h512v-1024q210 0 360 150q152 150 152 362v512q212 0 360 -152q152 -150 152 -360v-512q0 -214 -152 -362q-150 -150 -360 -150v-512h-512v512h-512z" />
<glyph unicode="z" d="M0 0v512l1024 1024h-1024v512h1024q212 0 360 -152q152 -150 152 -360v-512l-512 -512h512q0 -214 -152 -362q-150 -150 -360 -150h-1024z" />
<glyph unicode="&#x2000;" horiz-adv-x="1025" />
<glyph unicode="&#x2001;" horiz-adv-x="2050" />
<glyph unicode="&#x2002;" horiz-adv-x="1025" />
<glyph unicode="&#x2003;" horiz-adv-x="2050" />
<glyph unicode="&#x2004;" horiz-adv-x="683" />
<glyph unicode="&#x2005;" horiz-adv-x="512" />
<glyph unicode="&#x2006;" horiz-adv-x="341" />
<glyph unicode="&#x2007;" horiz-adv-x="341" />
<glyph unicode="&#x2008;" horiz-adv-x="256" />
<glyph unicode="&#x2009;" horiz-adv-x="410" />
<glyph unicode="&#x200a;" horiz-adv-x="113" />
<glyph unicode="&#x202f;" horiz-adv-x="410" />
<glyph unicode="&#x205f;" horiz-adv-x="512" />
<glyph unicode="&#x25fc;" horiz-adv-x="2050" d="M0 0v2050h2050v-2050h-2050z" />
</font>
</defs>
</svg>
