<?xml version="1.0" standalone="no"?>
<!DOCTYPE svg PUBLIC "-//W3C//DTD SVG 1.1//EN" "http://www.w3.org/Graphics/SVG/1.1/DTD/svg11.dtd" >
<svg xmlns="http://www.w3.org/2000/svg">
<metadata></metadata>
<defs>
<font id="wild_west_windregular" horiz-adv-x="1978" >
<font-face units-per-em="2048" ascent="1638" descent="-410" />
<missing-glyph horiz-adv-x="1024" />
<glyph horiz-adv-x="2048" />
<glyph horiz-adv-x="2048" />
<glyph unicode="&#xd;" horiz-adv-x="1024" />
<glyph unicode=" "  horiz-adv-x="1024" />
<glyph unicode="&#x09;" horiz-adv-x="1024" />
<glyph unicode="&#xa0;" horiz-adv-x="1024" />
<glyph unicode="$" horiz-adv-x="1564" d="M291 106q2 0 20.5 -9t41 -20t43 -22.5t26.5 -13.5q61 -29 117.5 -33t117.5 -20q23 -6 24 -47t2 -89.5t15.5 -86t63.5 -37.5q41 0 58.5 29.5t21.5 70.5t0 81t-4 62q0 8 8 14.5t14 8.5q53 16 108.5 24.5t108.5 28.5q10 -4 17.5 -10t13.5 -12q31 0 65.5 22.5t59.5 38.5 q14 0 26.5 -4t24.5 -4q61 0 108.5 46t81 110.5t51 135t17.5 119.5q0 127 -53 229.5t-150 180.5l-2 4q-59 43 -124.5 73t-131.5 56q-10 4 -18 8t-12 15q-6 27 -11.5 54.5t-15.5 48t-31.5 33.5t-60.5 13q-20 0 -36.5 -6t-35.5 -14h-12t-8 8q-10 51 -7 110.5t3 112.5 q0 8 -1 28.5t0 42t4 39t13 21.5l20 2q31 0 81.5 -9t98.5 -27.5t82.5 -48t34.5 -68.5q0 -16 -9 -26.5t-20.5 -24t-20.5 -34t-9 -55.5q0 -72 50 -115.5t120 -43.5q55 0 95 22.5t65.5 60.5t37 85t11.5 96q0 14 -5 58t-16.5 91t-27 83t-33.5 36q-12 0 -23.5 -9t-19.5 -20h-12 q-20 39 -49 62l-9 2q-14 0 -20 -10.5t-12.5 -23.5t-13.5 -23.5t-21 -10.5l-23 11q-22 12 -51 25.5t-58.5 25.5t-47.5 16l-199 31q-10 2 -16.5 12t-14.5 22.5t-22.5 23t-40.5 10.5q-27 0 -38 -8.5t-18.5 -20.5t-13.5 -26.5t-22 -24.5q-16 -2 -43 -10.5t-55.5 -16.5 t-52.5 -15.5t-30 -7.5q-25 0 -27.5 11.5t-19.5 11.5q-20 0 -40.5 -12.5t-41 -27.5t-37 -27.5t-28.5 -12.5q-10 0 -21.5 4t-21.5 4q-35 0 -69 -29.5t-62.5 -71.5t-48 -86t-25.5 -73q-6 -27 -7 -53.5t-1 -52.5q0 -72 18.5 -130.5t50.5 -121.5q27 -20 42.5 -47t37.5 -49 q35 -29 72 -53.5t70 -53.5l145 -67q0 -29 6 -55.5t19.5 -49t35 -36t54.5 -13.5q29 0 50 11t40 11l8 -2q2 -12 3 -23t1 -24v-301v-16t-2 -25.5t-5 -24t-11 -10.5q-29 0 -78 10.5t-96.5 30t-82 47t-34.5 62.5q0 6 4 18q35 31 52.5 63t17.5 79q0 37 -16.5 68.5t-43.5 55 t-61.5 37t-69.5 13.5q-68 0 -113 -28t-71.5 -72t-37.5 -100t-11 -112q0 -14 6 -54t16 -83t23.5 -75.5t29.5 -32.5q18 0 29.5 14t30.5 14q12 0 20 -11t14.5 -25.5t13.5 -25.5t21 -11l21 12q2 6 6 16.5t10 21.5t12.5 19t12.5 8zM928 586q74 -16 133 -65.5t59 -131.5 q0 -41 -23.5 -83t-59.5 -74.5t-79 -53t-84 -20.5q-14 0 -25 2t-11 22v293q0 6 11 24.5t26.5 37t31 34t21.5 15.5zM565 915q0 20 13.5 33t33 19t40 7t34.5 1q27 0 72 -9.5t88 -27.5t74.5 -45t31.5 -62q0 -25 -15 -37t-36.5 -18t-46.5 -7t-41 -1q-29 0 -71 9t-81.5 27.5 t-67.5 46t-28 64.5zM446 1341q0 37 21.5 71t54.5 60.5t72 43t74 16.5l8 -16q2 -10 3 -18.5t1 -18.5v-199q-2 -6 -12.5 -24.5t-23.5 -37t-26.5 -34t-21.5 -15.5h-4q-57 23 -101.5 64.5t-44.5 107.5z" />
<glyph unicode="&#x26;" horiz-adv-x="2150" d="M598 31q14 0 37.5 -7.5t51.5 -14.5t56.5 -14t57.5 -7q80 0 154.5 27.5t133 61.5t95.5 62.5t41 28.5h4q27 -18 51.5 -38.5t51 -36t54 -26t62.5 -8.5q12 -10 18.5 -18t13.5 -13t18 -7.5t30 -2.5q27 0 44 5.5t28.5 12.5t19.5 12t16 5q12 0 29.5 -4t37 -8t38 -10t31.5 -8 q27 -6 37 8t26 14q27 0 51.5 -8t50.5 -8q88 0 138.5 41t50.5 133q0 27 -11.5 51.5t-31 42.5t-44 29.5t-50.5 11.5q-37 0 -60.5 -16.5t-39 -35t-25 -34.5t-15.5 -16q-29 0 -77 33.5t-96 75.5t-87 82t-51 52l-4 21q2 18 29.5 53t63.5 69.5t71 65.5t51 43q6 0 8 -8t3 -18.5 t2 -20.5t1 -14q10 -43 52.5 -79t87.5 -36q80 0 138 51t58 135q0 90 -59.5 145.5t-147.5 55.5q-66 0 -121 -21.5t-102 -54t-86 -70.5t-69.5 -72t-54 -57.5t-38.5 -27.5q-6 0 -15 9t-18.5 21.5t-15.5 25t-6 18.5v4q27 27 39 41t12 53q0 43 -19.5 66.5t-44 37t-44 20.5 t-19.5 19q0 25 28 38.5t46 21.5h31q12 0 21 2t20.5 7t29.5 13q18 0 34 -6t32 -6q47 0 90 34t75 84t51 107.5t19 102.5q0 43 -16 94t-46 95t-71 74t-90 30q-14 0 -25.5 -6.5t-25.5 -6.5h-8q-23 14 -48.5 29.5t-54.5 15.5q-10 0 -16 -12t-18 -12q-4 0 -23.5 8t-48.5 19.5 t-63.5 19.5t-65.5 8q-74 0 -133.5 -22.5t-126.5 -47.5q-16 6 -17 13q0 8 -20 8q-16 0 -33.5 -11.5t-35 -23.5t-33 -23.5t-25.5 -11.5q-12 0 -23.5 6.5t-23.5 6.5q-47 0 -84 -40t-62.5 -96.5t-39 -115t-13.5 -95.5q0 -31 8.5 -67.5t19.5 -68.5t19 -55.5t8 -27.5q0 -12 -8 -19 t-19 -18.5t-19.5 -28t-8.5 -42.5q0 -23 10.5 -45.5t20.5 -40.5q0 -12 -12.5 -19.5t-22.5 -7.5t-16 6t-17 6q-16 0 -30.5 -7t-27.5 -16t-26.5 -16.5t-27.5 -7.5q-16 0 -30.5 8.5t-31.5 8.5q-27 0 -49 -13.5t-43 -29.5q-80 -59 -117 -146.5t-37 -185.5q0 -68 27 -139.5 t73 -130t108.5 -96.5t136.5 -38q20 0 32.5 5.5t19.5 10.5t13 10t14 5q31 0 57.5 -17.5t59.5 -17.5q10 0 18.5 8.5t18.5 8.5zM516 471q0 59 18.5 120.5t65.5 102.5l14 4l4 -2q23 -25 49.5 -41t61.5 -16q20 0 36.5 12.5t37.5 12.5q4 0 25.5 -24t50 -60.5t62.5 -80.5t65.5 -85 t55 -73t34.5 -44q4 -8 4 -14q0 -27 -38 -51.5t-87 -43t-98.5 -30t-69.5 -11.5q-66 0 -120 28t-92 73t-58.5 103.5t-20.5 119.5zM827 1026q31 0 77 -31.5t88 -77t73 -91.5t31 -76q0 -33 -33 -33q-37 0 -79 27.5t-80 67.5t-69.5 83t-48.5 74v37q0 14 15.5 17t25.5 3zM950 1358 q0 90 55.5 140t141.5 50q45 0 80 -19.5t58.5 -50t35.5 -70.5t12 -81q0 -61 -24.5 -117.5t-71.5 -97.5q-23 -20 -44.5 -17t-47.5 -1q-14 -4 -25.5 -11.5t-25.5 -7.5h-9q-27 20 -51 55t-42.5 74t-30 79t-11.5 75z" />
<glyph unicode="*" horiz-adv-x="1210" d="M600 471q8 0 19.5 -16.5t32 -35t49 -34.5t69.5 -16q25 0 50.5 10t45 26.5t31.5 40t12 50.5q0 66 -43 95.5t-102 33.5q0 14 18.5 41.5t44 55.5t52 47t43.5 19q10 0 11 -8t1 -14q0 -14 -2 -23q8 -45 40 -74.5t79 -29.5q61 0 97 43t36 102q0 47 -29 86t-63 68l-2 6 q0 10 15 24.5t33.5 34t34 47t15.5 64.5q0 59 -39 101t-98 42q-55 0 -87 -35.5t-30 -88.5l2 -21q-8 -4 -12 -4q-12 0 -38 19.5t-53.5 45t-48 52t-20.5 41.5l4 10q53 -4 99 23.5t46 89.5q0 59 -39.5 98t-99.5 39q-51 0 -87 -26.5t-71 -61.5q-8 -4 -12 -4q-14 0 -25.5 15 t-29 32.5t-46 33t-73.5 15.5q-53 0 -92 -38t-39 -91q0 -59 39 -91t94 -30h8l4 -10q0 -16 -19 -41t-45 -49.5t-52.5 -45t-40.5 -26.5h-4l-11 4q4 63 -25.5 102t-96.5 39q-63 0 -94 -39.5t-31 -99.5q0 -43 15 -70.5t33.5 -45t34 -29t15.5 -19.5q0 -10 -16.5 -22.5t-35 -31.5 t-35 -47t-16.5 -67q0 -59 41 -101t101 -42q43 0 65.5 20.5t32.5 47t13 50t12 27.5q14 0 40.5 -17t52 -41t44 -49.5t18.5 -39.5q0 -4 -2 -8t-6 -4q-55 0 -98 -25t-43 -88q0 -59 41 -99t100 -40q37 0 64.5 15t48 33.5t34 34t21.5 15.5zM528 922v24q0 35 18.5 57.5t53.5 22.5 q82 0 82 -78q0 -37 -24.5 -56.5t-59.5 -19.5q-16 0 -43 13.5t-27 36.5z" />
<glyph unicode="0" horiz-adv-x="1931" d="M733 37h12q45 -27 109 -38t115 -11q37 0 72.5 8t67.5 18.5t56.5 18.5t36.5 8q10 0 17.5 -9t19.5 -9t33.5 9t46 22.5t47.5 25.5t35 18q16 0 27.5 -8t27.5 -8q27 0 56.5 19.5t50.5 35.5q59 51 96 106.5t58.5 117t33.5 129t25 139.5q4 18 14 26q47 6 80 32t33 79 q0 25 -7.5 43t-16.5 31.5t-16.5 22.5t-7.5 18v8q23 20 38.5 43.5t15.5 54.5q0 53 -38 81t-85 34q-12 14 -22.5 56t-22.5 93.5t-30.5 101.5t-45.5 81l-96 110q-20 23 -56 42.5t-67 19.5q-12 0 -23.5 -4.5t-23.5 -4.5h-8q-14 8 -35 20.5t-43.5 24t-44 18.5t-37.5 7h-12 l-19 -20q-12 0 -35.5 8t-54.5 17t-67.5 17.5t-77.5 8.5q-72 0 -120 -11.5t-112 -39.5q-18 0 -21 12t-18 12q-18 0 -39.5 -10t-44 -23.5t-44 -26t-38.5 -18.5q-23 16 -49 17q-31 0 -65.5 -20.5t-67.5 -51.5t-59.5 -64.5t-40.5 -58.5q-41 -76 -58.5 -144.5t-37.5 -154.5 q-4 -14 -25 -20t-43.5 -15.5t-42 -30t-19.5 -63.5q0 -27 7.5 -44t16.5 -29.5t17.5 -21.5t8.5 -18v-6q-18 -20 -34 -43.5t-16 -52.5q0 -53 33 -84t82 -41l10 -14q6 -82 25.5 -163t56.5 -153.5t93.5 -133t134.5 -97.5q18 0 33.5 6t31.5 6q2 0 20.5 -10t39 -22.5t38.5 -22.5 l17 -10q14 -4 28.5 -9.5t30.5 -5.5q12 0 19.5 9.5t19.5 9.5zM653 590q0 51 20.5 62.5t46 17.5t46 23.5t20.5 80.5q0 20 -7 33.5t-17 25t-19.5 20.5t-13.5 24v2v2q6 6 15.5 14t18.5 18.5t15 20.5t6 18v31q0 29 -9 54.5t-38 39.5l-18 6t-26.5 8.5t-25 10.5t-10.5 12 q0 74 13.5 150.5t48.5 139t92 103.5t147 41q84 0 142.5 -34.5t95.5 -92t54.5 -128t17.5 -144.5v-35q-6 -10 -26.5 -16t-42 -16.5t-39 -31t-17.5 -57.5q0 -35 16.5 -61.5t40.5 -50.5l-4 -13q-27 -23 -41 -46t-14 -60q0 -43 20.5 -61.5t45 -30t45 -22.5t20.5 -38 q0 -84 -12.5 -167t-48 -149.5t-99 -108.5t-164.5 -42q-90 0 -146.5 43t-90 109.5t-46 144.5t-12.5 150zM1415 877q0 90 47 172q16 10 30.5 18t33.5 8q33 0 53 -21.5t30.5 -53t13.5 -65.5t3 -58q0 -27 -3 -62t-14.5 -66.5t-33 -53t-55.5 -21.5q-31 0 -51.5 22.5t-32 55 t-16.5 67.5t-5 58zM299 881q0 27 4 60.5t16.5 63t34 50t56.5 20.5q27 0 46 -21.5t31.5 -50t17.5 -61.5t5 -53q0 -25 -4 -60.5t-15.5 -69.5t-33 -57.5t-54.5 -23.5q-35 0 -56 21.5t-31.5 53t-13.5 66.5t-3 62z" />
<glyph unicode="1" horiz-adv-x="1361" d="M750 158l10 -13q6 -20 12 -42.5t15.5 -44t22.5 -40t34 -28.5q35 29 52 70.5t28 84.5l8 9q25 -20 41 -46t36.5 -47.5t51.5 -37t86 -15.5q72 0 125 36t53 114q0 53 -35 89t-88 36q-37 0 -58.5 -13.5t-43.5 -40.5h-4q-10 6 -15.5 20.5t-7.5 31t-1 34t1 27.5q0 31 -1 70 t-2 77.5t1 75.5t8 66q4 16 24.5 20t43 12.5t41 30t18.5 70.5q0 20 -7 35.5t-15 28t-15.5 23.5t-7.5 21v2q2 4 10.5 13.5t15.5 21t13 20.5t6 13v25q0 35 -12 63.5t-43 44.5q-4 2 -15.5 6t-22.5 9.5t-20.5 10.5t-9.5 9v242q0 39 13 80l14 18q10 -4 19.5 -14.5t20.5 -20.5 t26.5 -18t37.5 -8q51 0 88 31.5t37 84.5q0 72 -51 115t-121 43q-47 0 -76.5 -11.5t-51 -29.5t-42 -42t-51.5 -50q-8 10 -16 35.5t-19.5 53.5t-26 48.5t-34.5 20.5t-34.5 -29t-25 -62.5t-17.5 -62.5t-11 -31q-27 18 -44.5 47t-41 55.5t-59 46t-99.5 19.5q-8 0 -17 -11 t-18.5 -26.5t-16.5 -31t-11 -23.5q-51 -82 -101.5 -147.5t-115.5 -137.5l-11 -2q-23 0 -40 18.5t-50 18.5q-49 0 -83 -34.5t-34 -84.5q0 -57 44.5 -96t99.5 -39q25 0 46 12.5t44 18.5q45 39 76.5 66.5t59.5 57.5t57.5 65.5t72.5 88.5q12 16 18.5 34t26.5 32q23 0 35 -22.5 t17.5 -52t5.5 -60.5v-47v-37q0 -25 -1 -52.5t-4.5 -51t-9.5 -27.5q-23 -14 -44 -19.5t-37.5 -13.5t-27 -26.5t-10.5 -57.5q0 -23 5.5 -36t13.5 -24.5t16 -21.5t15 -27q-4 -16 -13.5 -26t-18.5 -19.5t-15.5 -23.5t-6.5 -41q0 -47 19.5 -67.5t44 -30t44 -16.5t19.5 -27v-320 q0 -12 -5 -41t-23 -29h-2q-25 29 -46.5 43.5t-60.5 14.5q-53 0 -86 -36t-33 -89q0 -78 52.5 -116t123.5 -38q51 0 80 12.5t49.5 33t39 47t49.5 53.5zM752 864q0 23 4 57.5t16 67.5t31.5 56.5t50.5 23.5q29 0 47.5 -22.5t28.5 -54t14 -65.5t4 -55q0 -18 -5 -51t-16.5 -64.5 t-28.5 -56t-42 -24.5q-33 0 -53.5 19.5t-31.5 49t-15 62t-4 57.5z" />
<glyph unicode="2" horiz-adv-x="1507" d="M360 172q88 0 169 -28.5t160 -62.5t161 -61.5t172 -27.5q53 0 82 9t47 22.5t35.5 29t50.5 27.5q45 18 87 39.5t75 51.5t52 71t19 96q0 47 -11 92t-35.5 79t-62.5 54.5t-91 20.5q-66 0 -113 -44t-47 -110q0 -53 37 -91t90 -38h23q12 0 22 4l4 -6q0 -20 -15.5 -34.5 t-38 -24t-46 -13.5t-39.5 -4q-72 0 -140.5 22.5t-139 50.5t-146.5 50.5t-160 22.5q-16 0 -33.5 -4.5t-33.5 -2.5q-61 -23 -116.5 -46t-121.5 -35l-10 2q-4 12 -4 20q0 57 42 102.5t100 75t122.5 44t109.5 10.5l27 -3q12 -10 19.5 -25t16.5 -29.5t26.5 -24t54.5 -9.5 q41 0 66.5 24t47.5 54l11 4q23 0 41 -12t41 -12q53 0 89 34.5t31 88.5l-2 22l15 17q80 27 150.5 71.5t122.5 105t82 136.5t30 164q0 106 -31 205q-8 25 -30.5 64.5t-51.5 76.5t-61.5 64.5t-61.5 27.5q-10 0 -21 -4t-22 -4h-8q-6 4 -23.5 16t-36 24.5t-35 21.5t-22.5 9 q-14 0 -16 -13t-16 -13h-7q-76 43 -159.5 60.5t-169.5 17.5q-49 0 -89 -5.5t-75 -16.5t-70 -28.5t-78 -41.5h-4l-10 4q-2 6 -4 16t-5 20.5t-7 17.5t-13 7q-14 0 -26.5 -11t-23.5 -23.5t-22.5 -24t-19.5 -11.5q-12 0 -19 9.5t-20 9.5q-27 0 -48 -36t-36.5 -84t-23.5 -94 t-8 -67q0 -53 14 -100t42 -84t70 -58.5t99 -21.5q76 0 126 54.5t50 127.5q0 37 -10 57.5t-22.5 33t-23 21.5t-10.5 26q0 41 33 69.5t78 47t92 27.5t78 9q55 0 115.5 -14t112 -44t85 -76t33.5 -112q0 -18 -9 -46.5t-24.5 -54.5t-35 -44t-41.5 -18q-14 0 -20.5 11t-17 25.5 t-29.5 25.5t-58 11q-29 0 -49.5 -12t-35 -25.5t-24.5 -25.5t-16 -12h-2q-20 14 -42 22t-46 8q-49 0 -71 -23.5t-30 -52t-10 -53t-10 -28.5q-41 -16 -85 -32t-83 -36q-31 -16 -81 -54t-96 -85t-80 -100.5t-34 -100.5q0 -27 14.5 -38t14.5 -30q0 -8 -8.5 -25.5t-17.5 -41 t-17.5 -50t-8.5 -51.5q0 -12 5.5 -17t10.5 -8l10 -6t5 -9q0 -27 -6 -52.5t-6 -52.5q0 -31 6 -64.5t20.5 -64.5t37 -54.5t55.5 -33.5q70 4 103.5 27.5t29.5 97.5v27q12 16 32.5 18t36.5 2zM600 793q0 35 33 61.5t77 43.5t90 26.5t72 9.5q14 0 37 -2t43.5 -8t34.5 -18.5 t14 -33.5q0 -35 -29.5 -61.5t-65.5 -42.5t-66.5 -25.5t-32.5 -11.5q-23 -4 -43.5 -6t-42.5 -2q-18 0 -38.5 2t-39 9t-31 21.5t-12.5 37.5z" />
<glyph unicode="3" horiz-adv-x="1472" d="M334 74q66 -43 140.5 -63.5t152.5 -20.5q37 0 72.5 5t72.5 9q41 18 85 29.5t85 32.5q10 0 14.5 -5.5t5.5 -10.5t4 -10t13 -5h10q37 16 70 40.5t67 47.5q16 0 29.5 -4t30.5 -4q55 0 103 41t84 99t56.5 122.5t20.5 111.5q0 68 -19.5 130.5t-54.5 115.5t-86 94t-114 64 l-9 10l4 6q115 66 166.5 149t51.5 218q0 45 -19.5 102.5t-53.5 107.5t-80 84t-97 34q-16 0 -29.5 -8.5t-26.5 -8.5q-12 0 -33.5 12.5t-48 27.5t-53 27.5t-49.5 12.5q-16 0 -19 -15.5t-16 -15.5q-8 0 -30.5 9.5t-54 21.5t-70.5 21.5t-82 9.5q-127 0 -236 -53 q-27 -14 -52.5 -35t-53.5 -31q-12 0 -18.5 11.5t-10.5 23.5t-9 23.5t-20 11.5h-4q-4 -4 -13 -15.5t-19.5 -24t-19.5 -21.5t-15 -9q-18 0 -29.5 19.5t-32.5 19.5q-23 -25 -36 -62.5t-22 -79.5t-12.5 -84t-3.5 -73q0 -45 15.5 -89t44.5 -78t67.5 -55.5t88.5 -21.5 q82 0 136 49.5t54 132.5q0 27 -8 48.5t-19.5 38t-19.5 28.5t-8 21q0 35 26.5 63.5t65.5 48t80 30.5t69 11q133 0 215 -80t82 -215q0 -127 -71.5 -210t-202.5 -83q-23 0 -30 16.5t-16 35t-28.5 35t-62.5 16.5q-47 0 -79 -32t-32 -79q0 -23 13.5 -42t13.5 -42 q0 -16 -10.5 -34.5t-10.5 -38.5q0 -49 35 -81t82 -32q45 0 63.5 18.5t26.5 41t15.5 41t33.5 18.5q74 0 132.5 -24.5t100.5 -70t63.5 -105.5t21.5 -132q0 -74 -23.5 -133.5t-66.5 -101.5t-103.5 -64.5t-134.5 -22.5q-31 0 -77 8.5t-87 27t-70.5 47t-29.5 69.5q0 12 10 24.5 t22.5 30t22.5 43t10 64.5t-14 72.5t-39 59t-58.5 41t-72.5 15.5q-57 0 -100 -23.5t-73 -61.5t-44 -87t-14 -100q0 -18 8 -74.5t21.5 -115t32.5 -104.5t42 -46h2q16 6 30.5 17t26.5 22q16 0 26.5 -9.5t20 -19.5t19.5 -19.5t27 -9.5q12 0 17 9.5t8 19.5t8 19.5t16 9.5h4z" />
<glyph unicode="4" horiz-adv-x="1873" d="M1077 147q2 -14 8.5 -39.5t17.5 -51t26.5 -45t33.5 -19.5h6q27 23 41 49q2 6 7.5 24.5t11.5 39t12 36t12 15.5q8 0 21.5 -22.5t37 -50.5t61.5 -50.5t97 -22.5q31 0 63 9.5t57.5 28t41 45t15.5 61.5q0 51 -34 92t-87 41q-23 0 -41.5 -10.5t-32.5 -21.5t-23.5 -21.5 t-11.5 -10.5q-8 0 -13 7.5t-7 17.5t-2 20v17v331q0 8 4 19.5t14 11.5h182q12 0 19.5 -18.5t19 -41t33 -41t59.5 -18.5q49 0 87 33t38 84q0 63 -27.5 96t-70.5 47.5t-93 15.5t-95 1q-43 0 -58.5 12t-36.5 51q6 14 15.5 25.5t17.5 22t14.5 23.5t6.5 34q0 51 -19.5 73.5 t-42 31.5t-44 13.5t-23.5 18.5q-8 45 -6 93t2 95v33t3 50.5t8 45t17 19.5h4q27 -29 44.5 -40t58.5 -11q53 0 87 33.5t34 87.5q0 70 -50.5 110.5t-115.5 40.5q-61 0 -100.5 -21.5t-64 -48t-38.5 -48t-23 -21.5l-6 2q-4 14 -11 39.5t-19.5 51.5t-27.5 45.5t-32 19.5 q-25 0 -42 -30t-27.5 -70t-16.5 -79t-8 -57l-6 -4h-4q-27 43 -60.5 83t-75.5 70.5t-90.5 49t-101.5 18.5q-29 0 -59.5 -6t-55 -20.5t-41 -38t-16.5 -58.5q0 -29 12.5 -53.5t32.5 -44.5q0 -18 -18.5 -47t-48 -62.5t-66.5 -69.5t-71 -68t-62.5 -59.5t-42.5 -41.5 q-29 -29 -53.5 -61.5t-49.5 -63.5q-6 -8 -12 -28.5t-12 -42t-12.5 -39t-12.5 -17.5q-47 -8 -83 -28.5t-36 -76.5q0 -51 32 -88t85 -37q29 0 49.5 13.5t40.5 29.5h15q31 -23 59.5 -30.5t65.5 -7.5q41 0 83 7t82 13q76 10 154 13t154 3h22t28.5 -3t26 -9t11.5 -16v-344 q0 -10 -7.5 -32t-17.5 -22q-12 0 -18 8.5t-15.5 19.5t-27 19.5t-49.5 8.5q-51 0 -84 -36t-33 -85q0 -76 55 -116t125 -40q39 0 69.5 12.5t55.5 33t45.5 47t40.5 57.5zM1065 934q0 20 8 45t22.5 46.5t35 35.5t43.5 14q25 0 41 -24.5t25 -58.5t13 -67.5t4 -52.5 q0 -27 -3 -60.5t-14 -64t-31.5 -52t-57.5 -21.5q-18 0 -34.5 17.5t-28 40t-17.5 47t-6 40.5v115zM721 805q-82 0 -163 8t-161 18q-6 2 -10 1t-4 8q0 6 4 14q27 31 55.5 62.5t51.5 66.5q53 76 101 153.5t97 155.5q8 12 27.5 37t43 47.5t48.5 40t41 17.5q29 0 45 -31t23.5 -73 t9.5 -83t2 -59q0 -25 -2 -48.5t-8 -45.5q-49 -8 -84 -34t-35 -81q0 -29 14 -55.5t35 -46.5q0 -6 -8 -17.5t-19.5 -24t-21.5 -21.5t-17 -9h-65z" />
<glyph unicode="5" horiz-adv-x="1423" d="M283 82q6 0 21 -8t32.5 -18.5t35 -20.5t25.5 -12q53 -23 110.5 -31t115.5 -8q61 0 118.5 19.5t110.5 49.5q8 0 11 -6t5 -12t5.5 -12.5t13.5 -6.5q2 0 21.5 9.5t42 21.5t43 22.5t26.5 12.5q10 -4 23.5 -11.5t23.5 -7.5q29 0 60.5 14.5t52.5 35.5q59 59 101 106t68.5 98.5 t39 111.5t12.5 144q0 68 -32 152t-85 157.5t-122.5 123t-145.5 49.5q-16 0 -27.5 -11.5t-27.5 -11.5h-3q-6 2 -25.5 10.5t-41 17.5t-39.5 16t-23 7q-27 0 -26 -32h-21q-94 35 -188 34q-68 0 -129.5 -15t-124.5 -42h-2l-12 16q-6 76 -19.5 149t-13.5 148v25q0 20 2 40.5t7 37 t17 16.5h3q41 -16 87 -17t80 -18q37 -16 52.5 -30.5t31 -24.5t40 -16t79.5 -6q57 0 114.5 17t111 38.5t98.5 39t76 17.5q27 0 52 -2t44 -24l-4 -4q-29 -4 -54.5 -10.5t-44 -18.5t-28.5 -35t-10 -57q0 -66 49 -103t108 -37q35 0 67 15.5t55.5 41t37.5 57.5t14 67 q0 63 -15 104t-45 67.5t-72 45t-93 37.5q-37 14 -50 25t-26.5 19.5t-37 12.5t-78.5 4q-59 0 -117 -14.5t-117 -31.5t-121.5 -31.5t-134.5 -14.5q-63 0 -97 9t-50.5 21.5t-20.5 29t-11 28.5t-21.5 21.5t-49.5 9.5q-59 0 -78.5 -41t-19.5 -90q0 -45 8 -87t8 -88 q0 -72 -14 -141t-29 -141q-6 -35 5.5 -75t33.5 -68q0 -12 -6 -22.5t-13 -21t-13.5 -23.5t-6.5 -32q0 -49 35 -80.5t82 -31.5q59 0 76.5 23.5t40.5 72.5q49 45 109.5 70.5t127.5 25.5q88 0 151.5 -34t103.5 -90t59.5 -129t19.5 -152q0 -74 -17.5 -146t-55 -129t-97 -92 t-143.5 -35q-31 0 -71 8.5t-75.5 25.5t-60.5 45t-25 65q0 8 12.5 20t28 29.5t27.5 43t12 60.5q0 78 -54 131t-132 53q-61 0 -105.5 -23.5t-72 -61t-40 -89t-12.5 -106.5q0 -23 8.5 -68t19.5 -89t24.5 -80t23.5 -40q10 0 28.5 10.5t29.5 16.5h2h2q2 0 11 -8t19.5 -18.5 t18.5 -19.5t12 -11q8 -4 12 -4q12 0 17.5 9t9.5 19t9.5 19.5t15.5 9.5z" />
<glyph unicode="6" horiz-adv-x="1716" d="M741 35q49 -23 98.5 -36t102.5 -13q59 0 115.5 16t107.5 45q23 0 26 -10t17 -10q12 0 32 7t39 18t37.5 22.5t31.5 17.5q16 0 28.5 -6t26.5 -6q39 0 69.5 24.5t55.5 49.5q82 80 123 184t41 219q0 47 -3 92t-20 88q-12 37 -39.5 83t-62.5 88t-78 71t-86 29 q-14 0 -25.5 -5.5t-23.5 -5.5h-8q-43 25 -94.5 48.5t-102.5 23.5h-14q-10 -6 -11.5 -20.5t-13.5 -14.5h-6q-31 14 -75 23.5t-79 9.5q-37 0 -72.5 -10t-70.5 -10q-25 0 -28 4t-21 18q-6 4 -21.5 10t-33 12.5t-29.5 11.5t-12 9q0 76 15 153.5t52 140t97.5 102.5t150.5 40 q27 0 67.5 -8t80.5 -24.5t69 -42t29 -58.5v-14q-16 -27 -23.5 -49.5t-7.5 -55.5q0 -39 15.5 -70.5t42 -55t61.5 -36t71 -12.5q49 0 86 23.5t60.5 59.5t35 80t11.5 87q0 16 -6 60.5t-18.5 90.5t-29 80.5t-36.5 34.5q-16 0 -26.5 -13t-26.5 -17l-11 4l-57 53l-14 4l-17 -8 l-22 -53l-8 -4h-5q-72 47 -152.5 73.5t-166.5 26.5q-131 0 -248 -55h-4l-22 24q-41 0 -88.5 -25.5t-79.5 -48.5q-20 0 -29.5 10.5t-24.5 10.5q-29 0 -55.5 -17.5t-48.5 -33.5q-57 -41 -94 -93.5t-61.5 -110.5t-40 -121.5t-29.5 -127.5q-4 -16 -26 -21t-45.5 -14.5t-43 -31 t-19.5 -66.5q0 -29 15.5 -55.5t38.5 -44.5l2 -9q0 -6 -8.5 -16t-17.5 -23.5t-17 -30t-8 -36.5q0 -37 9 -56.5t25.5 -30.5t38 -17.5t45.5 -18.5q4 -6 6.5 -11t4.5 -11q6 -16 6 -41t4 -43q10 -70 33.5 -135.5t56.5 -127.5q29 -53 71 -98t93 -78q12 -8 27.5 -15t31.5 -7 q12 0 23.5 6t23.5 8q20 -8 41 -21.5t41.5 -26.5t42 -22.5t45.5 -9.5q14 0 19.5 11.5t19.5 11.5h8zM662 565q0 16 -1.5 34.5t1.5 35.5q0 10 20 15t45 14.5t44.5 31t19.5 64.5q0 41 -27 84q0 18 22.5 30.5t52 19.5t59.5 11t42 4q25 0 53.5 -1t48.5 -17q2 0 7.5 -6t7.5 -6h10 q43 -27 70.5 -66t45 -85t23.5 -96t6 -97q0 -66 -12 -134.5t-43 -125t-83 -93.5t-132 -37q-84 0 -138 41t-86 102.5t-44 135t-12 141.5zM299 889q0 25 5 55.5t17.5 58t34 47t52.5 19.5q33 0 53 -20.5t32.5 -50t16.5 -63.5t4 -58q0 -27 -5 -62t-18.5 -65.5t-36 -52 t-55.5 -21.5q-31 0 -50 24.5t-30.5 59.5t-15.5 70.5t-4 58.5z" />
<glyph unicode="7" horiz-adv-x="1753" d="M600 150q0 -12 3 -38t9 -51.5t16.5 -45t24.5 -21.5q16 10 40 42t46.5 68.5t42 72.5t29.5 54l10 7q4 0 13.5 -19.5t19.5 -43t20.5 -45t16.5 -30.5q35 -41 81 -64.5t99 -23.5q33 0 63.5 10.5t55 30t39 47t14.5 62.5q0 43 -23.5 76.5t-64.5 50.5q-27 0 -44 -1t-31.5 -6.5 t-29 -15.5t-32.5 -28q-10 0 -13.5 8t-3.5 18q0 31 18.5 81t44.5 105.5t50.5 105.5t36.5 79q2 4 10 8t13 4q31 0 59.5 1t51 11.5t36.5 32t14 62.5q0 18 -8 35.5t-8 35.5q0 16 19.5 20.5t29.5 6.5q27 27 40 49.5t13 61.5q0 25 -11 42t-24.5 30.5t-24.5 22.5t-11 17 q0 18 21.5 71.5t53 113t67.5 111.5t67 69q16 -4 32.5 -6t32.5 -7v-6q18 18 36.5 26.5t34 19t26 28.5t10.5 55q0 47 -35 82t-82 35q-43 0 -70.5 -12.5t-47 -29.5t-39 -34.5t-48.5 -27.5q-8 0 -11 17t-6 37.5t-10.5 38t-21.5 17.5h-6q-16 -12 -33.5 -33.5t-34 -43t-32 -40 t-27.5 -24.5l-8 8q-12 59 -49 93t-99 34q-47 0 -78.5 -28.5t-44.5 -71.5l-4 -4q-12 -4 -59 11t-106.5 35.5t-121 39t-106.5 18.5q-41 0 -66.5 -5t-47 -13.5t-44 -20.5t-55.5 -24l-12 8q-4 14 -9.5 39.5t-25.5 25.5q-12 0 -25.5 -13t-24 -28.5t-19.5 -29t-15 -13.5 q-10 0 -16.5 7.5t-12.5 16.5t-14 17t-21 8q-23 0 -44 -47t-38.5 -108.5t-29 -118.5t-11.5 -78q0 -61 18.5 -120.5t53.5 -105.5t86 -73.5t119 -27.5q37 0 69.5 16t56 43t38 60.5t14.5 68.5q0 51 -17.5 83t-38 50.5t-37.5 29.5t-17 21q0 39 16 67t42 46t57.5 26.5t64.5 8.5 q41 0 80 -12.5t78.5 -28t80.5 -28.5t84 -15q4 0 19.5 -1t33 -4t32 -6.5t14.5 -9.5v-2l-156 -291l-10 -4q-33 0 -62.5 -1t-53 -12t-37 -34.5t-13.5 -66.5q0 -16 6 -30.5t6 -31.5v-10q-37 -16 -68.5 -42t-31.5 -73q0 -35 11 -53t23.5 -29.5t23.5 -19.5t11 -21q0 -6 -11 -38.5 t-29.5 -78.5t-42 -100.5t-48 -102.5t-46 -82t-38.5 -40q-4 0 -11 15.5t-20.5 35t-34 34.5t-52.5 15q-57 0 -97.5 -35.5t-40.5 -95.5q0 -43 18.5 -75.5t48.5 -54t66.5 -32t75.5 -10.5q43 0 76 11.5t59.5 31t52 45l54.5 54.5zM834 737q0 39 25.5 91.5t64.5 99.5t86 79.5 t88 32.5q23 0 30 -13t7 -32q0 -37 -27 -88t-65.5 -99t-85 -82t-85.5 -34q-38 0 -38 45z" />
<glyph unicode="8" horiz-adv-x="1650" d="M565 45q53 -31 114.5 -44t123.5 -13q139 0 274 53q14 0 18.5 -13.5t18.5 -13.5q35 0 80 26t74 44q14 -10 26.5 -13t28.5 -3t25.5 2t25.5 10q119 55 185.5 161.5t66.5 237.5q0 143 -66.5 230.5t-185.5 158.5l-4 11q2 10 37 29.5t76 61.5t75.5 112.5t34.5 181.5 q0 43 -20.5 99t-55 106.5t-79.5 84t-95 33.5q-14 0 -26 -8t-27 -8q-6 0 -30.5 13t-55 30.5t-62.5 31t-50 13.5q-12 0 -15.5 -12.5t-15.5 -12.5q-16 0 -43 8.5t-59.5 19.5t-66.5 19.5t-67 8.5q-66 0 -125 -17.5t-118 -48.5q-12 0 -16.5 5t-6.5 10.5t-5 10.5t-11 5 q-23 0 -39.5 -20.5t-32.5 -22.5q-25 -2 -42 -9.5t-29.5 -15.5t-21.5 -14t-20 -6q-14 0 -24 8t-25 8q-41 0 -83 -29.5t-76.5 -72.5t-57 -91.5t-22.5 -84.5q0 -74 8 -134.5t30.5 -109.5t65.5 -91t111 -81q2 -4 0 -8t-4 -9q-115 -57 -188 -154t-73 -229q0 -59 26 -132.5 t71 -137t104.5 -106.5t126.5 -43q8 0 28.5 4t24.5 2q27 -16 55.5 -30.5t59.5 -22.5q14 -4 20.5 9t20.5 13h8zM817 139q-74 0 -128 25.5t-91 71t-55.5 104.5t-18.5 127t21.5 126t60.5 102t94.5 68.5t124.5 24.5q68 0 123.5 -24.5t95 -66.5t61 -99t21.5 -123 q0 -147 -77.5 -241.5t-231.5 -94.5zM553 1235q0 131 73.5 216t209.5 85q131 0 199.5 -84t68.5 -209q0 -61 -19.5 -114.5t-55.5 -93.5t-86 -63.5t-114 -23.5q-129 0 -202.5 79t-73.5 208z" />
<glyph unicode="9" horiz-adv-x="1714" d="M326 94q2 0 18 -9t35.5 -19.5t39 -20.5t25.5 -12q68 -27 139.5 -36t143.5 -9q66 0 128.5 16t119.5 45q14 0 19 -4t9.5 -10t8.5 -10.5t14 -4.5q14 0 33.5 8.5t39 19.5t37 19.5t29.5 8.5t24.5 -2t24.5 -2q29 0 54.5 11t48.5 28q68 49 108.5 105t65.5 120.5t39 134.5l29 145 q2 12 22.5 18.5t43 17t42 32t19.5 66.5q0 25 -6.5 38t-13.5 23t-15.5 19.5t-12.5 23.5l4 12q23 23 36.5 43.5t13.5 55.5q0 43 -19.5 66.5t-42 34.5t-42 16t-21.5 12l-35 161q-8 39 -39 98.5t-73 115t-91 94.5t-94 39q-12 0 -22.5 -6.5t-22.5 -6.5q-35 10 -67.5 34t-67.5 40 q-16 0 -22.5 -3t-9.5 -8t-6 -8.5t-11 -3.5h-9q-47 33 -104 45.5t-115 12.5q-59 0 -117.5 -12.5t-109.5 -45.5q-12 0 -17.5 5.5t-7.5 10.5t-5 10t-13 5q-20 0 -38.5 -9t-37 -21.5t-35 -21.5t-32.5 -9q-10 0 -16.5 6t-16.5 6q-23 0 -41.5 -9t-36.5 -20q-117 -72 -171 -177 t-54 -240q0 -111 45 -203t129 -164q23 -18 48 -34.5t56 -16.5q12 0 23.5 6t23.5 6h11q16 -10 41.5 -24.5t55.5 -27.5t57.5 -22.5t45.5 -9.5q16 0 20.5 15.5t22.5 15.5h13q39 -18 80.5 -24.5t84.5 -6.5q35 0 68 8t68 8q2 0 15 -7t30.5 -17t36 -19.5t32.5 -11.5l11 -14 q0 -98 -12.5 -186.5t-50.5 -155t-109.5 -105.5t-188.5 -39q-18 0 -59 5.5t-84 15.5t-77 25.5t-36 37.5q-8 0 -18.5 10.5t-18.5 22.5t-13 25.5t-5 21.5q0 18 11 27.5t25.5 25t26 40t11.5 73.5q0 39 -15.5 75t-43.5 62.5t-63.5 42t-74.5 15.5q-57 0 -100 -22.5t-73 -60.5 t-44.5 -87t-14.5 -101q0 -18 8.5 -73.5t21.5 -113.5t31.5 -104.5t39.5 -46.5q10 0 17 7.5t13.5 14.5t13.5 14t17 7q6 0 15 -4q6 -6 16 -17t22.5 -22.5t23.5 -18.5t22 -7q12 0 16 9t7 19.5t6.5 19.5t15.5 9zM1200 856q0 25 4 60.5t15.5 69.5t32 57.5t55.5 23.5q8 0 17 -2 t17 -4q41 -39 54.5 -88t13.5 -105q0 -25 -4 -59.5t-15.5 -66t-33 -53t-56.5 -21.5q-33 0 -52 20.5t-30.5 50t-14.5 61t-3 56.5zM498 1178q0 66 16 131t52 117.5t90.5 85t127.5 32.5q76 0 128.5 -37t85 -94t47 -125.5t14.5 -132.5q0 -47 -21.5 -58.5t-46 -17.5t-46 -22.5 t-21.5 -71.5q0 -35 12 -51t12 -35q0 -16 -21.5 -27.5t-50 -18.5t-56 -11t-40.5 -4q-74 0 -127 28.5t-88 75.5t-51 108.5t-16 127.5z" />
<glyph unicode="A" horiz-adv-x="2158" d="M1497 225q8 -18 26.5 -54t41 -73t47 -66.5t43.5 -35.5q12 0 22.5 19.5t16.5 45t9 50t3 34.5l10 9q27 -29 55.5 -54.5t59.5 -45t65.5 -32t75.5 -12.5q31 0 59.5 10.5t51 29t37 44t14.5 58.5q0 51 -33 91t-86 40q-27 0 -47 -12.5t-34.5 -27t-23.5 -26.5t-14 -12 q-14 0 -32.5 28.5t-38 70.5t-38 91t-32.5 92t-23 72l-10 29q-6 16 -13 28.5t-7 32.5q0 6 4 19q37 18 57.5 43.5t20.5 68.5q0 35 -12.5 55.5t-29 33t-30.5 18.5t-16 16q6 18 10 38t4 40q0 45 -20.5 63.5t-47.5 47.5q-23 0 -44 -2.5t-44 -2.5l-8 9q-14 27 -32.5 66.5t-34 84.5 t-25.5 88t-10 74v29q0 20 16 20h2q16 -20 39 -40.5t51 -20.5q53 0 94.5 32.5t41.5 90.5q0 70 -52.5 110.5t-117.5 40.5q-94 0 -147.5 -50t-86.5 -130l-12 -10h-4q-16 20 -32.5 51t-35 61.5t-40 56t-48.5 36.5q-16 0 -24.5 -20.5t-13.5 -47.5t-6 -53.5t-3 -36.5q0 -2 -2 -9.5 t-6 -7.5t-34 27t-74 58.5t-100 58t-112 26.5q-33 0 -66.5 -5t-66.5 -9q-27 -16 -52.5 -28.5t-45 -29t-31.5 -41t-12 -63.5q0 -57 37 -97t94 -36l29 2q27 2 43 21.5t25 41t14.5 39t11.5 17.5q12 0 22.5 -10t16.5 -23.5t9 -29t3 -25.5q0 -49 -22.5 -90t-50 -80t-50 -79 t-22.5 -87q0 -16 4 -28.5t4 -28.5q0 -6 -10.5 -17.5t-24.5 -25t-26.5 -27.5t-18.5 -27q0 -18 3 -54t-3 -52q-49 -35 -71.5 -98.5t-41 -139t-43 -156.5t-78.5 -149q-10 -14 -27.5 -31.5t-35.5 -17.5l-8 4q-23 35 -41.5 53.5t-63.5 18.5q-53 0 -87 -34t-34 -87 q0 -31 13.5 -57.5t35 -46t49 -30.5t58.5 -11q27 0 52.5 7t46 16t36 17.5t25.5 8.5q14 0 21.5 -9.5t14.5 -21.5t15 -21.5t23 -9.5q25 0 46 24.5t38 41.5q8 4 12 4t18.5 -9t36 -21.5t47 -21.5t54.5 -9q72 0 124 34.5t52 114.5q0 45 -34 83t-81 38q-29 0 -49.5 -13.5 t-35.5 -28.5t-24.5 -28.5t-11.5 -13.5h-2q-31 10 -46 53t-15 72v2q10 31 19 60.5t24 58.5q12 25 17 34t9 15t8.5 12t14.5 23q8 14 16 34.5t19.5 39t25 30.5t31.5 12q96 0 176 -49q66 41 135.5 45t143.5 4q16 0 27.5 -2t17.5 -20q12 -33 28.5 -73t31.5 -81t26.5 -82t11.5 -73 q0 -8 -1 -24.5t-4 -33t-9.5 -29t-18.5 -12.5q-6 0 -15 10.5t-22.5 21.5t-31 21.5t-39.5 10.5q-51 0 -88 -35t-37 -86q0 -6 2 -12t12 -6q-8 -8 -8 -19q0 -27 14.5 -48.5t36 -36.5t47 -23.5t47.5 -8.5q104 0 168 59.5t96 151.5l13 11v2zM1464 690q-39 0 -78.5 35t-71.5 83 t-52.5 100.5t-20.5 86.5q0 29 13.5 49.5t43.5 20.5q31 0 68 -34t70.5 -80t56.5 -93t23 -74v-55q0 -16 -19 -27.5t-33 -11.5zM893 844h-10q-20 -12 -42 -23.5t-46 -11.5q-10 0 -18.5 1t-8.5 13q0 14 4 27.5t4 26.5q0 16 -6 29.5t-6 29.5q0 12 11 22.5t24.5 22.5t26 26.5 t16.5 30.5q6 37 12 78t14.5 82t21.5 80t36 72l14 8q6 0 13.5 -8.5t13.5 -19.5t11 -21.5t7 -16.5l62 -168q4 -16 4 -24q0 -14 -12.5 -22.5t-28 -19.5t-27.5 -31.5t-12 -61.5q0 -29 14 -48.5t31.5 -34t32 -22.5t14.5 -14q0 -23 -13.5 -32t-33.5 -9q-53 0 -80 19.5t-43 19.5z " />
<glyph unicode="B" horiz-adv-x="1798" d="M414 162l8 -6q2 -12 10 -38t19.5 -51.5t27 -45t31.5 -19.5q20 0 35.5 28.5t27 66.5t17.5 75t6 51l10 8q6 0 15.5 -12t18.5 -27.5t18.5 -31t15.5 -21.5q61 -72 148 -104.5t179 -32.5q43 0 105.5 10.5t101.5 32.5q16 0 19.5 -14.5t19.5 -14.5h10q6 2 30 12.5t51.5 21.5 t49 20.5t25.5 9.5q16 0 27.5 -9.5t27.5 -9.5q59 0 114.5 41t98.5 100.5t69 128t26 122.5q0 154 -73 260t-210 170l-4 6q0 8 40 29.5t86 63.5t85 107.5t39 161.5q0 47 -21.5 108.5t-58.5 116t-86 92.5t-103 38h-22q-6 -8 -16 -9q-18 0 -41 10.5t-48.5 22.5t-54 22.5 t-57.5 10.5q-18 -10 -28.5 -15.5t-24.5 -5.5q-47 18 -96.5 26.5t-98.5 8.5q-119 0 -208 -43t-152 -147h-11q-2 16 -8 51t-18.5 69.5t-28.5 60.5t-41 26q-14 0 -28.5 -18.5t-25.5 -44t-19.5 -50.5t-10.5 -37l-8 -8q-10 2 -18.5 13.5t-10.5 21.5q-47 66 -123 94 q-18 -2 -36.5 3t-36.5 5q-66 0 -115 -34.5t-49 -106.5q0 -53 31.5 -89t87.5 -36q33 0 56 15.5t44 37.5q14 0 21.5 -26.5t10.5 -59.5t2 -64.5t-1 -39.5v-78q0 -41 -6 -76q-2 -12 -20.5 -16t-41 -12.5t-41 -22.5t-20.5 -45q-2 -10 -1 -21.5t1 -21.5q0 -27 14 -47.5t31 -38.5 v-14q-25 -25 -37 -46.5t-12 -58.5q0 -53 31.5 -78.5t78.5 -36.5l17 -18v-320q0 -6 -2.5 -19t-5.5 -26.5t-8 -24.5t-13 -11l-2 2q-18 8 -26.5 18t-17.5 18.5t-22.5 14.5t-44.5 6q-47 0 -83 -36t-36 -83q0 -72 50.5 -112.5t117.5 -40.5q78 0 124 34.5t89 96.5zM737 489v70 q0 37 4 72q2 14 22.5 19t45.5 16.5t45 36t25 77.5l12 13q76 0 149.5 -18.5t131 -57.5t92 -100.5t34.5 -149.5q0 -57 -21.5 -113.5t-59 -100.5t-90 -71.5t-113.5 -27.5q-84 0 -138.5 24.5t-85 68.5t-42 105t-11.5 137zM418 881v53q0 18 7 42.5t19.5 46t31 37t40.5 15.5 q31 0 51.5 -23.5t30.5 -56t14 -68.5t4 -59t-5 -54.5t-17 -61t-32.5 -51t-49.5 -21.5q-33 0 -51.5 22.5t-27.5 54t-12 66.5t-3 58zM760 1094l-10 14v125q0 68 10 121t36.5 92t75 59.5t123.5 20.5q127 0 199 -74t72 -201q0 -72 -27 -128t-72 -95t-105.5 -59.5t-127.5 -20.5 q-29 0 -40 10.5t-17.5 25.5t-9.5 33.5t-13 35t-31.5 28t-62.5 13.5z" />
<glyph unicode="C" horiz-adv-x="1662" d="M725 55q12 -18 57 -32.5t98.5 -23.5t103.5 -13t73 -4q49 0 97 15t88 32.5t65.5 33t31.5 15.5q10 0 14.5 -10.5t6.5 -22.5t6 -22.5t14 -10.5q14 0 24.5 10.5t20 22.5t19.5 22.5t24 10.5h7q14 -10 27.5 -22.5t31.5 -12.5q16 0 34.5 37t34 85t25.5 92t10 60q0 63 -9 127 t-34.5 115t-73.5 84t-128 33q-82 0 -136.5 -54.5t-54.5 -136.5q0 -39 15.5 -66.5t33 -48t32.5 -33.5t15 -26q0 -43 -28.5 -76.5t-70.5 -56t-89 -34t-82 -11.5q-109 0 -180.5 39t-114.5 103.5t-61.5 150.5t-18.5 180q0 33 21.5 43t46 19.5t46 29t21.5 70.5q0 35 -17 57.5 t-34 48.5q2 12 10.5 20.5t17.5 20t16 27.5t7 43q0 35 -15 63.5t-50 43.5q-8 -2 -13 1t-14 3l-41 -2q2 90 24.5 173t68 145.5t117 100t171.5 37.5q29 0 72 -10t83 -29.5t68.5 -48t28.5 -65.5q0 -14 -12 -23.5t-26.5 -25t-27 -41t-12.5 -70.5q0 -84 55.5 -132t135.5 -48 q61 0 104 27.5t68.5 71.5t38 97.5t12.5 106.5q0 14 -5 58t-14.5 89t-24.5 81t-34 36q-4 0 -25.5 -12.5t-27.5 -16.5q-16 0 -25.5 9.5t-17.5 21.5t-15.5 21.5t-21.5 9.5q-12 0 -19.5 -9.5t-11.5 -21.5t-10 -21.5t-18 -9.5q-4 0 -27.5 13.5t-52.5 29t-52.5 29.5t-25.5 16 l-8 -4q-41 0 -82 10.5t-82 10.5q-72 0 -141.5 -18.5t-137.5 -43.5q-8 0 -10 5.5t-4 10.5t-5 10t-11 5q-12 0 -37 -8t-50.5 -20.5t-48 -24.5t-32.5 -21q-16 0 -26.5 8.5t-26.5 8.5q-49 0 -94.5 -33t-84.5 -79t-66.5 -96t-41.5 -87q-4 -12 -11.5 -44t-15.5 -65.5t-17 -63.5 t-20 -36q-59 -6 -86.5 -31.5t-27.5 -85.5q0 -18 7 -34.5t16 -29t17.5 -21.5t8.5 -15q0 -12 -8.5 -20.5t-18.5 -20.5t-18 -30.5t-8 -51.5q0 -41 18 -61.5t42 -30.5t43 -15.5t22 -15.5q6 -25 7 -53.5t5 -52.5q18 -113 63 -210.5t131 -174.5q23 -18 51.5 -40t59.5 -22 q12 0 22.5 8.5t22.5 8.5q16 -8 39.5 -22.5t49.5 -29t51.5 -24.5t43.5 -10q14 0 15.5 16t13.5 16zM299 825v47q0 27 4 63t16.5 67.5t35 53t59.5 21.5q27 0 46 -19.5t31.5 -47t18.5 -58t6 -51.5q0 -27 -4 -64.5t-16.5 -72.5t-34 -59.5t-58.5 -24.5q-25 0 -43 15.5t-32.5 37 t-21.5 47t-7 45.5z" />
<glyph unicode="D" horiz-adv-x="2045" d="M436 152q2 -12 11.5 -39t21.5 -52.5t26.5 -45t30.5 -19.5q20 0 37 27.5t29 63.5t19 71t7 51l9 4q2 0 13 -14.5t25.5 -31.5t27 -33.5t18.5 -22.5q76 -66 149.5 -90.5t173.5 -24.5q43 0 85 11t80 24.5t68.5 25t51.5 11.5q8 0 11 -14.5t7 -18.5l13 -2q41 0 84 25.5t77 43.5 q16 0 29.5 -4t28.5 -4q29 0 61.5 18.5t52.5 37.5q68 59 107 113t60.5 111.5t30.5 123t17 147.5l11 19q45 8 79.5 34.5t34.5 75.5q0 25 -8 44.5t-18 34.5t-18.5 24.5t-8.5 13.5q0 8 7.5 15t16.5 17.5t17 28t8 45.5q0 55 -34.5 81t-83.5 36q-14 10 -15 27q0 18 -4 35 q-12 68 -32.5 130t-55.5 121q-6 10 -14 19.5t-13 21.5q-18 20 -42.5 45t-52 46.5t-57.5 36t-61 14.5q-10 0 -20 -6.5t-21 -6.5q-8 0 -28.5 12.5t-47 27t-54 26.5t-52.5 12q-10 0 -13 -5t-4 -12t-4 -12.5t-12 -5.5l-75 31l-26 5t-59.5 10.5t-66.5 10.5t-47 5q-23 0 -46.5 -4 t-45.5 -4q-49 0 -95 -18.5t-87 -49.5t-74 -68.5t-58 -76.5l-8 -4q-6 0 -10 13t-7 30.5t-4 35t-3 23.5q-4 10 -12.5 29.5t-18.5 38t-23.5 33t-25.5 14.5q-20 0 -33.5 -24.5t-24 -55.5t-18.5 -55.5t-14 -24.5q-16 6 -30.5 28.5t-39 47t-61.5 43t-95 18.5q-31 0 -61.5 -10 t-54 -28.5t-39 -45t-15.5 -59.5q0 -59 32 -94t91 -35q35 0 56.5 14t46.5 37q12 0 19 -9t10.5 -23.5t4.5 -29t1 -22.5v-252q-20 -25 -52 -24l-6 2q-29 -18 -49 -44t-20 -63q0 -31 17 -57.5t40 -46.5v-11q-31 -29 -42 -54t-11 -66q0 -33 19.5 -51.5t43 -30t43 -16.5t21.5 -11 q2 -8 3 -47t2 -85t1 -89v-53q0 -8 1 -30t-1 -44.5t-9.5 -39.5t-21.5 -17q-10 0 -15 8t-14.5 17t-27 17.5t-47.5 8.5q-53 0 -88 -35t-35 -88q0 -35 14 -62.5t39 -47t55.5 -30t63.5 -10.5q16 0 31.5 3t31.5 1q59 25 90 56.5t68 85.5zM743 514q0 10 -1 31.5t0 44t5.5 41 t12.5 24.5q55 6 84.5 32t29.5 85q0 31 -5 44t-13 21.5t-17.5 15.5t-17.5 24v2v2q23 23 39.5 47t16.5 57q0 94 -93 117l-8 -4q-10 0 -20.5 7t-10.5 19v154q0 131 81 202.5t208 71.5q78 0 144.5 -35.5t115.5 -93t77 -130t28 -148.5q0 -29 -19.5 -37t-42 -17.5t-42 -29 t-19.5 -68.5q0 -31 13.5 -56.5t35.5 -47.5q0 -14 -8 -21.5t-17.5 -16.5t-16.5 -26.5t-7 -52.5q0 -49 20.5 -69.5t44 -29.5t44 -16.5t20.5 -29.5q0 -86 -23.5 -171t-70.5 -154t-118 -112t-167 -43q-84 0 -138 31t-87 82t-45.5 116.5t-12.5 137.5zM891 188h-2v-2v-2h2v0 q2 0 2 2t-2 2v0zM459 709q2 10 -6.5 21t-12.5 22q-14 33 -18 63.5t-4 65.5q0 20 4 54t14 64.5t29.5 53t48.5 22.5q31 0 50.5 -22.5t31.5 -53t16 -64.5t4 -56q0 -25 -4 -60t-16 -65.5t-32.5 -53t-53.5 -22.5q-16 0 -28.5 10.5t-22.5 20.5zM1542 891q0 25 4 58.5t16.5 63 t33 50t55.5 20.5q29 0 49 -20.5t32.5 -49t18.5 -59t6 -53.5q0 -29 -4 -64.5t-15.5 -68.5t-34 -55.5t-58.5 -22.5q-33 0 -53.5 22.5t-31 54.5t-14.5 65.5t-4 58.5z" />
<glyph unicode="E" horiz-adv-x="1675" d="M416 145q4 0 9 -10t9 -22.5t8 -24.5t7 -16q20 -43 53 -76q29 0 46 29.5t28.5 68.5t16.5 78t7 59l10 9h2q10 -6 24.5 -30t20.5 -34q25 -35 61 -66.5t79 -56t89 -39t89 -14.5q51 0 92 2t79 8t77 19.5t86 36.5q10 4 22 13t25 9q10 0 15 -13.5t9 -30.5t9.5 -30.5t15.5 -13.5 q14 0 25.5 11.5t20.5 25.5t19.5 25.5t22.5 11.5l8 -2l41 -37l17 -4l10 4q47 70 65.5 158t18.5 172q0 104 -41 184t-146 110l-4 5l-26 2q-86 6 -148.5 -42.5t-62.5 -142.5q0 -47 13 -73.5t29.5 -43t30 -27.5t13.5 -26q0 -41 -28 -71.5t-67.5 -51t-85 -31t-77.5 -10.5h-37 q-92 14 -147.5 50t-86 89.5t-40 120t-9.5 142.5v45q0 25 4 47q2 6 15.5 11t32 11.5t38 16.5t29.5 29q10 16 13 36.5t5 38.5l17 13h67l9 -15q0 -35 2 -67.5t12 -57t34.5 -40t71.5 -15.5q66 0 105 43t39 107q0 27 -8.5 47t-17.5 35.5t-17 27.5t-8 21q0 8 8 19t17 26.5t17.5 35 t8.5 44.5q0 41 -25.5 75.5t-58.5 57.5q-16 4 -32.5 7t-33.5 3q-25 0 -47 -9t-45 -22q-8 -14 -19.5 -33.5t-11.5 -35.5q0 -20 4.5 -41t4.5 -41q0 -12 -10.5 -14.5t-18.5 -2.5h-51l-17 13q0 51 -20.5 76.5t-46 38t-47 18.5t-23.5 22q-2 18 -1 39t1 39q0 168 72.5 254t251.5 86 q37 0 77.5 -6t76.5 -22.5t59.5 -45t23.5 -75.5q0 -2 -9 -11.5t-21.5 -25t-21.5 -38t-9 -52.5q0 -41 15.5 -64.5t27.5 -56.5q70 -57 155 -58q51 0 90 26t66 65.5t41 87t14 92.5q0 16 -6 66t-16 104.5t-26.5 96.5t-35.5 42q-16 0 -31.5 -15.5t-25.5 -27.5q-18 0 -28.5 10 t-17.5 22.5t-15.5 23t-22.5 10.5q-16 0 -22.5 -12.5t-10.5 -28t-10 -27.5t-22 -12h-9q-66 33 -127 54t-139 21h-67q-31 0 -62 -3t-63.5 -11t-71.5 -22q-47 -18 -73.5 -40t-45 -45.5t-37 -48t-45.5 -47.5h-6l-14 13q0 16 -7.5 50t-18.5 67.5t-28.5 58t-37.5 24.5t-35 -24.5 t-24 -53t-16 -53t-15 -24.5q-23 23 -40.5 48t-39 46.5t-53 36t-83.5 14.5q-31 0 -61.5 -9t-55 -27.5t-39 -45t-14.5 -61.5q0 -16 6.5 -38t16.5 -41.5t26.5 -32.5t34.5 -13h68q12 0 21.5 8t17.5 19.5t16.5 19.5t16.5 8l6 -2q16 -29 20 -60.5t4 -62.5q0 -20 1 -57t-1 -74 t-6 -67.5t-12 -36.5q-51 -4 -83 -33t-32 -82q0 -31 16.5 -56.5t39.5 -45.5q0 -12 -8.5 -22.5t-17.5 -22t-17.5 -25.5t-8.5 -37q0 -43 17.5 -65.5t40 -35t44 -17.5t29.5 -15q-2 -47 1.5 -92t3.5 -92q0 -12 1 -50t-1 -78t-9.5 -71t-21.5 -31q-10 0 -20.5 14.5t-14.5 20.5 q-16 10 -36.5 17.5t-41.5 7.5q-49 0 -79.5 -37t-30.5 -84q0 -70 49 -111t114 -41q61 0 99.5 21.5t63 46t39 46t24.5 21.5zM401 883q0 25 4.5 56.5t15.5 61t31.5 49t53.5 19.5q27 0 46 -22.5t30.5 -54t16.5 -64.5t5 -54q0 -23 -4 -56.5t-15.5 -65t-30.5 -55t-48 -23.5 q-33 0 -53.5 23.5t-31.5 56t-15.5 68.5t-4.5 61z" />
<glyph unicode="F" horiz-adv-x="1656" d="M416 152h2q8 -6 16 -31t18.5 -52.5t23.5 -49t34 -21.5q23 0 37 23.5t24.5 53t17.5 53.5t15 24h4q31 -29 50.5 -54.5t40 -44t50 -30t82.5 -11.5q66 0 116 38t50 110q0 55 -35.5 94t-93.5 39q-25 0 -53.5 -18.5t-42.5 -36.5q-12 0 -19.5 22.5t-9.5 52t-2 56.5v32v113 q0 57 4 113q2 23 21.5 27.5t44.5 14t45.5 33t22.5 82.5l12 11h63l13 -13q0 -16 -4.5 -32.5t-4.5 -32.5q0 -49 37 -85t86 -36q59 0 104.5 40t45.5 101q0 25 -6 42.5t-14.5 32.5t-17.5 30.5t-13 34.5q2 8 10 18t17.5 24.5t16.5 34t7 47.5q0 66 -47 108t-113 42 q-43 0 -80 -30.5t-37 -76.5q0 -16 4.5 -34.5t4.5 -34.5t-9.5 -18.5t-23.5 -2.5q-35 0 -45.5 17.5t-16.5 41t-18 48t-51 37.5q-16 6 -35 9t-19 28v53q0 88 9.5 151.5t40 105.5t88 62.5t153.5 20.5q33 0 71 -3t74 -14.5t63.5 -32t43.5 -57.5q0 -18 -11 -30.5t-25.5 -26.5 t-26 -34.5t-11.5 -55.5q0 -86 49.5 -139.5t137.5 -53.5q68 0 113 28t71.5 73t37.5 101t11 114q0 20 -7 65t-19.5 89t-27.5 78t-32 34q-12 0 -19 -7t-13.5 -14.5t-13.5 -14.5t-17 -7q-8 0 -16.5 10t-18.5 23.5t-21.5 24t-23.5 10.5q-6 0 -14 -5l-35 -71q-8 -4 -13 -4h-6 q-72 39 -150.5 61.5t-162.5 22.5q-35 0 -73 -7.5t-72 -11.5q-53 -6 -87 -22.5t-62 -40t-53.5 -51t-60.5 -58.5h-2l-14 19l-14 73q-20 29 -26.5 54.5t-39.5 48.5q-27 0 -43 -23.5t-26.5 -53.5t-17.5 -53.5t-15 -23.5q-4 0 -13.5 10.5t-19.5 23.5t-20.5 26.5t-16.5 17.5 q-35 27 -75 42t-85 15q-63 0 -113 -40t-50 -107q0 -55 35.5 -92t91.5 -37l22 2q20 10 39.5 21.5t36.5 27.5q14 0 21.5 -19.5t9.5 -44t1 -48t-1 -33.5q0 -45 3 -96.5t-8 -94.5q-4 -14 -23.5 -18t-43 -12.5t-41.5 -27t-18 -61.5q0 -33 14 -60.5t37 -49.5q0 -18 -8.5 -29.5 t-17.5 -22t-17 -25.5t-8 -40q0 -43 20 -64.5t45 -34t45.5 -20.5t20.5 -24v-281q0 -6 -1 -23.5t-4.5 -37t-8.5 -33.5t-13 -14q-4 0 -12 4q-23 23 -39.5 37t-50.5 12q-10 -4 -33 -6t-44.5 -13.5t-38 -34t-16.5 -65.5q0 -70 51.5 -113t116.5 -43q72 0 127.5 35t90.5 96z M418 829v50q0 53 13 108t63 86l18 2q29 0 47.5 -20.5t29.5 -50t15 -61.5t4 -52q0 -23 -3 -58.5t-13 -69.5t-29.5 -58.5t-52.5 -24.5q-23 0 -40 16.5t-28.5 40t-17.5 49t-6 43.5z" />
<glyph unicode="G" d="M743 51q8 0 35 -11t64 -23.5t81 -23.5t91 -11q43 0 91 11t88 25.5t67 25.5l28 11q14 0 16.5 -14t12.5 -14h26l127 65q10 0 21.5 -4t21.5 -4q25 0 48 16q55 39 90 93.5t53 116t24.5 128t6.5 127.5q0 25 -2 47.5t8 44.5q25 0 44 -10t42 -10q53 0 90 36t37 89 q0 72 -49.5 111.5t-116.5 39.5q-72 0 -111 -28.5t-86 -75.5q-10 0 -18 19.5t-18.5 44t-23.5 44t-36 19.5h-10q-20 -16 -30.5 -33.5t-17.5 -33t-13.5 -30t-16.5 -22.5h-2q-29 14 -44 31.5t-31.5 33t-41 26t-71.5 10.5q-74 0 -122 -40t-48 -118q0 -43 30.5 -85t77.5 -42 q25 0 48.5 7t45.5 17h6l13 -8v-233q0 -119 -66.5 -199t-189.5 -80q-94 0 -161 42t-109 109.5t-61 150.5t-19 165q0 35 20 44t44 16.5t44.5 26t20.5 73.5q0 27 -8.5 44t-17.5 29.5t-16.5 20.5t-7.5 16v5q23 23 38.5 48t15.5 58q0 53 -38 81t-85 34l-10 16q0 92 25.5 171 t74.5 137.5t122.5 92t170.5 33.5q27 0 74 -8t91 -25.5t76.5 -43t32.5 -62.5l-4 -10q-35 -35 -54.5 -63.5t-19.5 -80.5q0 -37 16.5 -70.5t42 -58t60.5 -39t72 -14.5q61 0 104 25.5t71 65.5t40 91.5t12 104.5q0 16 -5 61t-15.5 92.5t-25.5 84t-36 36.5q-16 0 -28.5 -13 t-28.5 -13q-12 0 -19.5 9t-13.5 21.5t-13 21.5t-22 9q-12 0 -20 -9t-14.5 -19.5t-14.5 -19.5t-20 -9q-4 0 -17.5 6t-29 13t-28.5 14.5t-20 11.5q-59 29 -120.5 38t-126.5 9q-47 0 -93.5 -5t-91.5 -15q-27 -6 -65.5 -26t-61.5 -20h-2l-18 27h-27q-10 0 -30.5 -8t-43 -20.5 t-43 -24.5t-28.5 -19l-12 -2q-14 0 -24.5 8.5t-25.5 8.5q-35 0 -73.5 -27t-74.5 -64.5t-64.5 -78.5t-43.5 -70q-31 -61 -47 -122.5t-32 -129.5v-4q-10 -12 -31 -17t-43.5 -15.5t-39 -30t-16.5 -60.5t17.5 -61.5t36.5 -50.5v-2v-3q-23 -23 -36 -47t-13 -59q0 -51 17 -71.5 t40.5 -30t44 -15.5t27.5 -28q10 -31 10 -66t8 -68q27 -115 83 -213t155 -165q16 -10 35.5 -20.5t39.5 -10.5q14 0 23.5 10t23.5 10q18 0 35 -15t33 -24q27 -12 53.5 -23t53.5 -22q20 0 23 17.5t13 17.5zM299 848q0 27 3 65.5t14.5 73.5t33 60.5t58.5 25.5q31 0 50 -23.5 t30.5 -56t15.5 -67.5t4 -58q0 -59 -14.5 -108t-65.5 -84h-22q-29 0 -49.5 18.5t-33 44t-18.5 55t-6 54.5z" />
<glyph unicode="H" horiz-adv-x="2125" d="M1528 143q2 -12 10 -37.5t18.5 -52t24.5 -46t31 -19.5l22 12l31 41q4 6 9 21.5t10.5 33t11.5 31.5t10 14q25 -29 47.5 -53.5t47 -42.5t55 -28.5t71.5 -10.5q72 0 122 35t50 113q0 53 -33.5 91t-89.5 38q-35 0 -59.5 -14.5t-46.5 -37.5q-6 2 -11.5 10.5t-7.5 18.5t-3 20.5 t-1 16.5v305q0 31 21.5 40t46 17.5t46 28t21.5 72.5q0 23 -6 37t-15 25.5t-17.5 21.5t-12.5 24q2 12 9.5 20.5t15.5 19t15 25.5t7 40q0 45 -20.5 68.5t-45 36t-45 19.5t-20.5 23v252q0 6 1 16.5t4 21.5t7.5 19.5t12.5 8.5h6q20 -23 45 -38.5t55 -15.5q59 0 92 41t33 97 q0 37 -16 64.5t-43 44t-59.5 24.5t-65.5 8q-72 0 -121 -43t-94 -92q-4 0 -11 25.5t-17.5 54t-26 53.5t-35.5 25h-6q-33 -29 -50.5 -69t-25.5 -81l-10 -4q-29 31 -51.5 55.5t-48 42t-56.5 25.5t-76 8q-31 0 -59.5 -10.5t-51 -28.5t-36 -44t-13.5 -58q0 -53 32 -94.5t89 -41.5 q27 0 46.5 8.5t31.5 19.5t20.5 19.5t14.5 8.5q8 0 12 -13.5t6 -31t3 -33.5t1 -23q0 -59 -3 -115.5t-1 -115.5q-4 -8 -16 -13t-29.5 -11.5t-35 -14.5t-29.5 -22q-10 -12 -13.5 -30t-6.5 -33t-12 -26.5t-30 -11.5q-35 0 -59.5 9.5t-40.5 19.5t-27.5 19.5t-19.5 9.5h-8 q-27 -35 -68 -46.5t-82 -11.5q-10 0 -22 4q-6 6 -7.5 21.5t-6.5 34t-15 38t-33 33.5q-8 6 -21.5 8.5t-26.5 5.5t-22.5 10t-9.5 21v244q0 18 4.5 40t16.5 38h2q12 -6 20.5 -15.5t18.5 -18.5t26.5 -16t44.5 -7q53 0 86 36.5t33 90.5q0 84 -52 117.5t-128 33.5q-41 0 -69.5 -10 t-52 -28.5t-45 -42t-46.5 -50.5q-8 12 -16.5 37.5t-19.5 51.5t-26.5 45.5t-33.5 19.5q-16 0 -29.5 -18.5t-24 -43t-18.5 -48.5t-10 -36l-6 -8h-2q-33 29 -52.5 53.5t-41 42t-50 26.5t-80.5 9q-63 0 -116.5 -38t-53.5 -107q0 -53 35 -92t88 -39q37 0 60.5 14t46.5 41 q8 0 14 -10.5t8 -23.5t3 -27.5t1 -20.5v-223q0 -33 -20 -44.5t-45 -20.5t-45.5 -29.5t-20.5 -71.5q0 -18 8.5 -34.5t17.5 -30t17.5 -23.5t8.5 -19v-4q-25 -20 -38.5 -41.5t-13.5 -54.5q0 -47 19.5 -70.5t43 -35t44 -16.5t24.5 -13q0 -53 2.5 -107.5t2.5 -107.5v-39 q0 -29 -2.5 -60.5t-7.5 -57t-17 -25.5h-4q-23 23 -48.5 40t-58.5 17q-57 0 -87.5 -39t-30.5 -92q0 -68 50 -110t115 -42q53 0 101.5 21.5t83.5 62.5q6 8 19.5 30.5t23.5 22.5q2 0 5 -7t3 -9q4 -14 11 -36.5t17.5 -45t24 -39t31.5 -16.5q20 0 35.5 23.5t26 51t17.5 52 t15 26.5l8 -4q37 -59 89.5 -96t123.5 -37q31 0 62 9.5t55.5 26.5t39.5 44t15 62q0 57 -35.5 97t-95.5 40q-31 0 -55.5 -17.5t-42.5 -40.5q-12 0 -18.5 18.5t-8.5 42t-1 46t1 31.5q0 68 1 134t3 134l9 6q37 6 68.5 20.5t45.5 53.5q2 6 2 16q0 12 2 24.5t6.5 21.5t12.5 9 q35 0 65.5 -8t53 -18t36 -18.5t17.5 -8.5h6q59 53 139 53h25l16 -10q4 -35 17.5 -70.5t50.5 -52.5q4 -2 15 -4t22.5 -5t19.5 -7t8 -10q0 -63 2 -126t2 -126q0 -37 -3 -70t-13 -67l-10 -9h-4q-25 27 -49.5 42.5t-63.5 15.5q-47 0 -82 -39t-35 -86q0 -39 15.5 -68.5t41 -50 t58.5 -32t70 -11.5q49 0 85 22.5t62.5 49t43 49t22.5 22.5zM414 856q0 25 3 59.5t14 67.5t30.5 56.5t52.5 23.5q27 0 44 -21.5t27.5 -51t14.5 -61.5t4 -50q0 -23 -4 -58t-15.5 -67.5t-29.5 -56t-49 -23.5q-27 0 -44.5 20.5t-28.5 50t-15 60.5t-4 51zM1520 870q0 20 3 54 t13 65t28.5 53.5t49.5 22.5t49 -20.5t28.5 -50t14.5 -61.5t4 -54q0 -18 -4 -53t-13.5 -69t-26.5 -58.5t-44 -24.5q-35 0 -55.5 21.5t-30.5 52t-13 64t-3 58.5z" />
<glyph unicode="I" horiz-adv-x="1011" d="M410 143l12 -10q2 -8 9 -31.5t18.5 -48t24.5 -43t28 -18.5q23 0 38 24.5t24 54t16.5 54.5t15.5 25q4 0 12 -10.5t17.5 -25t18.5 -26.5t13 -16q39 -33 75 -49.5t87 -16.5q63 0 116.5 37t53.5 107q0 49 -34.5 91t-86.5 42q-27 0 -44 -8.5t-29.5 -17.5t-21.5 -17.5t-17 -8.5 l-15 17q-2 14 -5 30.5t-3 30.5v258q0 12 2 40t15 34q20 10 40.5 17.5t37 18.5t26.5 28.5t10 48.5q0 33 -15 59.5t-36 48.5v10q23 23 37 45.5t14 55.5q0 51 -33.5 79.5t-80.5 37.5q-10 8 -14.5 25.5t-4.5 35.5t1 36.5t1 29.5v45t1 71.5t7.5 66.5t18.5 30h4q23 -23 46.5 -34.5 t55.5 -11.5q53 0 88 34t35 87q0 31 -12 58.5t-31.5 49t-46.5 34t-57 12.5q-72 0 -114 -19.5t-67.5 -44t-39 -45t-25.5 -22.5l-4 2q-2 12 -10.5 36.5t-20.5 49t-26.5 43t-28.5 18.5q-20 0 -35.5 -23.5t-26 -51t-18.5 -51t-14 -23.5q-23 27 -45.5 51.5t-47 42.5t-54 29.5 t-68.5 11.5q-66 0 -119 -38t-53 -109q0 -33 15 -59.5t38 -49.5q16 -6 34.5 -11t34.5 -5q31 0 46.5 8t24.5 17t15.5 17.5t18.5 8.5q10 0 15 -19.5t7 -44t2 -47.5v-26q0 -12 1.5 -46t-1 -71t-6.5 -66.5t-14 -31.5q-23 -6 -42 -12.5t-34.5 -16.5t-25 -27.5t-9.5 -46.5 q0 -23 5.5 -36t13.5 -25.5t17 -24.5t16 -29q0 -10 -8.5 -19t-18.5 -21.5t-18.5 -31t-8.5 -46.5q0 -43 20.5 -61.5t44 -29t44 -20.5t20.5 -37v-291q0 -4 -1 -18t-4 -28.5t-8 -26t-11 -11.5h-6q-20 23 -43 39.5t-54 16.5q-53 0 -89 -35t-36 -88q0 -43 24 -79t60 -58 q12 -8 26.5 -9.5t27.5 -7.5q61 0 113.5 14.5t93.5 63.5q10 14 19.5 29.5t25.5 25.5zM410 870q0 23 4 55.5t14 62.5t28.5 51.5t49.5 21.5q20 0 36.5 -14.5t29 -36t18.5 -44t6 -40.5v-111q0 -18 -7 -42.5t-19.5 -48.5t-30 -39t-39.5 -15q-29 0 -47.5 23.5t-27.5 56t-12 66.5 t-3 54z" />
<glyph unicode="J" horiz-adv-x="1587" d="M311 102q4 0 29 -15t63.5 -34.5t90 -35t108.5 -15.5q35 0 73 9t71.5 19.5t57 19.5t30.5 9q6 0 8 -6t3 -13t5 -13.5t16 -6.5q33 0 62.5 15.5t56.5 32.5q16 0 27.5 -6.5t25.5 -6.5q63 0 110.5 52.5t78 126t45 151.5t14.5 127v27q0 20 1 40.5t4 37t12 22.5q49 8 83.5 37 t34.5 82q0 20 -7 36.5t-16 30t-16.5 23.5t-7.5 16v4q23 23 38 46.5t15 54.5q0 49 -20.5 70.5t-44 31.5t-44 19.5t-20.5 35.5q0 72 -1 150t16 147q2 6 5 13.5t11 7.5t14.5 -9.5t16.5 -21.5t29.5 -21.5t54.5 -9.5q51 0 86 38t35 87q0 39 -16.5 68t-42 48t-59.5 28.5t-69 9.5 q-66 0 -118 -38t-89 -89l-6 -2l-4 2q-10 35 -23.5 68.5t-33.5 66.5l-27 19q-16 0 -31.5 -18.5t-27.5 -44.5t-20.5 -51.5t-12.5 -39.5l-8 4q-25 29 -46.5 54.5t-47 45t-56 30.5t-71.5 11q-31 0 -60.5 -11t-53.5 -30.5t-39 -46t-15 -59.5q0 -53 35.5 -94t91.5 -41 q33 0 56.5 17.5t45.5 39.5l4 2q8 -2 12.5 -14t5.5 -27.5t1 -30.5v-20q0 -16 1 -58t-1 -87t-7.5 -81t-19.5 -38q-55 -10 -85 -31.5t-30 -85.5q0 -20 8.5 -38.5t19.5 -33t20 -22.5l8 -8q0 -2 -2 -4.5t-2 -4.5q-18 -20 -38 -41.5t-20 -50.5q0 -76 64 -108q2 -2 13 -6t23.5 -9.5 t22.5 -10.5t10 -7v-29q0 -66 -2 -143.5t-21.5 -145t-66.5 -113.5t-139 -46q-37 0 -78 12t-76.5 35.5t-58.5 57.5t-23 77q0 12 16.5 23.5t35 29t35 46t16.5 75.5q0 41 -17.5 76t-46 61.5t-65.5 41t-76 14.5q-63 0 -108.5 -30t-74 -76t-42 -102.5t-13.5 -109.5 q0 -18 8.5 -67.5t23 -99.5t34.5 -90t43 -40q16 0 25.5 14.5t25.5 14.5h4q10 -12 35 -39t41 -31q10 0 16.5 7.5t10.5 16.5t9 16t15 7zM969 866q0 25 3 58.5t13 64.5t29.5 52.5t52.5 21.5q29 0 47.5 -22.5t27.5 -53.5t12 -63.5t3 -53.5q0 -23 -5 -55.5t-17.5 -62t-32 -51 t-47.5 -21.5q-29 0 -46.5 21.5t-26.5 51t-11 61.5t-2 52z" />
<glyph unicode="K" horiz-adv-x="2058" d="M428 143q2 -12 10 -37.5t20.5 -51t27 -45t30.5 -19.5t30.5 19.5t25 45t17.5 52t11 38.5l8 9q31 -25 48.5 -50.5t38 -45t52 -33t89.5 -13.5q63 0 114 38t51 106q0 57 -24.5 83.5t-71.5 51.5l-2 4q-27 -2 -42 -3t-27.5 -6t-24.5 -16.5t-33 -31.5l-10 -5l-12 23 q-2 16 -5.5 34.5t-3.5 35.5v297q0 18 12.5 25t29 10.5t35 8.5t30.5 21q16 20 21.5 42t9.5 46l8 15l16 2q57 0 103.5 -34t83 -86t66.5 -119t54.5 -132.5t47 -123.5t45.5 -95q14 -23 38.5 -51.5t53 -53t60.5 -42t61 -17.5q14 0 26.5 6t26.5 6h8q6 -4 17.5 -10t23.5 -12 t24.5 -11.5t18.5 -5.5q10 0 14 8.5t6.5 17.5t5.5 17t13 8q37 -18 75 -34.5t81 -16.5q31 0 62.5 10.5t57 29t41 45t15.5 61.5q0 53 -38 95t-91 42q-29 0 -47.5 -12.5t-33 -25.5t-23.5 -25.5t-15 -12.5q-10 0 -25.5 28.5t-33 71.5t-35 95.5t-31.5 99.5t-24.5 82t-14.5 47 q-18 53 -62 98t-87 80q-6 4 -21.5 14.5t-13.5 20.5q18 23 42.5 39t52.5 34.5t57.5 44t58.5 66.5q57 82 86.5 176.5t64.5 186.5l21 18h4q20 -10 37.5 -16t40.5 -6q51 0 87 35.5t36 87.5q0 72 -54.5 113.5t-122.5 41.5q-27 0 -51 -12t-46.5 -29.5t-44 -37t-40.5 -35.5h-2l-6 4 q-10 35 -26.5 68.5t-45.5 56.5q-25 0 -42 -18.5t-29.5 -44t-24.5 -52.5t-29 -41q-16 20 -33.5 46t-39 46.5t-47 34.5t-56.5 14l-8 -4l-4 4q-61 0 -110.5 -44t-49.5 -107q0 -53 35 -90t88 -37q14 0 25.5 3t20.5 2t14.5 -8t5.5 -26q0 -117 -67 -217t-167 -156h-8 q-41 -16 -77 -27.5t-81 -11.5q-20 0 -22 13q-10 33 -17.5 55.5t-19.5 37.5t-33.5 25.5t-58.5 18.5l-9 16q-4 39 -4 76v76v37t3.5 58.5t8.5 53t15 23.5q8 0 17.5 -8t22.5 -18.5t30.5 -18.5t40.5 -8q47 0 82.5 37.5t35.5 85.5q0 68 -47 109.5t-112 41.5q-10 0 -28.5 -3t-38 -6 t-35 -6t-17.5 -3l-31 -21h-4l-76 -86l-4 -2l-10 12q-4 12 -12.5 35t-20.5 45.5t-26.5 40t-28.5 17.5q-16 0 -29.5 -16.5t-25 -40t-17.5 -46t-8 -35.5q-4 -4 -7 -6t-7 -6q-12 4 -26.5 25.5t-39 46t-64.5 44t-102 19.5q-29 0 -57.5 -11t-51 -30.5t-37 -45t-14.5 -56.5 q0 -55 35 -96t92 -41q33 0 49.5 8t25.5 19.5t15.5 19.5t18.5 8q10 -10 15 -47t7.5 -80t2.5 -84v-59q0 -61 -19.5 -75.5t-44 -21t-44 -21.5t-19.5 -75q0 -23 6 -37t14 -25.5t17.5 -22.5t15.5 -30q-16 -29 -36.5 -46t-20.5 -56q0 -55 34.5 -81.5t83.5 -37.5l13 -14v-340 q0 -14 -5.5 -33.5t-17.5 -27.5h-4q-20 23 -46 40t-58 17q-53 0 -87 -36t-34 -89q0 -76 51 -117t123 -41q57 0 93 19.5t59.5 44t38 46t26.5 28.5zM422 874q0 20 3 55.5t13.5 67t28.5 55t47 23.5t47.5 -24.5t28.5 -57t14 -67.5t4 -56q0 -23 -4 -55.5t-15 -63t-30.5 -53 t-50.5 -22.5q-29 0 -45.5 23.5t-25.5 55t-12 65.5t-3 54zM903 788h-2v-2h2v2z" />
<glyph unicode="L" horiz-adv-x="1597" d="M422 147q2 -12 10 -37.5t19.5 -50t26 -43t32.5 -18.5q20 0 35.5 28.5t28 63.5t18.5 67.5t8 39.5l10 16l2 -2q25 -25 48.5 -53.5t41.5 -57.5q61 -49 137 -71.5t154 -22.5q72 0 138.5 20.5t128.5 55.5q4 2 10 0t10 -4q4 -23 7 -45.5t26 -30.5l16 4q4 4 14.5 15.5t20.5 22.5 t20.5 19.5t16.5 8.5q12 0 19 -7.5t13.5 -16.5t13.5 -16t19 -7q20 0 40 47t35 109.5t24.5 126t9.5 95.5q0 53 -14.5 108.5t-45 99.5t-75.5 73t-107 29q-86 0 -139 -57.5t-53 -141.5q0 -45 14 -70.5t30.5 -42t31 -26.5t14.5 -25l-2 -2l-2 -18q-18 -39 -38 -71t-44.5 -53.5 t-58 -32.5t-82.5 -11q-53 0 -100.5 14t-83.5 43t-57.5 72t-21.5 100v240q0 16 17 26q51 10 82.5 34t31.5 81q0 33 -14 56.5t-37 45.5v13q20 18 36.5 43.5t16.5 54.5q0 72 -69 105q-4 2 -14.5 5t-21.5 8t-19.5 9t-8.5 8v254q0 6 1 18.5t4.5 26t7.5 23.5t12 10t16.5 -8 t19.5 -17.5t28.5 -17.5t46.5 -8q55 0 87.5 40t32.5 93q0 37 -17 64.5t-45 45t-60.5 25.5t-65.5 8h-33q-31 -18 -48 -27.5t-27.5 -14.5t-16.5 -9t-15.5 -13t-23.5 -24.5t-41 -42.5q-8 2 -16 25.5t-19.5 52.5t-27 52.5t-35.5 23.5q-4 0 -12 -4q-33 -33 -42.5 -72t-35.5 -74 q-25 27 -47.5 51.5t-47 43t-54 30t-66.5 11.5q-68 0 -122 -41t-54 -113q0 -49 34.5 -88t85.5 -39q27 0 40.5 5t22.5 13.5t18.5 17.5t27.5 17l2 2q12 -2 16 -19.5t4 -27.5v-283q0 -6 -9 -11t-21.5 -10t-23.5 -9t-17 -6q-55 -29 -55 -101q0 -29 13 -52t34 -42 q0 -16 -7.5 -27.5t-16.5 -23.5t-16 -27.5t-7 -36.5q0 -47 17 -69.5t39.5 -33.5t43 -17.5t26.5 -16.5q0 -53 2.5 -107.5t2.5 -107.5v-41t-3.5 -58.5t-9.5 -54t-18 -28.5q-12 2 -18.5 10t-16.5 17.5t-29.5 17.5t-56.5 8q-53 0 -81 -43t-28 -90q0 -35 15.5 -62.5t41 -46 t57.5 -27.5t63 -9q76 0 122 31.5t87 90.5l8 5zM418 883q0 23 4 56.5t14 65t29.5 54t50.5 22.5q27 0 45.5 -21.5t28.5 -51t14 -61.5t4 -52q0 -51 -8 -95t-41 -85h-10q0 -16 -14.5 -23.5t-28.5 -7.5q-29 0 -46.5 23.5t-26.5 56.5t-12 67t-3 52z" />
<glyph unicode="M" horiz-adv-x="2668" d="M2064 133q6 0 15.5 -22.5t20.5 -50t25.5 -50t31.5 -22.5q16 0 30.5 18.5t24.5 43t18 50t13 37.5l6 4l16 -8q37 -63 87 -97t122 -34q70 0 120 39t50 113q0 53 -39 89t-90 36q-31 0 -53.5 -16.5t-44.5 -35.5l-7 -2q-10 2 -15 22.5t-7 45t-2 47.5v33q0 59 1 118.5t3 118.5 q0 18 20.5 26.5t45 20t45 31t20.5 62.5q0 29 -5 43t-12 23t-16.5 18.5t-17.5 27.5v2v2q8 16 17.5 26.5t17.5 21t12 22.5t4 35q0 49 -19.5 70.5t-44 30.5t-44 13.5t-19.5 20.5v274q0 10 3 23.5t5 23.5l15 15l12 -4l23.5 -23.5t19.5 -15.5t22.5 -8t32.5 -2q53 0 86 35.5 t33 86.5q0 66 -50 107t-114 41q-53 0 -93 -20.5t-67.5 -45t-44 -46t-24.5 -21.5l-8 4l-12.5 37.5t-19.5 50t-26.5 43t-29.5 18.5h-7q-37 -33 -52 -78t-27 -90l-13 -12q-12 8 -21 22.5t-20 26.5q-51 68 -116.5 91.5t-147.5 23.5q-29 0 -50.5 -7t-47.5 -11 q-35 -23 -61.5 -49.5t-26.5 -73.5q0 -43 26.5 -69t63.5 -42q4 -8 4 -14q0 -45 -19.5 -86t-43 -81t-43 -81t-19.5 -86q0 -18 6 -36.5t6 -37.5q0 -10 -12 -20.5t-26.5 -22.5t-27 -28.5t-12.5 -40.5q0 -23 9.5 -40.5t9.5 -35.5l-2 -13q-23 -20 -44.5 -44.5t-25.5 -57.5 q-10 -74 -17 -147.5t-24 -145.5l-14 -16l-6 4q-14 23 -26.5 56.5t-22 69.5t-18.5 71.5t-17 62.5q-4 12 9 22.5t30.5 23.5t33 32.5t15.5 48.5q0 39 -13.5 60.5t-28.5 33.5t-28.5 19.5t-13.5 19.5v2q8 16 14 33.5t6 36.5q0 41 -22.5 69.5t-59.5 44.5q-29 -4 -54 -3t-36 34 l-88 281q-2 4 -1 15t1 16q6 10 19.5 17t27 17.5t23.5 25.5t10 44q0 61 -43 95t-100 34q-49 0 -77 -33t-50 -69l-8 -5q-4 0 -14.5 12.5t-21.5 28t-21.5 29.5t-12.5 19q-12 10 -27.5 24t-31.5 14q-12 0 -21.5 -12t-15.5 -28.5t-8 -34t-2 -25.5q0 -23 2 -44t2 -44l-7 -4h-2 q-43 33 -76.5 62.5t-69.5 52t-79 37t-102 20.5q-53 2 -108.5 -5t-100.5 -26.5t-73 -57.5t-28 -97q0 -55 39 -91t93 -36q57 0 88 47q2 2 5 11t8 18.5t9 16.5t6 7q12 0 21.5 -15.5t15.5 -37t9 -42t3 -28.5q0 -31 -7 -61.5t-15 -59t-15.5 -59.5t-7.5 -62q0 -23 7.5 -42 t14.5 -34.5t14 -25.5t7 -12q0 -6 -21.5 -35t-21.5 -70q0 -27 19.5 -48t19.5 -40q0 -16 -19.5 -47t-19.5 -78q0 -53 12.5 -113.5t22.5 -113.5q2 -14 -1 -48t-10 -69t-19.5 -61.5t-28.5 -26.5h-2q-23 23 -49.5 42.5t-61.5 19.5q-51 0 -80.5 -39t-29.5 -86q0 -61 42 -104.5 t105 -43.5q35 0 68.5 9.5t66.5 25.5q14 0 23.5 -8t17.5 -18.5t17.5 -18.5t23.5 -8t22.5 9t16.5 19.5t16.5 19.5t20.5 9h10q27 -23 57.5 -31t63.5 -8q61 0 107.5 37t46.5 103q0 53 -34 86.5t-87 33.5q-35 0 -56.5 -14t-44.5 -39q-20 0 -31.5 20.5t-17.5 48t-7 55.5t-1 40 q0 68 13.5 133.5t13.5 132.5q0 47 -17.5 74t-17.5 43q0 12 6 20.5t13 18.5t13.5 26.5t6.5 40.5q0 39 -19.5 61.5t-19.5 39.5v6q35 55 35 121q0 49 -15.5 98t-15.5 96q0 6 -1 27.5t0 44t4 41t11 18.5q25 0 53.5 -42t54 -97t42 -108.5t16.5 -73.5q0 -14 -13 -23.5t-30.5 -22 t-31 -31.5t-13.5 -54q0 -29 12.5 -49.5t25.5 -34t25.5 -23.5t12.5 -18q0 -20 -9.5 -39t-9.5 -39q0 -43 31 -80t76 -37q23 0 42 4t30 -26l114 -375q4 -12 -8 -19.5t-29.5 -18.5t-32 -30.5t-14.5 -56.5q0 -53 38 -90t91 -37q41 0 64.5 19.5t38 44t22.5 46t17 25.5 q16 -12 28.5 -30.5t24.5 -38t27.5 -37t35.5 -25.5q16 0 22.5 17.5t10.5 39t8 40t17 18.5h6q41 -43 84 -77t106 -34q53 0 90 36t37 89q0 33 -13 50.5t-28.5 28.5t-29 21.5t-13.5 30.5q0 57 20.5 110.5t44 102.5t44 98.5t20.5 98.5q0 16 -2 31.5t-2 31.5q0 14 11.5 25.5 t23.5 24t23.5 30t11.5 45.5q0 20 -8 37t-8 37v8q45 35 62 91.5t26.5 121t18.5 130t38 118.5q6 12 17.5 29.5t27.5 17.5q12 0 22.5 -16.5t17.5 -38t11 -42t4 -30.5v-217q0 -14 -20.5 -19.5t-45 -14.5t-45 -31.5t-20.5 -69.5q0 -33 15.5 -55.5t33.5 -47.5v-10 q-49 -41 -49 -106q0 -47 32 -78t79 -33q16 -12 16 -24v-310q0 -6 -1 -19t-4 -27.5t-8 -26t-13 -11.5h-5q-23 23 -49 37.5t-59 14.5h-23q-18 -14 -34.5 -22.5t-28.5 -20t-19.5 -29t-7.5 -47.5q0 -78 48.5 -116t121.5 -38q55 0 92 19.5t61.5 44t39 44t24.5 19.5zM2062 854 q0 20 4.5 56t15.5 71t30.5 59.5t48.5 24.5q31 0 50 -21.5t29.5 -52t13.5 -64.5t3 -57q0 -41 -6 -90t-37 -80h-2q-10 -12 -22.5 -23t-30.5 -11q-27 0 -45.5 21.5t-29.5 52t-16.5 62.5t-5.5 52zM834 985q0 27 9 53.5t42 26.5q37 0 71.5 -35t61 -83t43 -100t16.5 -87 q0 -29 -8 -55.5t-45 -26.5h-18q-35 20 -67 56t-55.5 78t-36.5 87t-13 86z" />
<glyph unicode="N" horiz-adv-x="2115" d="M1331 121q8 2 24.5 -18.5t38 -46t47 -47t56.5 -21.5q12 0 18.5 17.5t9.5 39t3 41.5v29q4 0 5 1t5 1h2q29 -25 50.5 -45.5t44 -34.5t49 -22.5t63.5 -8.5q53 0 97 31t44 90q0 47 -14 66.5t-32.5 32t-33 29.5t-14.5 64q0 86 18.5 170t18.5 158q0 27 -6 45.5t-13.5 31.5 t-13.5 22.5t-6 19.5v8q16 18 28.5 39t12.5 47q0 29 -12.5 51.5t-28.5 44.5v13q8 10 24.5 35.5t16.5 35.5q0 78 -18.5 154t-18.5 154q0 10 4 31.5t12.5 42t19.5 36t26 15.5q8 -4 17 -17.5t21.5 -29t29 -26.5t40.5 -11q55 0 91 35.5t36 91.5q0 41 -16.5 69.5t-43 46 t-60.5 24.5t-68 7q-39 0 -60.5 -15.5t-46.5 -15.5q-14 0 -22.5 9.5t-16.5 19.5t-16 19.5t-23 9.5q-14 0 -24 -9.5t-18.5 -19.5t-18.5 -19.5t-25 -9.5h-6q-39 20 -62.5 25.5t-66.5 5.5q-31 -4 -60.5 -12.5t-52 -23.5t-36 -39.5t-13.5 -63.5q0 -51 31 -91t84 -40q35 0 56.5 13 t33.5 30.5t19.5 31t13.5 13.5q12 0 23.5 -12.5t20.5 -29t14 -32.5t5 -27q0 -84 -15 -149.5t-15 -126.5q0 -53 19.5 -84t19.5 -51v-8q-16 -18 -29.5 -40t-13.5 -49q0 -29 13 -53t30 -45q0 -4 -6.5 -16.5t-15.5 -29.5t-16 -37.5t-7 -41.5q0 -72 20 -143.5t20 -143.5v-14 t-1 -21.5t-4 -20.5t-9 -9h-4q-10 8 -28.5 38t-41 67.5t-44 81.5t-40 82t-29.5 64.5t-11 31.5v10q25 23 44 47t19 59q0 39 -16.5 61.5t-37 35t-37 18.5t-16.5 16q0 14 4.5 27.5t4.5 28.5q0 47 -29 82.5t-78 35.5q-16 0 -29.5 -6t-29.5 -6q-8 0 -24.5 23.5t-38 60.5t-44 81 t-42 85t-32 72.5t-12.5 42.5q0 10 10.5 19t22.5 21.5t22.5 30t10.5 41.5q0 53 -40 88t-93 35q-41 0 -68 -19.5t-43 -42t-26.5 -42t-16.5 -19.5t-22.5 22.5t-39 48.5t-51 48.5t-59.5 22.5q-12 0 -18.5 -11.5t-8.5 -26t-1 -28.5t1 -20v-33q0 -14 5 -31l-11 -14h-6 q-41 31 -76.5 56.5t-74.5 44t-82 29.5t-97 11q-41 0 -85 -9t-78.5 -29.5t-57 -54.5t-22.5 -83q0 -53 35.5 -89t89.5 -36q23 0 47 8t39 29q8 12 12 35.5t22 23.5q14 0 24.5 -14t17 -32.5t9.5 -38t3 -29.5q0 -63 -14.5 -131t-24.5 -130q-4 -18 2 -36.5t14 -35t15.5 -30.5 t7.5 -22v-9q-14 -16 -26.5 -36.5t-12.5 -43.5q0 -29 13 -51t30 -45v-16q-43 -49 -43 -109q0 -72 18.5 -144.5t18.5 -146.5q0 -16 -3 -43.5t-10.5 -55t-21.5 -48t-35 -20.5q-18 14 -24.5 29.5t-15.5 28.5t-24.5 21.5t-52.5 8.5q-53 0 -87 -35t-34 -88q0 -72 53.5 -113 t121.5 -41q35 0 66.5 12.5t64.5 22.5l12 -4q14 -14 30.5 -27.5t39.5 -13.5q14 0 24 6t19.5 14.5t18.5 14.5t22 6q25 0 49 -15.5t45 -15.5q37 0 74.5 5t68.5 20.5t49.5 45t18.5 77.5q0 16 -8.5 38.5t-20.5 42t-28.5 34t-34.5 14.5h-70q-16 -8 -29.5 -22.5t-25 -28 t-19.5 -22.5t-10 -9q-18 0 -31.5 21.5t-22 49t-11.5 55t-3 42.5l-2 4q0 55 17.5 114.5t17.5 114.5q0 51 -6 78t-13.5 42t-13.5 23.5t-6 22.5q0 16 21.5 37.5t21.5 52.5q0 35 -21.5 62.5t-21.5 44.5l2 8q23 25 32 52.5t9 61.5q0 61 -19.5 121t-19.5 121q0 14 1 34.5t22 20.5 q10 0 21.5 -9t21.5 -22.5t18 -26.5t13 -21l114 -234q0 -8 -10 -17.5t-22.5 -22.5t-22.5 -31.5t-10 -43.5q0 -37 16 -60.5t35.5 -36.5t36 -21.5t16.5 -14.5q0 -16 -4 -29.5t-4 -29.5q0 -51 32.5 -84t84.5 -33q16 0 29.5 4t29.5 8l10 -8l207 -411q-4 -4 -15 -15.5t-22.5 -25 t-19.5 -24.5t-8 -15q0 -68 28.5 -111t104.5 -43q55 0 85.5 32t53.5 79zM1161 690q-37 0 -82 37t-85 88t-66.5 106.5t-26.5 90.5q0 20 9.5 36.5t31.5 16.5q35 0 81 -39t86 -92t67.5 -108.5t27.5 -88.5q0 -20 -10 -33.5t-33 -13.5z" />
<glyph unicode="O" horiz-adv-x="2000" d="M727 49q14 0 44 -10t69 -22.5t83 -22.5t89 -10q49 0 95 11t83 23.5t62.5 23.5t31.5 11t8 -4t3 -10t5.5 -10t14.5 -4q27 0 53.5 12t50 27.5t42 28.5t26.5 13q10 0 18 -6t15 -14q51 0 95 28.5t81 75t65.5 104.5t48 117.5t29.5 116t10 97.5q0 27 20.5 34t44 15t44 27.5 t20.5 70.5q0 23 -9 40t-19.5 31.5t-19.5 24t-9 17.5v4q25 23 39 46t14 58q0 43 -17.5 65.5t-39 32t-42 13.5t-26.5 10q-2 2 -6 21.5t-8 44t-9 48t-7 29.5q-12 43 -40 101.5t-67 114t-87 96.5t-97 45q-10 -2 -24.5 -10.5t-24.5 -12.5h-13q-12 8 -34.5 21.5t-47 28t-47 24.5 t-34.5 10q-10 0 -13.5 -6t-5.5 -13t-4 -13.5t-10 -6.5q-12 0 -36 14.5t-34 20.5q-18 10 -44 16.5t-54.5 10.5t-56 6t-48.5 2q-72 0 -139 -18.5t-131 -51.5q-14 0 -20.5 4.5t-8.5 9.5t-4 9t-10 4q-23 0 -46.5 -10.5t-46 -24.5t-44 -29.5t-41.5 -23.5q-14 0 -22.5 10t-22.5 10 q-43 0 -84 -30.5t-78 -74.5t-64.5 -92t-41.5 -83q-23 -53 -29 -102.5t-17 -102.5q-4 -16 -23.5 -22.5t-43 -16.5t-42 -31.5t-18.5 -68.5q0 -35 18.5 -56.5t35.5 -48.5v-2q-4 -14 -12.5 -24.5t-16.5 -21.5t-14 -25.5t-6 -38.5q0 -53 35.5 -79t82.5 -34q8 -6 14.5 -30.5 t9.5 -54.5t5 -56.5t4 -38.5q4 -39 34 -104.5t73 -128t93 -107.5t95 -45q20 0 30.5 9t26.5 9h9l84 -45q23 -2 39 -16.5t47 -14.5h8zM1001 131q-94 0 -159.5 43t-107.5 109.5t-61.5 149.5t-19.5 163q0 33 20.5 45t45 21.5t45 27t20.5 62.5q0 25 -8 44t-17 32.5t-17.5 23.5 t-8.5 16l2 9q23 23 34 47t11 57q0 49 -20.5 69.5t-45 28.5t-45 13.5t-20.5 25.5q0 80 21.5 158t64.5 139.5t108.5 99t155.5 37.5q88 0 154 -34.5t109 -93t63.5 -133t20.5 -154.5q0 -25 -19.5 -34t-44.5 -18.5t-44 -30t-19 -67.5q0 -20 8 -36.5t17 -31t17.5 -24.5t8.5 -18 q0 -10 -7.5 -17.5t-16.5 -18t-16 -26.5t-7 -47q0 -29 10 -56.5t39 -41.5q6 -4 19.5 -6t25.5 -6.5t22.5 -10.5t10.5 -14q0 -86 -14.5 -176t-52.5 -162t-107 -118t-175 -46zM299 872q0 25 4 59t15.5 64.5t32 52t50.5 21.5q33 0 53.5 -21.5t33 -52t17.5 -64.5t5 -59 q0 -27 -3 -62.5t-14.5 -68t-33 -55t-56.5 -22.5t-55 23.5t-30.5 56t-14.5 68t-4 60.5zM1493 881q0 25 4 58.5t16.5 66t33 55t52.5 22.5q31 0 50.5 -22.5t32 -53t17.5 -64.5t5 -56q0 -23 -4 -59.5t-15.5 -70.5t-32 -58.5t-50.5 -24.5h-13q-35 18 -54 38.5t-28.5 46 t-11.5 55.5t-2 67z" />
<glyph unicode="P" horiz-adv-x="1736" d="M418 160l6 -4q2 -10 9 -35t17.5 -51.5t24.5 -47t33 -20.5q16 0 29.5 19.5t24.5 46t17.5 50t10.5 34.5l10 8l8 -4q39 -63 88 -101.5t127 -38.5q66 0 114 41t48 111q0 49 -35 83t-84 34q-25 0 -41 -8.5t-28.5 -17.5t-21.5 -16t-15 -7q-14 0 -18.5 17t-4.5 28v202q0 41 1 80 t3 80l19 16l39 3q14 8 28.5 13t28.5 15q33 0 63.5 -8t63.5 -8q66 0 135 26h12l23 -22q39 0 77 11t68.5 25.5t52 26t25.5 11.5q16 0 27.5 -8.5t28.5 -8.5q20 0 39.5 9.5t35.5 21.5q98 76 152.5 184.5t54.5 231.5q0 14 -3 40.5t-8 54.5t-11 53.5t-13 37.5q-16 31 -40.5 73 t-57.5 80t-70.5 63.5t-76.5 25.5q-16 0 -27.5 -10.5t-28.5 -10.5q-35 16 -72.5 43t-76.5 27h-15q-4 -8 -7 -16.5t-11 -14.5q-12 0 -36.5 8.5t-55.5 18.5t-64.5 18t-64.5 8q-104 0 -169 -30.5t-103.5 -68.5t-57 -69.5t-29.5 -33.5q-8 0 -17 33.5t-21.5 73.5t-30 74t-37.5 34 q-18 -6 -31.5 -32t-24 -55.5t-18.5 -52t-16 -22.5h-6q-37 55 -87.5 98t-121.5 43q-33 0 -63.5 -9t-55.5 -27.5t-39 -46t-14 -62.5q0 -47 33.5 -86t83.5 -39q35 0 59 17.5t47 39.5h4l12 -8q12 -23 14.5 -64.5t2.5 -70.5q0 -51 -2 -102.5t-2 -102.5q-6 -16 -26.5 -19 t-44.5 -9.5t-42 -26t-18 -64.5q0 -25 5 -39t12 -24t16.5 -20.5t17.5 -28.5q0 -12 -8.5 -20.5l-17.5 -17.5t-17 -19.5t-8 -22.5q0 -70 21.5 -100.5t92.5 -41.5q4 -4 8.5 -10t4.5 -10v-211v-43t-2.5 -62.5t-10.5 -57t-22 -25.5h-4q-41 53 -101 53q-51 0 -86 -36t-35 -87 q0 -35 14.5 -62.5t39 -47t56.5 -30t65 -10.5q57 0 88.5 16.5t52 40t37 47.5t45.5 36zM512 1079q27 0 46.5 -21.5t32.5 -51t19 -61.5t6 -52q0 -23 -4 -59.5t-16 -71.5t-32.5 -59.5t-51.5 -24.5q-23 0 -40 15.5t-29.5 37t-18.5 46t-6 42.5v119q0 18 6 42t18.5 46.5t29.5 37.5 t40 15zM821 874v3q6 16 14.5 26t17.5 20.5t15 25t6 38.5q0 51 -34.5 74.5t-81.5 28.5l-13 16q-2 29 -3 59.5t-1 59.5q0 55 10.5 109.5t37 98.5t69.5 71.5t109 27.5q72 0 125 -29.5t86.5 -78t50 -111t16.5 -125.5q0 -61 -16.5 -126t-51 -118t-87 -88t-121.5 -35q-12 0 -37 3 t-49.5 9.5t-43 16.5t-18.5 24z" />
<glyph unicode="Q" horiz-adv-x="2101" d="M711 61q66 -41 139.5 -60t148.5 -19q39 0 83 9t81 19t60.5 19.5t25.5 9.5q8 0 12.5 -5t6.5 -10.5t5 -10.5t11 -5q20 0 47 11.5t51.5 25.5t44 25.5t29.5 11.5q16 0 25.5 -10.5t25.5 -10.5q25 0 45.5 10.5t42.5 20.5q18 0 45 -16.5t61 -34.5t78 -34.5t99 -16.5q37 0 73 10 t64.5 31.5t46 51.5t17.5 71q0 61 -37 105t-103 44q-39 0 -63.5 -19.5t-36.5 -54.5q0 -4 -3 -15t-6 -22.5t-7 -20.5t-8 -9q-8 0 -22.5 5t-29 14t-24.5 18.5t-10 19.5l2 10q12 37 26.5 66t27.5 57.5t25.5 61t22.5 75.5q-4 20 1 40t7 40.5t3 30.5t5 15.5t14.5 6.5t30.5 5 q41 6 62.5 36.5t21.5 69.5q0 27 -7 44.5t-15 27.5t-17.5 18t-11.5 21q6 14 15.5 24.5t19.5 20.5t17.5 25.5t7.5 39.5q0 41 -16.5 62.5t-38 33t-42 15.5t-26.5 12q-2 2 -7.5 25.5t-10.5 52.5t-10 54.5t-7 35.5q-10 27 -18.5 59.5t-22.5 57t-39 63.5t-56.5 76t-65.5 63.5 t-66 26.5q-16 0 -28.5 -9t-29.5 -9h-10q-29 29 -64.5 48t-72.5 36l-4 4h-31l-4 -4l-10 -27h-17q-61 41 -133 58.5t-143 17.5q-29 0 -62.5 -4t-67.5 -11.5t-66 -19.5t-54 -26q-12 0 -17.5 5t-8.5 12t-7 12t-12 5q-25 0 -47.5 -11t-46 -25.5t-45 -30t-41.5 -21.5 q-10 -4 -25.5 9.5t-30.5 13.5q-43 0 -91 -38t-90 -91t-73.5 -109.5t-40.5 -93.5q-2 -10 -7 -34.5t-12 -52.5t-13 -50.5t-13 -26.5q-49 -4 -72.5 -19.5t-41.5 -60.5v-65q0 -12 7 -21.5t15 -17.5t15.5 -17.5t7.5 -21.5v-6q-20 -18 -37 -41t-17 -51q0 -49 18.5 -74t42 -36 t43 -17t21.5 -21l21 -172q4 -41 31.5 -105.5t68.5 -126t89 -105.5t96 -44q16 0 27 8.5t28 8.5q8 0 29.5 -13.5t46 -30t50 -29.5t44.5 -13q8 0 11 5t5 12t5 12t10 5h4zM645 571v43t17 39q49 10 83.5 35t34.5 80q0 31 -12 55.5t-31 46.5q0 18 8.5 28.5t17.5 21t17 26t8 43.5 q0 68 -61 98q-4 2 -13 5.5t-20.5 7.5t-19.5 7t-8 7q0 88 20.5 167t65.5 139.5t113.5 95t164.5 34.5q86 0 147.5 -36.5t101.5 -95t58.5 -133.5t18.5 -148v-33l-13 -21q-47 -2 -83.5 -26.5t-36.5 -77.5q0 -35 14 -61.5t35 -53.5q-2 -12 -11.5 -20t-18.5 -18.5t-16 -27 t-7 -46.5q0 -59 29.5 -83t80.5 -38q12 -16 12 -39v-19q0 -10 -2 -21t-6 -20.5t-12 -9.5q-47 18 -77 38t-59.5 35t-66.5 25.5t-98 10.5q-72 0 -125 -42t-53 -120q0 -57 35.5 -97t95.5 -40q55 0 81.5 32.5t30.5 86.5l5 8q16 0 50 -13.5t66.5 -32t57 -40t24.5 -37.5 q0 -10 -5 -20.5t-11 -20.5q-53 -78 -116.5 -120t-160.5 -42q-94 0 -160.5 37t-108.5 98.5t-61.5 140t-19.5 162.5zM1497 842q0 25 4 60.5t15.5 69.5t32 58.5t53.5 24.5q23 0 42 -14.5t32.5 -36t20.5 -46t7 -45.5v-47q0 -27 -4 -62.5t-15.5 -69.5t-33 -57.5t-56.5 -23.5 q-33 0 -52 20.5t-29.5 50.5t-13.5 61.5t-3 56.5zM299 874q0 25 5 62t17.5 71.5t34 59.5t54.5 25t53 -21.5t31.5 -53.5t15.5 -65.5t4 -58.5t-5 -60.5t-18.5 -68.5t-35 -56.5t-54.5 -23.5q-31 0 -50 21.5t-30.5 51t-16.5 62t-5 55.5z" />
<glyph unicode="R" d="M416 143q8 0 16 -24.5t19.5 -53t26 -52t36.5 -23.5q14 0 26.5 18.5t23.5 43t19.5 48t12.5 33.5q0 2 3 8t5 6q10 0 24.5 -22.5t39 -49t60.5 -49t91 -22.5q70 0 124 38t54 114q0 53 -37.5 91t-91.5 38q-33 0 -53 -14.5t-43 -37.5q-12 0 -18 11.5t-7.5 27t-1.5 29.5v25 q0 72 -2 152.5t11 148.5q2 12 19.5 16t39 11.5t40.5 23.5t30 51q6 23 6 39q0 18 31 18q74 0 123 -31.5t82.5 -84t55 -119t38 -134t32 -130t39.5 -107.5q14 -27 35 -55.5t46.5 -51t56 -38t63.5 -15.5q14 0 25.5 6.5t23.5 6.5l10 -2q16 -12 39 -24.5t45 -12.5q8 0 10.5 5 t4.5 12t4 12.5t10 5.5q27 0 50.5 -17.5t49.5 -17.5q35 0 70 5t61.5 20.5t43 43t16.5 70.5q0 55 -33 93t-90 38q-31 0 -53.5 -14t-44.5 -35q-14 0 -24.5 40t-19 90t-14.5 99.5t-8 67.5q-8 53 -25.5 92t-42 73t-55.5 64.5t-63 67.5v4q10 18 29.5 21.5t35.5 13.5 q117 59 175.5 168.5t58.5 238.5q0 43 -21.5 102.5t-58.5 112t-83 89t-95 36.5q-14 0 -25.5 -6t-26.5 -6h-8q-41 25 -86 47.5t-94 22.5q-12 0 -16 -11.5t-17 -11.5q-12 0 -31.5 11.5t-27.5 11.5h-6q-20 4 -48 11t-49 7q-80 0 -141 -5t-113.5 -25.5t-98.5 -58.5t-95 -105h-6 l-10 4q-2 16 -8.5 52t-17.5 71.5t-28.5 63.5t-40.5 28l-8 -2q-35 -27 -49 -67t-27 -81l-10 -8h-2q-29 31 -48 56.5t-42 43t-52.5 27.5t-74.5 10q-72 0 -122 -33.5t-50 -111.5q0 -55 36 -92t91 -37q25 0 39 6t23.5 15.5t17.5 19.5t22 16h2h2q10 -12 14.5 -35.5t5.5 -51.5 t0 -54.5t-1 -42.5q0 -35 1 -76t-5 -76q-4 -18 -24.5 -23t-43 -14.5t-42 -29t-19.5 -64.5q0 -59 49 -104v-17q-27 -23 -40 -44t-13 -58q0 -53 34.5 -81t83.5 -38l7 -14v-305q0 -6 -1 -22.5t-4.5 -33t-8.5 -29t-15 -12.5q-29 29 -47.5 43.5t-61.5 14.5q-45 0 -85 -31t-40 -78 q0 -70 46.5 -118t117.5 -48q45 0 76 8.5t56.5 25t48 39.5t51.5 54zM424 877q0 20 5 53t17.5 63.5t31 53t44.5 22.5q31 0 49.5 -23.5t28.5 -55.5t13 -66.5t3 -55.5q0 -20 -4 -53t-15 -63.5t-29.5 -53t-45.5 -22.5q-29 0 -48 23.5t-30.5 55t-15.5 65.5t-4 57zM891 958 q-2 14 -3 30t-5 28q-16 47 -68 65q-6 2 -30.5 8.5t-24.5 14.5v76q0 68 9 129t35.5 108t76 75t129.5 28q57 0 111.5 -16.5t95 -49.5t65.5 -81t25 -111q0 -78 -30 -136.5t-79 -97.5t-114.5 -58.5t-137.5 -19.5h-45z" />
<glyph unicode="S" horiz-adv-x="1527" d="M289 104q2 0 19.5 -10t39 -22.5t41 -23.5t25.5 -13q61 -31 142 -42t149 -11q80 0 157.5 12t151.5 41q27 0 31 -11.5t20 -11.5q20 0 35.5 10.5t31 22.5t32 22.5t34.5 10.5q10 0 21.5 -4t21.5 -4q39 0 78 28.5t71.5 68.5t56 85t36.5 78q14 41 18 83t4 83q0 98 -34.5 179 t-94 146.5t-136.5 114.5t-163 84q-8 4 -20.5 8t-12.5 14q0 29 -5 57.5t-17 51.5t-34.5 36t-57.5 13q-23 0 -40.5 -8t-37.5 -16q-12 0 -24.5 12t-28 27.5t-35 28.5t-49.5 13q-31 0 -49.5 -12t-31.5 -26.5t-22.5 -26.5t-21.5 -12q-27 0 -50.5 16t-42 40t-28.5 51.5t-10 51.5 q0 61 34.5 101.5t86 64t111 33.5t106.5 10q49 0 100 -5t97 -20.5t83 -45t62 -78.5l-4 -17q-61 -51 -62 -125q0 -72 49 -121t121 -49q57 0 98 25t67 63.5t37 88t11 100.5q0 20 -6 65.5t-16.5 89.5t-24.5 77.5t-33 33.5q-16 0 -24.5 -13t-24.5 -13q-10 0 -28.5 24.5 t-26.5 32.5l-6 2q-14 0 -21.5 -11.5t-12.5 -24.5t-11.5 -24.5t-20.5 -11.5q-12 0 -23.5 7.5t-19.5 17.5q-90 47 -170 65.5t-180 18.5q-53 0 -92 -5t-74 -12.5t-72 -17.5t-84 -23h-2l-28 27q-23 0 -46.5 -12t-45 -26.5t-39 -27t-27.5 -12.5q-8 0 -19.5 3t-19.5 5 q-55 -8 -97 -49t-71 -96t-43 -115.5t-14 -107.5q0 -96 32.5 -175t89 -142.5t130 -112.5t155.5 -86l13 -13q0 -25 2 -51t11 -48.5t27.5 -37t53.5 -14.5q27 0 51.5 9t48.5 9q8 0 17.5 -13t23.5 -28.5t34.5 -29t49.5 -13.5q47 0 72.5 22.5t46.5 61.5l12 4q25 8 54.5 -10t56 -48 t45 -65.5t18.5 -62.5q0 -70 -34.5 -117t-87 -75.5t-116 -41t-120.5 -12.5q-41 0 -80 2t-80 7q-23 14 -50.5 26t-54 25.5t-49 31t-34.5 46.5v12v12q35 33 56.5 64.5t21.5 83.5q0 37 -16.5 69.5t-42 56t-59.5 37t-71 13.5q-57 0 -101 -22.5t-75 -61.5t-47.5 -88t-16.5 -103 q0 -16 4.5 -61t13.5 -93t22.5 -86t31.5 -38q16 0 31.5 8t30.5 18q12 0 20 -12t16.5 -26.5t16.5 -26.5t24 -12q12 0 18.5 12t11.5 27.5t10.5 28.5t17.5 13zM547 918q0 20 13 31.5t32.5 17.5t41 7t36.5 1q27 0 72.5 -10.5t90 -28.5t76 -46t31.5 -63q0 -20 -12.5 -32.5 t-30.5 -19.5t-38.5 -9t-35.5 -2q-31 0 -77 9t-91 28.5t-76.5 48.5t-31.5 68z" />
<glyph unicode="T" horiz-adv-x="1841" d="M809 131q2 -12 9 -37.5t18.5 -50.5t24.5 -43t32 -18q14 0 28.5 17t25.5 40.5t19.5 47.5t10.5 36l12 8q14 -4 25.5 -26.5t35 -47t65.5 -45t116 -20.5q63 0 107 46t44 109q0 49 -36.5 88t-85.5 39q-31 0 -55.5 -14t-47.5 -35q-12 0 -18 12.5t-7.5 28t-1.5 31.5v25 q0 76 1.5 150.5t11.5 150.5q6 10 26.5 15t44 15.5t41 33t17.5 67.5q0 20 -5 33.5t-12.5 23.5t-15.5 21.5t-14 27.5q0 8 8 18.5t17.5 20.5t17.5 22.5t8 28.5q0 68 -26.5 97.5t-92.5 44.5q-10 10 -10 30q0 45 2 111.5t17.5 128t50 105.5t100.5 44q68 0 118 -46t50 -115v-15 q-37 -29 -60.5 -65.5t-23.5 -85.5q0 -35 14.5 -69t39 -59.5t57 -41t69.5 -15.5q68 0 113 29t72.5 75t39 103.5t11.5 112.5q0 18 -6.5 67.5t-17.5 100.5t-28.5 91t-42.5 40q-16 0 -23 -13.5t-22 -13.5q-12 0 -21 11.5t-18.5 24.5t-19.5 24.5t-25 11.5q-12 0 -18 -9t-10 -21.5 t-11.5 -21.5t-19.5 -9h-6q-29 18 -52.5 30.5t-47 18.5t-50 9t-59.5 3q-57 0 -96 -8t-71 -25.5t-61.5 -45.5t-68.5 -66l-10 12q-4 12 -11.5 38.5t-19.5 53.5t-26.5 47.5t-30.5 20.5q-14 0 -28.5 -20.5t-27 -47.5t-20.5 -53.5t-10 -38.5l-11 -8h-2q-31 33 -59.5 61.5t-59 51 t-68.5 35.5t-89 13q-123 0 -232 -57q-12 0 -18 10.5t-10 23.5t-11.5 23.5t-19.5 10.5t-22.5 -11.5t-19.5 -23.5t-18.5 -23.5t-19.5 -11.5l-6 2l-20.5 20.5t-26.5 10.5q-25 0 -44.5 -46t-32.5 -105.5t-20.5 -116t-7.5 -76.5q0 -53 14.5 -103.5t44.5 -90.5t74 -64.5t103 -24.5 q20 0 40.5 7t41.5 12q41 18 67.5 67t26.5 92q0 41 -7 59.5t-18.5 30t-24.5 23.5t-26 41v8q0 31 14.5 59.5t37 50t51 35t59.5 13.5q51 0 84 -21.5t52.5 -55.5t26.5 -76t7 -85q0 -8 -1 -35.5t-2 -57.5t-2 -54.5t-3 -28.5q-4 -12 -24.5 -17t-44 -15.5t-43 -34t-19.5 -72.5 q0 -29 13 -52.5t34 -41.5v-15q-25 -27 -39 -49t-14 -59q0 -72 65 -96q4 -2 14.5 -5.5t20.5 -7.5t18.5 -8t8.5 -8v-227v-37q0 -27 -3 -57.5t-8.5 -54.5t-17.5 -24h-6q-23 23 -46.5 40.5t-56.5 17.5q-53 0 -89.5 -36t-36.5 -89q0 -68 47 -115t114 -47q82 0 129 31t95 96l10 4z M905 672q-27 0 -43 23.5t-26.5 55t-14.5 64.5t-4 51q0 20 4 54t15.5 67t31 55.5t47.5 22.5q31 0 48.5 -22.5t26.5 -53.5t12.5 -63.5t3.5 -53.5q0 -23 -4.5 -56.5t-15.5 -66t-30.5 -55t-50.5 -22.5z" />
<glyph unicode="U" horiz-adv-x="1931" d="M803 59q55 -31 114.5 -48t122.5 -17q131 0 240 47t185.5 130t118.5 193.5t42 237.5q0 25 -1 61.5t-9 59.5q-4 10 -17.5 28.5t-13.5 28.5q0 8 6 16.5t14.5 19.5t14.5 25.5t6 37.5q0 37 -14.5 54t-26.5 46q0 20 20.5 38.5t20.5 45.5q0 63 -8 121.5t-19 122.5 q-2 14 1.5 42.5t11.5 57.5t21.5 50.5t31.5 21.5q29 -35 51.5 -58.5t71.5 -23.5q59 0 90 45t31 98q0 31 -16.5 56.5t-42 44t-56.5 28.5t-57 10q-35 0 -70 -10t-68 -27q-16 0 -25 8.5t-18.5 18.5t-18.5 18.5t-24 8.5q-14 0 -23 -8.5t-18.5 -17.5t-18.5 -17t-21 -8 q-27 0 -63 17t-81 17q-63 0 -112.5 -37.5t-49.5 -105.5q0 -53 33 -92t88 -39q31 0 54.5 10t41.5 37q4 6 8.5 18.5t14.5 12.5q16 0 28.5 -16.5t19.5 -39t10 -45t3 -34.5q0 -53 -15 -106.5t-15 -102.5q0 -35 1 -52.5t6 -32t13 -29.5t23 -44v-2q-8 -16 -16.5 -24.5l-15.5 -15.5 t-11 -19.5t-4 -38.5q0 -16 6 -29.5t13 -24t13.5 -21.5t6.5 -24q0 -16 -19.5 -44.5t-19.5 -78.5q0 -41 5 -78.5t5 -78.5q0 -76 -23.5 -140.5t-66.5 -111.5t-105.5 -73.5t-140.5 -26.5q-96 0 -159.5 40.5t-102.5 106t-55.5 146.5t-16.5 161v43q0 14 20.5 18.5t45 13.5t45 29.5 t20.5 69.5q0 31 -15 55.5t-38 45.5l-2 6q0 12 8 19t19.5 18.5t19.5 28t8 46.5q0 45 -19.5 66.5t-44 32t-44 15.5t-19.5 15v68q0 66 2 132.5t15 131.5l8 4q12 0 19 -8t17.5 -18.5t27 -18.5t48.5 -8q53 0 88 34t35 87q0 31 -11 58.5t-31.5 50t-47 36t-59.5 13.5 q-72 0 -115 -19.5t-68.5 -42t-40 -42t-28.5 -19.5q-6 0 -12 22.5t-15.5 49t-23 49t-33.5 22.5q-23 0 -37 -19.5t-25.5 -44t-20.5 -44t-17 -19.5q-16 0 -34 16.5t-42.5 37t-58 37t-84.5 16.5q-70 0 -121.5 -37t-51.5 -113q0 -49 35 -87t86 -38q33 0 49.5 8.5t25.5 18.5 t16.5 18t21.5 8q8 0 12 -19.5t5 -43t1 -45.5v-25q0 -53 -2 -105t-6 -106q-6 -8 -26.5 -11t-44 -12t-41 -32t-17.5 -70q0 -29 13.5 -57.5t35.5 -44.5q0 -12 -8 -21.5t-17 -20.5t-16.5 -25.5t-7.5 -32.5v-15q0 -49 21.5 -70.5t46 -30.5t45 -14.5t20.5 -21.5q0 -152 44 -289 t155 -245q23 -23 51.5 -39.5t61.5 -16.5q14 0 26 7.5t27 7.5q18 0 33.5 -7.5t31 -16.5t30.5 -16.5t34 -7.5q8 0 11 6.5t5 13.5t4 13t13 6h8zM406 895q0 20 4 54t14 64.5t29.5 53.5t48.5 23q27 0 44 -23t28.5 -53.5t16.5 -63t5 -53.5q0 -20 -3 -55t-12.5 -68t-27.5 -57.5 t-47 -24.5q-33 0 -52.5 22.5t-30.5 55.5t-14 66.5t-3 58.5zM1272 1524v-13v13z" />
<glyph unicode="V" horiz-adv-x="2103" d="M899 113q14 -10 27.5 -31t29 -40t33 -33.5t37.5 -14.5q18 0 24.5 18.5t9.5 41t7 41t14 18.5h4q39 -43 84 -72t105 -29q53 0 93 30t40 87q0 29 -8 46.5t-19.5 29.5t-19.5 21.5t-8 23.5q0 61 26.5 115.5t57 106.5t57.5 105.5t27 112.5q0 16 -4.5 31.5t-4.5 32.5 q0 6 12.5 16t28 23.5t28.5 33t13 47.5q0 16 -6 32t-6 32q0 12 10.5 23.5t23.5 23.5t25.5 27.5t16.5 34.5q12 63 20.5 113t20.5 94t31.5 86t54.5 92q8 10 20.5 24t28.5 14q14 0 22.5 -12t19.5 -25.5t31.5 -25.5t57.5 -12q53 0 85 39t32 88q0 66 -48 108.5t-112 42.5 q-37 0 -57.5 -6t-36 -14t-29.5 -17.5t-41 -15.5l-2 -2q-10 0 -16 11t-14.5 25.5t-17.5 26t-24 11.5q-14 0 -27.5 -12.5t-25.5 -26t-23.5 -25.5t-21.5 -12h-4q-41 25 -81 41t-87 16q-63 0 -111.5 -37t-48.5 -104q0 -49 32 -90t85 -41q37 0 68.5 18.5t44.5 55.5l8 4 q12 0 23.5 -12.5t18.5 -29t11 -34t4 -27.5q0 -43 -19.5 -82t-43 -74.5t-43 -71.5t-19.5 -75q0 -18 6.5 -35.5t6.5 -36.5l-10 -11q-11 -11 -24 -25.5t-25.5 -28.5t-16.5 -23q0 -27 6 -49t6 -47q0 -6 -9 -15t-20.5 -19.5t-22.5 -21.5t-17 -20q-8 -14 -16.5 -51t-16.5 -83 t-18.5 -97t-20.5 -94t-23.5 -71t-27.5 -28l-15 17q-4 10 -21.5 61t-37 109.5t-34.5 105.5t-15 52q0 8 14 16t30.5 21.5t31 34t14.5 50.5q0 23 -8.5 45.5t-22.5 38.5q-6 8 -31.5 20.5t-25.5 22.5v2q4 6 11 25.5t7 24.5q0 53 -22.5 95t-85.5 42q-18 0 -39 -4t-29 20l-76 232 q-2 4 -5 23.5t-3 23.5q0 6 1 19t5 26.5t9.5 24t15.5 10.5q6 0 14 -12.5t20.5 -27t31 -26.5t49.5 -12q14 0 26 3t27 1q78 39 78 123q0 72 -51.5 113.5t-118.5 41.5q-61 0 -116.5 -22.5t-96.5 -71.5q-4 -6 -12.5 -21.5t-16.5 -31.5t-16.5 -29.5t-14.5 -13.5q-8 8 -22.5 33.5 t-32.5 57.5t-38.5 63.5t-41.5 52.5q-20 0 -33.5 -19.5t-21.5 -44t-13.5 -49t-7.5 -37.5l-8 -4q-8 0 -26.5 21.5t-49 48t-73.5 48t-101 21.5q-29 0 -58.5 -11t-52 -29.5t-37 -45t-14.5 -57.5q0 -55 36 -96t94 -41q27 0 46 12t33.5 27.5t22.5 29t12 13.5q10 0 24.5 -25.5 t31 -64.5t32 -85t28.5 -87t22.5 -70t11.5 -33q6 -16 -6.5 -27.5t-30 -25.5t-32.5 -33.5t-15 -54.5q0 -37 13 -55.5t28.5 -29.5t29 -19.5t13.5 -22.5q0 -18 -8.5 -35.5t-8.5 -36.5q0 -43 30 -79.5t77 -36.5q27 0 45 3t29 -30l118 -354q6 -16 -7 -26.5t-30.5 -23t-33 -32 t-15.5 -56.5q0 -59 42 -93t98 -34q37 0 62.5 14.5t41.5 33t27.5 34t17.5 15.5zM604 1012q0 18 11.5 37.5t33.5 19.5q39 0 79 -37t70.5 -87t50 -104.5t19.5 -88.5q0 -23 -11 -39.5t-36 -16.5q-41 0 -80 36t-69.5 87t-49 104.5t-18.5 88.5z" />
<glyph unicode="W" horiz-adv-x="3172" d="M1925 113q12 -8 25.5 -30t29 -43.5t32 -37.5t34.5 -16q12 0 20.5 15t13.5 36.5t8 41t5 30.5l8 8q43 -45 84 -81t109 -36q49 0 94 31.5t45 85.5q0 27 -12.5 47t-26.5 34.5t-26.5 24.5t-12.5 19q0 55 31 110.5t67.5 110.5t67.5 109.5t31 105.5q0 16 -6 28.5t-6 28.5 q0 6 13 14.5t30.5 21.5t31 33.5t13.5 51.5q0 16 -4.5 31.5t-4.5 32.5q0 20 22.5 32.5t35.5 26.5q14 16 27.5 58t28.5 95.5t32.5 110.5t39 105.5t48 79t59.5 30.5q10 0 16.5 -13t17.5 -30.5t30.5 -31t58.5 -13.5q51 0 83 37t32 86q0 72 -49 113t-117 41q-41 0 -79 -14.5 t-73 -37.5q-12 0 -20 12.5t-16.5 27t-16.5 26.5t-22 12q-29 -12 -49.5 -33.5t-43.5 -44.5q-8 -4 -12 -4q-6 0 -21.5 10.5t-37 21.5t-49 21.5t-58.5 10.5q-72 0 -119 -35t-47 -111q0 -49 35 -88t86 -39q25 0 43.5 10.5t32.5 22.5t22.5 22.5t12.5 10.5q23 -23 40 -35t17 -49 q0 -47 -21.5 -85t-48 -75t-48 -75.5t-21.5 -84.5q0 -16 6 -30.5t6 -30.5q0 -8 -13 -15t-28.5 -19.5t-29 -33t-13.5 -51.5q0 -16 6 -31.5t6 -31.5q0 -6 -4 -15q-39 -20 -63.5 -59t-39.5 -88t-24.5 -101.5t-18.5 -96.5t-21.5 -74.5t-32.5 -34.5q-10 6 -27.5 49t-34 96 t-30 101.5t-15.5 64.5l4 19q41 12 63.5 41.5t22.5 70.5q0 27 -13 47.5t-28.5 34.5t-28 24.5t-12.5 20.5q0 23 10.5 40t10.5 40q0 53 -39 79.5t-86 24.5h-33l-10 7q-8 12 -22.5 53t-28 88t-23.5 91t-10 62q0 6 2 20.5t6 28t9 24.5t14 11q14 -35 44.5 -61.5t69.5 -26.5 q59 0 92 39t33 95q0 37 -17.5 64.5t-44 47t-60 28.5t-66.5 9q-74 0 -117 -28.5t-67.5 -65.5t-38 -71t-27.5 -46l-4 4q-6 12 -21.5 48t-36 76t-40 70.5t-33.5 30.5q-16 0 -27.5 -17t-18.5 -40.5t-13.5 -47.5t-8.5 -36l-8 -8q-16 6 -33.5 28.5t-42 47t-60.5 44t-89 19.5 q-63 0 -115.5 -40t-52.5 -107q0 -55 35 -94t92 -39q23 0 37 6t25.5 16t20.5 22.5t23 24.5q8 2 16.5 -13t10.5 -22q2 -8 11 -34.5t20.5 -62.5t25 -76t23.5 -73.5t17 -57t7 -27.5q0 -12 -14 -19.5t-30.5 -17.5t-31 -28.5t-14.5 -53.5q0 -12 2 -25.5t2 -25.5q0 -16 -17 -20.5 t-28 -10.5q-35 -18 -50 -55t-25 -72q-10 -41 -19.5 -101.5t-23 -124t-32 -119.5t-44.5 -87l-17 20q-2 8 -16 56.5t-31.5 102.5t-31 98t-13.5 46q0 8 14.5 16.5t31 20t30.5 28.5t14 46q0 41 -12 64.5t-26.5 38t-26.5 21.5t-12 17q0 18 10 36t10 38q0 43 -31.5 79t-77.5 36 q-12 0 -24 -2t-25 -2q-10 4 -27.5 49t-35 100t-30.5 105.5t-13 62.5q0 16 2 35.5t16 30.5q12 -8 17.5 -22.5t15.5 -29t29.5 -24.5t58.5 -10q53 0 87 37.5t34 89.5q0 35 -15.5 64.5t-41 50t-57 31.5t-64.5 11q-55 0 -91 -13t-61.5 -37.5t-45 -60.5t-40.5 -81h-2l-10 8 q-6 10 -21.5 44t-36 69.5t-39 64.5t-30.5 29q-14 0 -26.5 -20.5t-21.5 -47t-15.5 -52.5l-8.5 -34l-8 -10q-31 29 -56.5 55.5t-52 47t-59.5 32.5t-80 12q-66 0 -113 -39.5t-47 -107.5q0 -53 34 -92t87 -39q29 0 48.5 12.5t31.5 27.5t19.5 28.5t13.5 13.5q8 0 17.5 -10.5 t18.5 -23.5t15 -27.5t8 -20.5l93 -287q6 -16 -7.5 -24.5t-32 -20.5t-34 -30.5t-15.5 -55.5q0 -31 12.5 -53.5t28 -37.5t28.5 -24.5t13 -15.5q0 -18 -10 -34.5t-10 -37.5q0 -31 6 -48t18.5 -28.5t30 -20.5t37.5 -21q6 0 18.5 1t24.5 0t22.5 -5.5t14.5 -12.5q4 -14 14 -45 t23.5 -70.5t29 -83.5t27.5 -82t20.5 -67t8.5 -37l-4 -12q-35 -16 -61.5 -37.5t-26.5 -62.5q0 -59 38.5 -95.5t96.5 -36.5q31 0 52.5 8.5t36.5 24t27.5 37t26.5 45.5l8 6l11 -6q20 -35 41.5 -70.5t54.5 -64.5l10 -2q10 -2 19.5 16.5t15.5 43t10 47t6 30.5q14 0 28.5 -18.5 t36 -41t53.5 -41t83 -18.5q53 0 94 32t41 89q0 27 -11 44.5t-23.5 30.5t-23.5 23.5t-11 20.5q0 45 19 102.5t46 117t54.5 112.5t43.5 88l13 8h4q45 -29 94 -29q10 0 20.5 1t14.5 -11q8 -29 27.5 -82t39 -111.5t33.5 -109.5t14 -76q0 -18 -13 -27.5t-28.5 -19.5t-29 -27.5 t-13.5 -50.5q0 -59 41 -96t99 -37q51 0 80.5 31t54.5 70zM1661 997q0 23 4 42.5t37 19.5q39 0 77 -36t67.5 -87t48 -104.5t18.5 -86.5q0 -20 -8.5 -40.5t-32.5 -20.5q-41 0 -79 36t-66.5 86t-47 103t-18.5 88zM592 997q0 27 10 48.5t41 21.5q35 0 71 -36t65.5 -85t48 -100 t18.5 -82q0 -23 -9.5 -46.5t-37.5 -23.5q-37 0 -74 35t-66.5 84t-48 100t-18.5 84zM2578 1438v-4l-2 2v2h2zM471 1688v-9v9z" />
<glyph unicode="X" horiz-adv-x="2033" d="M1292 229h2q33 -25 57.5 -58.5t51.5 -67t58.5 -65.5t80.5 -52q18 0 20.5 26.5t2.5 38.5q0 16 -2 32.5t-2 33.5l8 14h4q51 -53 114.5 -90t141.5 -37q72 0 127 36t55 116q0 53 -33.5 91t-87.5 38q-39 0 -60.5 -15.5t-33.5 -35t-18 -35t-15 -15.5q-10 0 -23.5 8.5 t-25.5 20.5t-22.5 25.5t-16.5 21.5l-256 397q-6 12 -6 27v8q23 16 40 39t17 51q0 53 -33.5 85t-80.5 48l-4 5q0 35 19.5 44t49 16t62.5 25.5t59 73.5l125 260q4 8 16.5 26.5t27.5 37t30.5 33t25.5 14.5q8 0 15.5 -11.5t18.5 -25.5t30.5 -25.5t50.5 -11.5q53 0 89 39t36 92 q0 68 -50 109t-116 41q-35 0 -65.5 -15.5t-46.5 -15.5t-25.5 8t-16 18.5t-13.5 18.5t-21 8t-24.5 -8t-18.5 -18.5t-17.5 -18.5t-23.5 -8t-28.5 6t-31 13.5t-36 13.5t-43.5 6q-31 0 -61 -8t-54.5 -24.5t-39.5 -41t-15 -59.5q0 -55 33.5 -99t92.5 -44q37 0 63 23.5t40 55.5 l6 2q14 0 17.5 -16t3.5 -27q0 -47 -33 -82.5t-74 -72.5t-81 -78t-52 -98l-16 -9q-27 -2 -48.5 -7t-46.5 -9l-8 2q-10 6 -45 51t-71.5 102.5t-65.5 118t-29 97.5q0 12 5 34.5t22 22.5l4 -4q10 -41 38.5 -71.5t74.5 -30.5q53 0 84.5 36.5t31.5 88.5q0 41 -18.5 69.5t-47 47 t-64.5 27.5t-70 9q-104 0 -159.5 -58.5t-78.5 -154.5l-8 -8q-16 14 -27.5 33.5t-25.5 36.5q-37 45 -76 83.5t-80 79.5q-8 4 -16.5 7.5t-18.5 7.5l-14 -10q-10 -29 -8 -59t-5 -58v-6t-4 -4q-33 12 -52 31.5t-42.5 39t-59.5 33.5t-100 14q-29 0 -57.5 -8t-52 -25.5t-37.5 -42 t-14 -57.5q0 -59 31.5 -99t93.5 -40q49 0 69.5 21.5t44.5 60.5q12 0 39 -32t58.5 -78t64.5 -99t60.5 -100t45 -78t17.5 -33l-2 -8q-23 -23 -38 -43.5t-15 -54.5q0 -41 19.5 -63.5t42 -35t42 -19.5t19.5 -16q0 -49 -15.5 -63t-37 -20.5t-47 -19.5t-46.5 -58l-141 -312 q-6 -12 -19.5 -33.5t-30 -44t-34 -40t-31.5 -19.5q-14 4 -21.5 16.5t-15.5 24.5t-17 21.5t-28 9.5q-10 0 -16 -8.5t-17 -8.5q-10 0 -14 8.5t-14 8.5q-25 0 -42.5 -11.5t-29.5 -30t-18.5 -41t-6.5 -42.5q0 -68 52.5 -107t115.5 -39q33 0 65 11.5t60 25.5q12 0 20.5 -8 t15.5 -18.5t15.5 -18.5t20.5 -8q14 0 23.5 8t18.5 18.5t18.5 18.5t21.5 8q29 0 58.5 -18.5t70.5 -18.5q37 0 71.5 5.5t62.5 20.5t44.5 44t16.5 74q0 55 -33 93t-90 38q-31 0 -51.5 -12.5t-33 -27.5t-19.5 -27.5t-11 -12.5q-16 0 -19.5 21.5t-3.5 31.5q0 35 19.5 71 t46.5 67.5t55.5 61.5t46.5 52q29 33 35 70t27 72q23 4 42 9t42 5q8 0 31.5 -29t53 -73t63.5 -97t61.5 -101t45 -85t17.5 -47t-5 -27.5t-17 -17.5q-27 45 -48.5 66.5t-76.5 21.5q-53 0 -83 -39t-30 -88q0 -78 54.5 -113t125.5 -35q109 0 166.5 52.5t79.5 156.5zM1151 698 q-35 0 -91 38t-109.5 90.5t-91.5 107.5t-38 90q0 37 39 37q33 0 63.5 -19.5t53.5 -42.5q16 -18 51 -49.5t70 -68.5t60.5 -74t25.5 -68q0 -18 -5 -29.5t-28 -11.5z" />
<glyph unicode="Y" horiz-adv-x="1998" d="M895 131q2 -12 9 -35.5t18.5 -46t26 -39t30.5 -16.5q18 0 32.5 23.5t26 53t19.5 53t14 23.5h6q37 -57 91.5 -98t125.5 -41q31 0 60.5 9.5t54.5 27.5t40 44t15 58q0 55 -32.5 98.5t-92.5 43.5q-35 0 -59.5 -15.5t-44.5 -40.5q-10 0 -14 19.5t-7.5 43t-3.5 46.5v29 q0 59 -1 133t10 131q2 10 21.5 14t43 14.5t43 32t19.5 66.5q0 35 -13.5 59.5t-38.5 46.5v4q0 23 19.5 36.5t27.5 31.5q6 16 7 39q0 25 12 37q6 6 24.5 9t41 12.5t45 26.5t38.5 48l138 270q6 10 16 25.5t23.5 29t28 22.5t26.5 9l8 -2q10 -16 19.5 -31.5t23.5 -25.5h4l10 16h2 q4 -14 15.5 -28.5t27.5 -14.5q57 0 90 36t33 91q0 66 -44 108t-109 42q-37 0 -71 -11.5t-69 -27.5q-12 0 -19 9t-13.5 21.5t-13.5 21.5t-19 9q-6 0 -19 -4l-53 -49q-8 -4 -16 -4q-14 0 -48 20.5t-81 20.5q-33 0 -64.5 -8t-56.5 -26.5t-40 -45t-15 -63.5q0 -16 6 -38 t17 -42.5t27.5 -33.5t37.5 -13q29 0 48 1t33.5 7t27 19.5t28.5 37.5l8 2q12 -6 15.5 -21.5t3.5 -27.5q0 -31 -22.5 -59.5t-53.5 -56t-61.5 -52t-49.5 -45.5q-8 -10 -12 -23.5t-8 -27.5t-10.5 -25.5t-20.5 -15.5t-34.5 -10t-35.5 -6l-6 2q-12 8 -48 55t-76 104.5t-70.5 110.5 t-30.5 74v18l6 4q20 -23 41 -44t53 -21q61 0 99.5 28.5t38.5 94.5q0 74 -56.5 113.5t-124.5 39.5q-37 0 -73.5 -11t-68.5 -32.5t-53.5 -52.5t-25.5 -70q-2 -18 -3 -36.5t-5 -34.5h-6q-4 4 -21.5 25.5t-42 50t-55.5 60.5t-60.5 59.5t-56 45t-45.5 17.5q-14 0 -19 -16.5 t-6 -37t1 -40t2 -27.5l-6 -4q-14 4 -36 21.5t-34 27.5q-16 2 -32.5 12t-36 21.5t-44 19.5t-55.5 8q-35 0 -70 -10t-61.5 -29.5t-43 -49t-16.5 -68.5q0 -53 41 -89t95 -36q29 0 48 16t31.5 34.5t20.5 35t16 16.5q14 0 44 -30.5t67 -75.5t75 -99.5t70.5 -101.5t54 -80 t25.5 -37v-18q-16 -20 -29.5 -43t-13.5 -51q0 -25 12.5 -43.5t28 -33t28.5 -24.5t13 -16q0 -20 -8 -38t-8 -38q0 -55 19.5 -72.5t42 -24.5t42 -18.5t19.5 -56.5q0 -72 2 -146.5t-6 -146.5q0 -4 -2.5 -15.5t-4.5 -22.5t-6 -19t-10 -8q-4 0 -12 4q-20 23 -43 37t-56 14 q-51 0 -82.5 -37t-31.5 -86q0 -25 9 -51.5t26.5 -50t41 -38t52.5 -14.5q80 0 112.5 7.5t49 22.5t31 39t59.5 54zM825 1020q0 29 10.5 56.5t45.5 27.5q39 0 72.5 -32t59 -77t40 -93t14.5 -81q0 -29 -11.5 -54.5t-45.5 -25.5q-39 0 -73 31t-58.5 75t-39 92t-14.5 81z" />
<glyph unicode="Z" horiz-adv-x="1835" d="M1470 51q18 0 23.5 -11t7.5 -23.5t6 -23.5t19 -11q12 0 22.5 12t20.5 25.5t19 25.5t22 12q10 0 16 -7t12.5 -14t12.5 -14.5t16 -7.5q25 0 48.5 45t40 103.5t26.5 114t10 77.5q0 55 -11.5 115.5t-39 111t-72.5 84t-110 33.5q-41 0 -78 -13t-66 -37.5t-46 -59.5t-17 -78 q0 -37 8 -59.5t22.5 -40t34 -34t39.5 -40.5q0 -33 -14.5 -62.5t-39 -51t-55 -34t-63.5 -12.5q-39 0 -73.5 11.5t-68.5 25.5t-67 29.5t-69 21.5q-10 2 -35 6t-50.5 9.5t-48 10.5t-28.5 11q0 6 19.5 36t48 68.5t62.5 84t63.5 83t50 63.5t22.5 26q16 0 33.5 -6.5t34.5 -6.5 q51 0 80.5 35t29.5 84q0 10 -2 21.5t-2 21.5q0 12 17.5 19.5t38 19.5t38 32.5t17.5 61.5q0 31 -9.5 47.5t-19.5 26.5t-19.5 17t-9.5 22q0 14 19.5 48t50.5 76t66.5 87t67.5 83t55.5 61.5t29.5 23.5q14 0 33.5 -11.5t44.5 -11.5q47 0 76.5 32t29.5 79q0 18 -7 39.5t-19 40 t-29.5 31t-38.5 12.5q-53 0 -78.5 -7.5t-42 -17.5t-33 -22.5t-49.5 -22.5l-8 8q-2 6 -4 20.5t-5 29t-9 24.5t-14 10q-10 0 -33 -15.5t-46.5 -36t-45 -39.5t-29.5 -28q-6 0 -20.5 16.5t-34 38t-43 39t-50.5 17.5q-49 0 -72.5 -15.5t-34.5 -35t-20.5 -34.5t-29.5 -15 q-45 0 -94.5 17t-101.5 36.5t-108.5 37t-115.5 17.5q-49 0 -98.5 -14.5t-89.5 -42.5q-14 0 -19.5 12t-8.5 26.5t-7 27t-19 10.5q-10 -2 -21.5 -11.5t-23.5 -22t-22.5 -24.5t-16.5 -18q-25 0 -36 17.5t-31 17.5l-21 -13q-35 -61 -52 -129.5t-17 -140.5q0 -55 12 -109.5 t39.5 -97.5t73 -69.5t108.5 -26.5q80 0 138.5 50t58.5 134q0 35 -8.5 53.5t-20.5 31.5t-26.5 28.5t-26.5 42.5q8 47 55 73.5t96 26.5q43 0 90.5 -15.5t96.5 -33.5t98 -35.5t98 -19.5l8 -6q-4 -12 -8 -17q-129 -135 -231 -289l-19 -12q-16 0 -30.5 6t-30.5 6q-43 0 -80 -30.5 t-37 -77.5q0 -12 2 -24.5t2 -24.5t-11 -17.5t-28.5 -13.5t-37 -23.5t-33.5 -52.5v-57q0 -14 9 -24.5t19.5 -19.5t19.5 -17.5t9 -16.5q0 -18 -19.5 -55t-50 -82t-65.5 -94t-67.5 -90t-56.5 -71t-30 -34q-8 -4 -16 -4q-18 0 -34.5 8t-37.5 8q-51 0 -85 -34.5t-34 -85.5 q0 -59 38 -96.5t98 -37.5q35 0 65.5 14.5t55 32t42 32t25.5 14.5q10 0 12 -17.5t3 -38t4.5 -38t19.5 -17.5q14 0 35.5 20.5t44 47t44 48t36.5 25.5q6 -6 11 -27.5t19.5 -45t41 -42t77.5 -18.5h35q37 16 57.5 45t34.5 66q12 8 25 8q55 0 108.5 -20.5t105.5 -45t106.5 -45 t113.5 -20.5q102 0 192 55zM754 713q0 35 32.5 91t79.5 109.5t98.5 91t88.5 37.5q18 0 31.5 -8t13.5 -28q0 -37 -32 -94.5t-79 -110.5t-99 -91t-91 -38q-43 0 -43 41z" />
<glyph unicode="a" horiz-adv-x="2158" d="M1497 225q8 -18 26.5 -54t41 -73t47 -66.5t43.5 -35.5q12 0 22.5 19.5t16.5 45t9 50t3 34.5l10 9q27 -29 55.5 -54.5t59.5 -45t65.5 -32t75.5 -12.5q31 0 59.5 10.5t51 29t37 44t14.5 58.5q0 51 -33 91t-86 40q-27 0 -47 -12.5t-34.5 -27t-23.5 -26.5t-14 -12 q-14 0 -32.5 28.5t-38 70.5t-38 91t-32.5 92t-23 72l-10 29q-6 16 -13 28.5t-7 32.5q0 6 4 19q37 18 57.5 43.5t20.5 68.5q0 35 -12.5 55.5t-29 33t-30.5 18.5t-16 16q6 18 10 38t4 40q0 45 -20.5 63.5t-47.5 47.5q-23 0 -44 -2.5t-44 -2.5l-8 9q-14 27 -32.5 66.5t-34 84.5 t-25.5 88t-10 74v29q0 20 16 20h2q16 -20 39 -40.5t51 -20.5q53 0 94.5 32.5t41.5 90.5q0 70 -52.5 110.5t-117.5 40.5q-94 0 -147.5 -50t-86.5 -130l-12 -10h-4q-16 20 -32.5 51t-35 61.5t-40 56t-48.5 36.5q-16 0 -24.5 -20.5t-13.5 -47.5t-6 -53.5t-3 -36.5q0 -2 -2 -9.5 t-6 -7.5t-34 27t-74 58.5t-100 58t-112 26.5q-33 0 -66.5 -5t-66.5 -9q-27 -16 -52.5 -28.5t-45 -29t-31.5 -41t-12 -63.5q0 -57 37 -97t94 -36l29 2q27 2 43 21.5t25 41t14.5 39t11.5 17.5q12 0 22.5 -10t16.5 -23.5t9 -29t3 -25.5q0 -49 -22.5 -90t-50 -80t-50 -79 t-22.5 -87q0 -16 4 -28.5t4 -28.5q0 -6 -10.5 -17.5t-24.5 -25t-26.5 -27.5t-18.5 -27q0 -18 3 -54t-3 -52q-49 -35 -71.5 -98.5t-41 -139t-43 -156.5t-78.5 -149q-10 -14 -27.5 -31.5t-35.5 -17.5l-8 4q-23 35 -41.5 53.5t-63.5 18.5q-53 0 -87 -34t-34 -87 q0 -31 13.5 -57.5t35 -46t49 -30.5t58.5 -11q27 0 52.5 7t46 16t36 17.5t25.5 8.5q14 0 21.5 -9.5t14.5 -21.5t15 -21.5t23 -9.5q25 0 46 24.5t38 41.5q8 4 12 4t18.5 -9t36 -21.5t47 -21.5t54.5 -9q72 0 124 34.5t52 114.5q0 45 -34 83t-81 38q-29 0 -49.5 -13.5 t-35.5 -28.5t-24.5 -28.5t-11.5 -13.5h-2q-31 10 -46 53t-15 72v2q10 31 19 60.5t24 58.5q12 25 17 34t9 15t8.5 12t14.5 23q8 14 16 34.5t19.5 39t25 30.5t31.5 12q96 0 176 -49q66 41 135.5 45t143.5 4q16 0 27.5 -2t17.5 -20q12 -33 28.5 -73t31.5 -81t26.5 -82t11.5 -73 q0 -8 -1 -24.5t-4 -33t-9.5 -29t-18.5 -12.5q-6 0 -15 10.5t-22.5 21.5t-31 21.5t-39.5 10.5q-51 0 -88 -35t-37 -86q0 -6 2 -12t12 -6q-8 -8 -8 -19q0 -27 14.5 -48.5t36 -36.5t47 -23.5t47.5 -8.5q104 0 168 59.5t96 151.5l13 11v2zM1464 690q-39 0 -78.5 35t-71.5 83 t-52.5 100.5t-20.5 86.5q0 29 13.5 49.5t43.5 20.5q31 0 68 -34t70.5 -80t56.5 -93t23 -74v-55q0 -16 -19 -27.5t-33 -11.5zM893 844h-10q-20 -12 -42 -23.5t-46 -11.5q-10 0 -18.5 1t-8.5 13q0 14 4 27.5t4 26.5q0 16 -6 29.5t-6 29.5q0 12 11 22.5t24.5 22.5t26 26.5 t16.5 30.5q6 37 12 78t14.5 82t21.5 80t36 72l14 8q6 0 13.5 -8.5t13.5 -19.5t11 -21.5t7 -16.5l62 -168q4 -16 4 -24q0 -14 -12.5 -22.5t-28 -19.5t-27.5 -31.5t-12 -61.5q0 -29 14 -48.5t31.5 -34t32 -22.5t14.5 -14q0 -23 -13.5 -32t-33.5 -9q-53 0 -80 19.5t-43 19.5z " />
<glyph unicode="b" horiz-adv-x="1798" d="M414 162l8 -6q2 -12 10 -38t19.5 -51.5t27 -45t31.5 -19.5q20 0 35.5 28.5t27 66.5t17.5 75t6 51l10 8q6 0 15.5 -12t18.5 -27.5t18.5 -31t15.5 -21.5q61 -72 148 -104.5t179 -32.5q43 0 105.5 10.5t101.5 32.5q16 0 19.5 -14.5t19.5 -14.5h10q6 2 30 12.5t51.5 21.5 t49 20.5t25.5 9.5q16 0 27.5 -9.5t27.5 -9.5q59 0 114.5 41t98.5 100.5t69 128t26 122.5q0 154 -73 260t-210 170l-4 6q0 8 40 29.5t86 63.5t85 107.5t39 161.5q0 47 -21.5 108.5t-58.5 116t-86 92.5t-103 38h-22q-6 -8 -16 -9q-18 0 -41 10.5t-48.5 22.5t-54 22.5 t-57.5 10.5q-18 -10 -28.5 -15.5t-24.5 -5.5q-47 18 -96.5 26.5t-98.5 8.5q-119 0 -208 -43t-152 -147h-11q-2 16 -8 51t-18.5 69.5t-28.5 60.5t-41 26q-14 0 -28.5 -18.5t-25.5 -44t-19.5 -50.5t-10.5 -37l-8 -8q-10 2 -18.5 13.5t-10.5 21.5q-47 66 -123 94 q-18 -2 -36.5 3t-36.5 5q-66 0 -115 -34.5t-49 -106.5q0 -53 31.5 -89t87.5 -36q33 0 56 15.5t44 37.5q14 0 21.5 -26.5t10.5 -59.5t2 -64.5t-1 -39.5v-78q0 -41 -6 -76q-2 -12 -20.5 -16t-41 -12.5t-41 -22.5t-20.5 -45q-2 -10 -1 -21.5t1 -21.5q0 -27 14 -47.5t31 -38.5 v-14q-25 -25 -37 -46.5t-12 -58.5q0 -53 31.5 -78.5t78.5 -36.5l17 -18v-320q0 -6 -2.5 -19t-5.5 -26.5t-8 -24.5t-13 -11l-2 2q-18 8 -26.5 18t-17.5 18.5t-22.5 14.5t-44.5 6q-47 0 -83 -36t-36 -83q0 -72 50.5 -112.5t117.5 -40.5q78 0 124 34.5t89 96.5zM737 489v70 q0 37 4 72q2 14 22.5 19t45.5 16.5t45 36t25 77.5l12 13q76 0 149.5 -18.5t131 -57.5t92 -100.5t34.5 -149.5q0 -57 -21.5 -113.5t-59 -100.5t-90 -71.5t-113.5 -27.5q-84 0 -138.5 24.5t-85 68.5t-42 105t-11.5 137zM418 881v53q0 18 7 42.5t19.5 46t31 37t40.5 15.5 q31 0 51.5 -23.5t30.5 -56t14 -68.5t4 -59t-5 -54.5t-17 -61t-32.5 -51t-49.5 -21.5q-33 0 -51.5 22.5t-27.5 54t-12 66.5t-3 58zM760 1094l-10 14v125q0 68 10 121t36.5 92t75 59.5t123.5 20.5q127 0 199 -74t72 -201q0 -72 -27 -128t-72 -95t-105.5 -59.5t-127.5 -20.5 q-29 0 -40 10.5t-17.5 25.5t-9.5 33.5t-13 35t-31.5 28t-62.5 13.5z" />
<glyph unicode="c" horiz-adv-x="1662" d="M725 55q12 -18 57 -32.5t98.5 -23.5t103.5 -13t73 -4q49 0 97 15t88 32.5t65.5 33t31.5 15.5q10 0 14.5 -10.5t6.5 -22.5t6 -22.5t14 -10.5q14 0 24.5 10.5t20 22.5t19.5 22.5t24 10.5h7q14 -10 27.5 -22.5t31.5 -12.5q16 0 34.5 37t34 85t25.5 92t10 60q0 63 -9 127 t-34.5 115t-73.5 84t-128 33q-82 0 -136.5 -54.5t-54.5 -136.5q0 -39 15.5 -66.5t33 -48t32.5 -33.5t15 -26q0 -43 -28.5 -76.5t-70.5 -56t-89 -34t-82 -11.5q-109 0 -180.5 39t-114.5 103.5t-61.5 150.5t-18.5 180q0 33 21.5 43t46 19.5t46 29t21.5 70.5q0 35 -17 57.5 t-34 48.5q2 12 10.5 20.5t17.5 20t16 27.5t7 43q0 35 -15 63.5t-50 43.5q-8 -2 -13 1t-14 3l-41 -2q2 90 24.5 173t68 145.5t117 100t171.5 37.5q29 0 72 -10t83 -29.5t68.5 -48t28.5 -65.5q0 -14 -12 -23.5t-26.5 -25t-27 -41t-12.5 -70.5q0 -84 55.5 -132t135.5 -48 q61 0 104 27.5t68.5 71.5t38 97.5t12.5 106.5q0 14 -5 58t-14.5 89t-24.5 81t-34 36q-4 0 -25.5 -12.5t-27.5 -16.5q-16 0 -25.5 9.5t-17.5 21.5t-15.5 21.5t-21.5 9.5q-12 0 -19.5 -9.5t-11.5 -21.5t-10 -21.5t-18 -9.5q-4 0 -27.5 13.5t-52.5 29t-52.5 29.5t-25.5 16 l-8 -4q-41 0 -82 10.5t-82 10.5q-72 0 -141.5 -18.5t-137.5 -43.5q-8 0 -10 5.5t-4 10.5t-5 10t-11 5q-12 0 -37 -8t-50.5 -20.5t-48 -24.5t-32.5 -21q-16 0 -26.5 8.5t-26.5 8.5q-49 0 -94.5 -33t-84.5 -79t-66.5 -96t-41.5 -87q-4 -12 -11.5 -44t-15.5 -65.5t-17 -63.5 t-20 -36q-59 -6 -86.5 -31.5t-27.5 -85.5q0 -18 7 -34.5t16 -29t17.5 -21.5t8.5 -15q0 -12 -8.5 -20.5t-18.5 -20.5t-18 -30.5t-8 -51.5q0 -41 18 -61.5t42 -30.5t43 -15.5t22 -15.5q6 -25 7 -53.5t5 -52.5q18 -113 63 -210.5t131 -174.5q23 -18 51.5 -40t59.5 -22 q12 0 22.5 8.5t22.5 8.5q16 -8 39.5 -22.5t49.5 -29t51.5 -24.5t43.5 -10q14 0 15.5 16t13.5 16zM299 825v47q0 27 4 63t16.5 67.5t35 53t59.5 21.5q27 0 46 -19.5t31.5 -47t18.5 -58t6 -51.5q0 -27 -4 -64.5t-16.5 -72.5t-34 -59.5t-58.5 -24.5q-25 0 -43 15.5t-32.5 37 t-21.5 47t-7 45.5z" />
<glyph unicode="d" horiz-adv-x="2045" d="M436 152q2 -12 11.5 -39t21.5 -52.5t26.5 -45t30.5 -19.5q20 0 37 27.5t29 63.5t19 71t7 51l9 4q2 0 13 -14.5t25.5 -31.5t27 -33.5t18.5 -22.5q76 -66 149.5 -90.5t173.5 -24.5q43 0 85 11t80 24.5t68.5 25t51.5 11.5q8 0 11 -14.5t7 -18.5l13 -2q41 0 84 25.5t77 43.5 q16 0 29.5 -4t28.5 -4q29 0 61.5 18.5t52.5 37.5q68 59 107 113t60.5 111.5t30.5 123t17 147.5l11 19q45 8 79.5 34.5t34.5 75.5q0 25 -8 44.5t-18 34.5t-18.5 24.5t-8.5 13.5q0 8 7.5 15t16.5 17.5t17 28t8 45.5q0 55 -34.5 81t-83.5 36q-14 10 -15 27q0 18 -4 35 q-12 68 -32.5 130t-55.5 121q-6 10 -14 19.5t-13 21.5q-18 20 -42.5 45t-52 46.5t-57.5 36t-61 14.5q-10 0 -20 -6.5t-21 -6.5q-8 0 -28.5 12.5t-47 27t-54 26.5t-52.5 12q-10 0 -13 -5t-4 -12t-4 -12.5t-12 -5.5l-75 31l-26 5t-59.5 10.5t-66.5 10.5t-47 5q-23 0 -46.5 -4 t-45.5 -4q-49 0 -95 -18.5t-87 -49.5t-74 -68.5t-58 -76.5l-8 -4q-6 0 -10 13t-7 30.5t-4 35t-3 23.5q-4 10 -12.5 29.5t-18.5 38t-23.5 33t-25.5 14.5q-20 0 -33.5 -24.5t-24 -55.5t-18.5 -55.5t-14 -24.5q-16 6 -30.5 28.5t-39 47t-61.5 43t-95 18.5q-31 0 -61.5 -10 t-54 -28.5t-39 -45t-15.5 -59.5q0 -59 32 -94t91 -35q35 0 56.5 14t46.5 37q12 0 19 -9t10.5 -23.5t4.5 -29t1 -22.5v-252q-20 -25 -52 -24l-6 2q-29 -18 -49 -44t-20 -63q0 -31 17 -57.5t40 -46.5v-11q-31 -29 -42 -54t-11 -66q0 -33 19.5 -51.5t43 -30t43 -16.5t21.5 -11 q2 -8 3 -47t2 -85t1 -89v-53q0 -8 1 -30t-1 -44.5t-9.5 -39.5t-21.5 -17q-10 0 -15 8t-14.5 17t-27 17.5t-47.5 8.5q-53 0 -88 -35t-35 -88q0 -35 14 -62.5t39 -47t55.5 -30t63.5 -10.5q16 0 31.5 3t31.5 1q59 25 90 56.5t68 85.5zM743 514q0 10 -1 31.5t0 44t5.5 41 t12.5 24.5q55 6 84.5 32t29.5 85q0 31 -5 44t-13 21.5t-17.5 15.5t-17.5 24v2v2q23 23 39.5 47t16.5 57q0 94 -93 117l-8 -4q-10 0 -20.5 7t-10.5 19v154q0 131 81 202.5t208 71.5q78 0 144.5 -35.5t115.5 -93t77 -130t28 -148.5q0 -29 -19.5 -37t-42 -17.5t-42 -29 t-19.5 -68.5q0 -31 13.5 -56.5t35.5 -47.5q0 -14 -8 -21.5t-17.5 -16.5t-16.5 -26.5t-7 -52.5q0 -49 20.5 -69.5t44 -29.5t44 -16.5t20.5 -29.5q0 -86 -23.5 -171t-70.5 -154t-118 -112t-167 -43q-84 0 -138 31t-87 82t-45.5 116.5t-12.5 137.5zM891 188h-2v-2v-2h2v0 q2 0 2 2t-2 2v0zM459 709q2 10 -6.5 21t-12.5 22q-14 33 -18 63.5t-4 65.5q0 20 4 54t14 64.5t29.5 53t48.5 22.5q31 0 50.5 -22.5t31.5 -53t16 -64.5t4 -56q0 -25 -4 -60t-16 -65.5t-32.5 -53t-53.5 -22.5q-16 0 -28.5 10.5t-22.5 20.5zM1542 891q0 25 4 58.5t16.5 63 t33 50t55.5 20.5q29 0 49 -20.5t32.5 -49t18.5 -59t6 -53.5q0 -29 -4 -64.5t-15.5 -68.5t-34 -55.5t-58.5 -22.5q-33 0 -53.5 22.5t-31 54.5t-14.5 65.5t-4 58.5z" />
<glyph unicode="e" horiz-adv-x="1675" d="M416 145q4 0 9 -10t9 -22.5t8 -24.5t7 -16q20 -43 53 -76q29 0 46 29.5t28.5 68.5t16.5 78t7 59l10 9h2q10 -6 24.5 -30t20.5 -34q25 -35 61 -66.5t79 -56t89 -39t89 -14.5q51 0 92 2t79 8t77 19.5t86 36.5q10 4 22 13t25 9q10 0 15 -13.5t9 -30.5t9.5 -30.5t15.5 -13.5 q14 0 25.5 11.5t20.5 25.5t19.5 25.5t22.5 11.5l8 -2l41 -37l17 -4l10 4q47 70 65.5 158t18.5 172q0 104 -41 184t-146 110l-4 5l-26 2q-86 6 -148.5 -42.5t-62.5 -142.5q0 -47 13 -73.5t29.5 -43t30 -27.5t13.5 -26q0 -41 -28 -71.5t-67.5 -51t-85 -31t-77.5 -10.5h-37 q-92 14 -147.5 50t-86 89.5t-40 120t-9.5 142.5v45q0 25 4 47q2 6 15.5 11t32 11.5t38 16.5t29.5 29q10 16 13 36.5t5 38.5l17 13h67l9 -15q0 -35 2 -67.5t12 -57t34.5 -40t71.5 -15.5q66 0 105 43t39 107q0 27 -8.5 47t-17.5 35.5t-17 27.5t-8 21q0 8 8 19t17 26.5t17.5 35 t8.5 44.5q0 41 -25.5 75.5t-58.5 57.5q-16 4 -32.5 7t-33.5 3q-25 0 -47 -9t-45 -22q-8 -14 -19.5 -33.5t-11.5 -35.5q0 -20 4.5 -41t4.5 -41q0 -12 -10.5 -14.5t-18.5 -2.5h-51l-17 13q0 51 -20.5 76.5t-46 38t-47 18.5t-23.5 22q-2 18 -1 39t1 39q0 168 72.5 254t251.5 86 q37 0 77.5 -6t76.5 -22.5t59.5 -45t23.5 -75.5q0 -2 -9 -11.5t-21.5 -25t-21.5 -38t-9 -52.5q0 -41 15.5 -64.5t27.5 -56.5q70 -57 155 -58q51 0 90 26t66 65.5t41 87t14 92.5q0 16 -6 66t-16 104.5t-26.5 96.5t-35.5 42q-16 0 -31.5 -15.5t-25.5 -27.5q-18 0 -28.5 10 t-17.5 22.5t-15.5 23t-22.5 10.5q-16 0 -22.5 -12.5t-10.5 -28t-10 -27.5t-22 -12h-9q-66 33 -127 54t-139 21h-67q-31 0 -62 -3t-63.5 -11t-71.5 -22q-47 -18 -73.5 -40t-45 -45.5t-37 -48t-45.5 -47.5h-6l-14 13q0 16 -7.5 50t-18.5 67.5t-28.5 58t-37.5 24.5t-35 -24.5 t-24 -53t-16 -53t-15 -24.5q-23 23 -40.5 48t-39 46.5t-53 36t-83.5 14.5q-31 0 -61.5 -9t-55 -27.5t-39 -45t-14.5 -61.5q0 -16 6.5 -38t16.5 -41.5t26.5 -32.5t34.5 -13h68q12 0 21.5 8t17.5 19.5t16.5 19.5t16.5 8l6 -2q16 -29 20 -60.5t4 -62.5q0 -20 1 -57t-1 -74 t-6 -67.5t-12 -36.5q-51 -4 -83 -33t-32 -82q0 -31 16.5 -56.5t39.5 -45.5q0 -12 -8.5 -22.5t-17.5 -22t-17.5 -25.5t-8.5 -37q0 -43 17.5 -65.5t40 -35t44 -17.5t29.5 -15q-2 -47 1.5 -92t3.5 -92q0 -12 1 -50t-1 -78t-9.5 -71t-21.5 -31q-10 0 -20.5 14.5t-14.5 20.5 q-16 10 -36.5 17.5t-41.5 7.5q-49 0 -79.5 -37t-30.5 -84q0 -70 49 -111t114 -41q61 0 99.5 21.5t63 46t39 46t24.5 21.5zM401 883q0 25 4.5 56.5t15.5 61t31.5 49t53.5 19.5q27 0 46 -22.5t30.5 -54t16.5 -64.5t5 -54q0 -23 -4 -56.5t-15.5 -65t-30.5 -55t-48 -23.5 q-33 0 -53.5 23.5t-31.5 56t-15.5 68.5t-4.5 61z" />
<glyph unicode="f" horiz-adv-x="1656" d="M416 152h2q8 -6 16 -31t18.5 -52.5t23.5 -49t34 -21.5q23 0 37 23.5t24.5 53t17.5 53.5t15 24h4q31 -29 50.5 -54.5t40 -44t50 -30t82.5 -11.5q66 0 116 38t50 110q0 55 -35.5 94t-93.5 39q-25 0 -53.5 -18.5t-42.5 -36.5q-12 0 -19.5 22.5t-9.5 52t-2 56.5v32v113 q0 57 4 113q2 23 21.5 27.5t44.5 14t45.5 33t22.5 82.5l12 11h63l13 -13q0 -16 -4.5 -32.5t-4.5 -32.5q0 -49 37 -85t86 -36q59 0 104.5 40t45.5 101q0 25 -6 42.5t-14.5 32.5t-17.5 30.5t-13 34.5q2 8 10 18t17.5 24.5t16.5 34t7 47.5q0 66 -47 108t-113 42 q-43 0 -80 -30.5t-37 -76.5q0 -16 4.5 -34.5t4.5 -34.5t-9.5 -18.5t-23.5 -2.5q-35 0 -45.5 17.5t-16.5 41t-18 48t-51 37.5q-16 6 -35 9t-19 28v53q0 88 9.5 151.5t40 105.5t88 62.5t153.5 20.5q33 0 71 -3t74 -14.5t63.5 -32t43.5 -57.5q0 -18 -11 -30.5t-25.5 -26.5 t-26 -34.5t-11.5 -55.5q0 -86 49.5 -139.5t137.5 -53.5q68 0 113 28t71.5 73t37.5 101t11 114q0 20 -7 65t-19.5 89t-27.5 78t-32 34q-12 0 -19 -7t-13.5 -14.5t-13.5 -14.5t-17 -7q-8 0 -16.5 10t-18.5 23.5t-21.5 24t-23.5 10.5q-6 0 -14 -5l-35 -71q-8 -4 -13 -4h-6 q-72 39 -150.5 61.5t-162.5 22.5q-35 0 -73 -7.5t-72 -11.5q-53 -6 -87 -22.5t-62 -40t-53.5 -51t-60.5 -58.5h-2l-14 19l-14 73q-20 29 -26.5 54.5t-39.5 48.5q-27 0 -43 -23.5t-26.5 -53.5t-17.5 -53.5t-15 -23.5q-4 0 -13.5 10.5t-19.5 23.5t-20.5 26.5t-16.5 17.5 q-35 27 -75 42t-85 15q-63 0 -113 -40t-50 -107q0 -55 35.5 -92t91.5 -37l22 2q20 10 39.5 21.5t36.5 27.5q14 0 21.5 -19.5t9.5 -44t1 -48t-1 -33.5q0 -45 3 -96.5t-8 -94.5q-4 -14 -23.5 -18t-43 -12.5t-41.5 -27t-18 -61.5q0 -33 14 -60.5t37 -49.5q0 -18 -8.5 -29.5 t-17.5 -22t-17 -25.5t-8 -40q0 -43 20 -64.5t45 -34t45.5 -20.5t20.5 -24v-281q0 -6 -1 -23.5t-4.5 -37t-8.5 -33.5t-13 -14q-4 0 -12 4q-23 23 -39.5 37t-50.5 12q-10 -4 -33 -6t-44.5 -13.5t-38 -34t-16.5 -65.5q0 -70 51.5 -113t116.5 -43q72 0 127.5 35t90.5 96z M418 829v50q0 53 13 108t63 86l18 2q29 0 47.5 -20.5t29.5 -50t15 -61.5t4 -52q0 -23 -3 -58.5t-13 -69.5t-29.5 -58.5t-52.5 -24.5q-23 0 -40 16.5t-28.5 40t-17.5 49t-6 43.5z" />
<glyph unicode="g" d="M743 51q8 0 35 -11t64 -23.5t81 -23.5t91 -11q43 0 91 11t88 25.5t67 25.5l28 11q14 0 16.5 -14t12.5 -14h26l127 65q10 0 21.5 -4t21.5 -4q25 0 48 16q55 39 90 93.5t53 116t24.5 128t6.5 127.5q0 25 -2 47.5t8 44.5q25 0 44 -10t42 -10q53 0 90 36t37 89 q0 72 -49.5 111.5t-116.5 39.5q-72 0 -111 -28.5t-86 -75.5q-10 0 -18 19.5t-18.5 44t-23.5 44t-36 19.5h-10q-20 -16 -30.5 -33.5t-17.5 -33t-13.5 -30t-16.5 -22.5h-2q-29 14 -44 31.5t-31.5 33t-41 26t-71.5 10.5q-74 0 -122 -40t-48 -118q0 -43 30.5 -85t77.5 -42 q25 0 48.5 7t45.5 17h6l13 -8v-233q0 -119 -66.5 -199t-189.5 -80q-94 0 -161 42t-109 109.5t-61 150.5t-19 165q0 35 20 44t44 16.5t44.5 26t20.5 73.5q0 27 -8.5 44t-17.5 29.5t-16.5 20.5t-7.5 16v5q23 23 38.5 48t15.5 58q0 53 -38 81t-85 34l-10 16q0 92 25.5 171 t74.5 137.5t122.5 92t170.5 33.5q27 0 74 -8t91 -25.5t76.5 -43t32.5 -62.5l-4 -10q-35 -35 -54.5 -63.5t-19.5 -80.5q0 -37 16.5 -70.5t42 -58t60.5 -39t72 -14.5q61 0 104 25.5t71 65.5t40 91.5t12 104.5q0 16 -5 61t-15.5 92.5t-25.5 84t-36 36.5q-16 0 -28.5 -13 t-28.5 -13q-12 0 -19.5 9t-13.5 21.5t-13 21.5t-22 9q-12 0 -20 -9t-14.5 -19.5t-14.5 -19.5t-20 -9q-4 0 -17.5 6t-29 13t-28.5 14.5t-20 11.5q-59 29 -120.5 38t-126.5 9q-47 0 -93.5 -5t-91.5 -15q-27 -6 -65.5 -26t-61.5 -20h-2l-18 27h-27q-10 0 -30.5 -8t-43 -20.5 t-43 -24.5t-28.5 -19l-12 -2q-14 0 -24.5 8.5t-25.5 8.5q-35 0 -73.5 -27t-74.5 -64.5t-64.5 -78.5t-43.5 -70q-31 -61 -47 -122.5t-32 -129.5v-4q-10 -12 -31 -17t-43.5 -15.5t-39 -30t-16.5 -60.5t17.5 -61.5t36.5 -50.5v-2v-3q-23 -23 -36 -47t-13 -59q0 -51 17 -71.5 t40.5 -30t44 -15.5t27.5 -28q10 -31 10 -66t8 -68q27 -115 83 -213t155 -165q16 -10 35.5 -20.5t39.5 -10.5q14 0 23.5 10t23.5 10q18 0 35 -15t33 -24q27 -12 53.5 -23t53.5 -22q20 0 23 17.5t13 17.5zM299 848q0 27 3 65.5t14.5 73.5t33 60.5t58.5 25.5q31 0 50 -23.5 t30.5 -56t15.5 -67.5t4 -58q0 -59 -14.5 -108t-65.5 -84h-22q-29 0 -49.5 18.5t-33 44t-18.5 55t-6 54.5z" />
<glyph unicode="h" horiz-adv-x="2125" d="M1528 143q2 -12 10 -37.5t18.5 -52t24.5 -46t31 -19.5l22 12l31 41q4 6 9 21.5t10.5 33t11.5 31.5t10 14q25 -29 47.5 -53.5t47 -42.5t55 -28.5t71.5 -10.5q72 0 122 35t50 113q0 53 -33.5 91t-89.5 38q-35 0 -59.5 -14.5t-46.5 -37.5q-6 2 -11.5 10.5t-7.5 18.5t-3 20.5 t-1 16.5v305q0 31 21.5 40t46 17.5t46 28t21.5 72.5q0 23 -6 37t-15 25.5t-17.5 21.5t-12.5 24q2 12 9.5 20.5t15.5 19t15 25.5t7 40q0 45 -20.5 68.5t-45 36t-45 19.5t-20.5 23v252q0 6 1 16.5t4 21.5t7.5 19.5t12.5 8.5h6q20 -23 45 -38.5t55 -15.5q59 0 92 41t33 97 q0 37 -16 64.5t-43 44t-59.5 24.5t-65.5 8q-72 0 -121 -43t-94 -92q-4 0 -11 25.5t-17.5 54t-26 53.5t-35.5 25h-6q-33 -29 -50.5 -69t-25.5 -81l-10 -4q-29 31 -51.5 55.5t-48 42t-56.5 25.5t-76 8q-31 0 -59.5 -10.5t-51 -28.5t-36 -44t-13.5 -58q0 -53 32 -94.5t89 -41.5 q27 0 46.5 8.5t31.5 19.5t20.5 19.5t14.5 8.5q8 0 12 -13.5t6 -31t3 -33.5t1 -23q0 -59 -3 -115.5t-1 -115.5q-4 -8 -16 -13t-29.5 -11.5t-35 -14.5t-29.5 -22q-10 -12 -13.5 -30t-6.5 -33t-12 -26.5t-30 -11.5q-35 0 -59.5 9.5t-40.5 19.5t-27.5 19.5t-19.5 9.5h-8 q-27 -35 -68 -46.5t-82 -11.5q-10 0 -22 4q-6 6 -7.5 21.5t-6.5 34t-15 38t-33 33.5q-8 6 -21.5 8.5t-26.5 5.5t-22.5 10t-9.5 21v244q0 18 4.5 40t16.5 38h2q12 -6 20.5 -15.5t18.5 -18.5t26.5 -16t44.5 -7q53 0 86 36.5t33 90.5q0 84 -52 117.5t-128 33.5q-41 0 -69.5 -10 t-52 -28.5t-45 -42t-46.5 -50.5q-8 12 -16.5 37.5t-19.5 51.5t-26.5 45.5t-33.5 19.5q-16 0 -29.5 -18.5t-24 -43t-18.5 -48.5t-10 -36l-6 -8h-2q-33 29 -52.5 53.5t-41 42t-50 26.5t-80.5 9q-63 0 -116.5 -38t-53.5 -107q0 -53 35 -92t88 -39q37 0 60.5 14t46.5 41 q8 0 14 -10.5t8 -23.5t3 -27.5t1 -20.5v-223q0 -33 -20 -44.5t-45 -20.5t-45.5 -29.5t-20.5 -71.5q0 -18 8.5 -34.5t17.5 -30t17.5 -23.5t8.5 -19v-4q-25 -20 -38.5 -41.5t-13.5 -54.5q0 -47 19.5 -70.5t43 -35t44 -16.5t24.5 -13q0 -53 2.5 -107.5t2.5 -107.5v-39 q0 -29 -2.5 -60.5t-7.5 -57t-17 -25.5h-4q-23 23 -48.5 40t-58.5 17q-57 0 -87.5 -39t-30.5 -92q0 -68 50 -110t115 -42q53 0 101.5 21.5t83.5 62.5q6 8 19.5 30.5t23.5 22.5q2 0 5 -7t3 -9q4 -14 11 -36.5t17.5 -45t24 -39t31.5 -16.5q20 0 35.5 23.5t26 51t17.5 52 t15 26.5l8 -4q37 -59 89.5 -96t123.5 -37q31 0 62 9.5t55.5 26.5t39.5 44t15 62q0 57 -35.5 97t-95.5 40q-31 0 -55.5 -17.5t-42.5 -40.5q-12 0 -18.5 18.5t-8.5 42t-1 46t1 31.5q0 68 1 134t3 134l9 6q37 6 68.5 20.5t45.5 53.5q2 6 2 16q0 12 2 24.5t6.5 21.5t12.5 9 q35 0 65.5 -8t53 -18t36 -18.5t17.5 -8.5h6q59 53 139 53h25l16 -10q4 -35 17.5 -70.5t50.5 -52.5q4 -2 15 -4t22.5 -5t19.5 -7t8 -10q0 -63 2 -126t2 -126q0 -37 -3 -70t-13 -67l-10 -9h-4q-25 27 -49.5 42.5t-63.5 15.5q-47 0 -82 -39t-35 -86q0 -39 15.5 -68.5t41 -50 t58.5 -32t70 -11.5q49 0 85 22.5t62.5 49t43 49t22.5 22.5zM414 856q0 25 3 59.5t14 67.5t30.5 56.5t52.5 23.5q27 0 44 -21.5t27.5 -51t14.5 -61.5t4 -50q0 -23 -4 -58t-15.5 -67.5t-29.5 -56t-49 -23.5q-27 0 -44.5 20.5t-28.5 50t-15 60.5t-4 51zM1520 870q0 20 3 54 t13 65t28.5 53.5t49.5 22.5t49 -20.5t28.5 -50t14.5 -61.5t4 -54q0 -18 -4 -53t-13.5 -69t-26.5 -58.5t-44 -24.5q-35 0 -55.5 21.5t-30.5 52t-13 64t-3 58.5z" />
<glyph unicode="i" horiz-adv-x="1011" d="M410 143l12 -10q2 -8 9 -31.5t18.5 -48t24.5 -43t28 -18.5q23 0 38 24.5t24 54t16.5 54.5t15.5 25q4 0 12 -10.5t17.5 -25t18.5 -26.5t13 -16q39 -33 75 -49.5t87 -16.5q63 0 116.5 37t53.5 107q0 49 -34.5 91t-86.5 42q-27 0 -44 -8.5t-29.5 -17.5t-21.5 -17.5t-17 -8.5 l-15 17q-2 14 -5 30.5t-3 30.5v258q0 12 2 40t15 34q20 10 40.5 17.5t37 18.5t26.5 28.5t10 48.5q0 33 -15 59.5t-36 48.5v10q23 23 37 45.5t14 55.5q0 51 -33.5 79.5t-80.5 37.5q-10 8 -14.5 25.5t-4.5 35.5t1 36.5t1 29.5v45t1 71.5t7.5 66.5t18.5 30h4q23 -23 46.5 -34.5 t55.5 -11.5q53 0 88 34t35 87q0 31 -12 58.5t-31.5 49t-46.5 34t-57 12.5q-72 0 -114 -19.5t-67.5 -44t-39 -45t-25.5 -22.5l-4 2q-2 12 -10.5 36.5t-20.5 49t-26.5 43t-28.5 18.5q-20 0 -35.5 -23.5t-26 -51t-18.5 -51t-14 -23.5q-23 27 -45.5 51.5t-47 42.5t-54 29.5 t-68.5 11.5q-66 0 -119 -38t-53 -109q0 -33 15 -59.5t38 -49.5q16 -6 34.5 -11t34.5 -5q31 0 46.5 8t24.5 17t15.5 17.5t18.5 8.5q10 0 15 -19.5t7 -44t2 -47.5v-26q0 -12 1.5 -46t-1 -71t-6.5 -66.5t-14 -31.5q-23 -6 -42 -12.5t-34.5 -16.5t-25 -27.5t-9.5 -46.5 q0 -23 5.5 -36t13.5 -25.5t17 -24.5t16 -29q0 -10 -8.5 -19t-18.5 -21.5t-18.5 -31t-8.5 -46.5q0 -43 20.5 -61.5t44 -29t44 -20.5t20.5 -37v-291q0 -4 -1 -18t-4 -28.5t-8 -26t-11 -11.5h-6q-20 23 -43 39.5t-54 16.5q-53 0 -89 -35t-36 -88q0 -43 24 -79t60 -58 q12 -8 26.5 -9.5t27.5 -7.5q61 0 113.5 14.5t93.5 63.5q10 14 19.5 29.5t25.5 25.5zM410 870q0 23 4 55.5t14 62.5t28.5 51.5t49.5 21.5q20 0 36.5 -14.5t29 -36t18.5 -44t6 -40.5v-111q0 -18 -7 -42.5t-19.5 -48.5t-30 -39t-39.5 -15q-29 0 -47.5 23.5t-27.5 56t-12 66.5 t-3 54z" />
<glyph unicode="j" horiz-adv-x="1587" d="M311 102q4 0 29 -15t63.5 -34.5t90 -35t108.5 -15.5q35 0 73 9t71.5 19.5t57 19.5t30.5 9q6 0 8 -6t3 -13t5 -13.5t16 -6.5q33 0 62.5 15.5t56.5 32.5q16 0 27.5 -6.5t25.5 -6.5q63 0 110.5 52.5t78 126t45 151.5t14.5 127v27q0 20 1 40.5t4 37t12 22.5q49 8 83.5 37 t34.5 82q0 20 -7 36.5t-16 30t-16.5 23.5t-7.5 16v4q23 23 38 46.5t15 54.5q0 49 -20.5 70.5t-44 31.5t-44 19.5t-20.5 35.5q0 72 -1 150t16 147q2 6 5 13.5t11 7.5t14.5 -9.5t16.5 -21.5t29.5 -21.5t54.5 -9.5q51 0 86 38t35 87q0 39 -16.5 68t-42 48t-59.5 28.5t-69 9.5 q-66 0 -118 -38t-89 -89l-6 -2l-4 2q-10 35 -23.5 68.5t-33.5 66.5l-27 19q-16 0 -31.5 -18.5t-27.5 -44.5t-20.5 -51.5t-12.5 -39.5l-8 4q-25 29 -46.5 54.5t-47 45t-56 30.5t-71.5 11q-31 0 -60.5 -11t-53.5 -30.5t-39 -46t-15 -59.5q0 -53 35.5 -94t91.5 -41 q33 0 56.5 17.5t45.5 39.5l4 2q8 -2 12.5 -14t5.5 -27.5t1 -30.5v-20q0 -16 1 -58t-1 -87t-7.5 -81t-19.5 -38q-55 -10 -85 -31.5t-30 -85.5q0 -20 8.5 -38.5t19.5 -33t20 -22.5l8 -8q0 -2 -2 -4.5t-2 -4.5q-18 -20 -38 -41.5t-20 -50.5q0 -76 64 -108q2 -2 13 -6t23.5 -9.5 t22.5 -10.5t10 -7v-29q0 -66 -2 -143.5t-21.5 -145t-66.5 -113.5t-139 -46q-37 0 -78 12t-76.5 35.5t-58.5 57.5t-23 77q0 12 16.5 23.5t35 29t35 46t16.5 75.5q0 41 -17.5 76t-46 61.5t-65.5 41t-76 14.5q-63 0 -108.5 -30t-74 -76t-42 -102.5t-13.5 -109.5 q0 -18 8.5 -67.5t23 -99.5t34.5 -90t43 -40q16 0 25.5 14.5t25.5 14.5h4q10 -12 35 -39t41 -31q10 0 16.5 7.5t10.5 16.5t9 16t15 7zM969 866q0 25 3 58.5t13 64.5t29.5 52.5t52.5 21.5q29 0 47.5 -22.5t27.5 -53.5t12 -63.5t3 -53.5q0 -23 -5 -55.5t-17.5 -62t-32 -51 t-47.5 -21.5q-29 0 -46.5 21.5t-26.5 51t-11 61.5t-2 52z" />
<glyph unicode="k" horiz-adv-x="2058" d="M428 143q2 -12 10 -37.5t20.5 -51t27 -45t30.5 -19.5t30.5 19.5t25 45t17.5 52t11 38.5l8 9q31 -25 48.5 -50.5t38 -45t52 -33t89.5 -13.5q63 0 114 38t51 106q0 57 -24.5 83.5t-71.5 51.5l-2 4q-27 -2 -42 -3t-27.5 -6t-24.5 -16.5t-33 -31.5l-10 -5l-12 23 q-2 16 -5.5 34.5t-3.5 35.5v297q0 18 12.5 25t29 10.5t35 8.5t30.5 21q16 20 21.5 42t9.5 46l8 15l16 2q57 0 103.5 -34t83 -86t66.5 -119t54.5 -132.5t47 -123.5t45.5 -95q14 -23 38.5 -51.5t53 -53t60.5 -42t61 -17.5q14 0 26.5 6t26.5 6h8q6 -4 17.5 -10t23.5 -12 t24.5 -11.5t18.5 -5.5q10 0 14 8.5t6.5 17.5t5.5 17t13 8q37 -18 75 -34.5t81 -16.5q31 0 62.5 10.5t57 29t41 45t15.5 61.5q0 53 -38 95t-91 42q-29 0 -47.5 -12.5t-33 -25.5t-23.5 -25.5t-15 -12.5q-10 0 -25.5 28.5t-33 71.5t-35 95.5t-31.5 99.5t-24.5 82t-14.5 47 q-18 53 -62 98t-87 80q-6 4 -21.5 14.5t-13.5 20.5q18 23 42.5 39t52.5 34.5t57.5 44t58.5 66.5q57 82 86.5 176.5t64.5 186.5l21 18h4q20 -10 37.5 -16t40.5 -6q51 0 87 35.5t36 87.5q0 72 -54.5 113.5t-122.5 41.5q-27 0 -51 -12t-46.5 -29.5t-44 -37t-40.5 -35.5h-2l-6 4 q-10 35 -26.5 68.5t-45.5 56.5q-25 0 -42 -18.5t-29.5 -44t-24.5 -52.5t-29 -41q-16 20 -33.5 46t-39 46.5t-47 34.5t-56.5 14l-8 -4l-4 4q-61 0 -110.5 -44t-49.5 -107q0 -53 35 -90t88 -37q14 0 25.5 3t20.5 2t14.5 -8t5.5 -26q0 -117 -67 -217t-167 -156h-8 q-41 -16 -77 -27.5t-81 -11.5q-20 0 -22 13q-10 33 -17.5 55.5t-19.5 37.5t-33.5 25.5t-58.5 18.5l-9 16q-4 39 -4 76v76v37t3.5 58.5t8.5 53t15 23.5q8 0 17.5 -8t22.5 -18.5t30.5 -18.5t40.5 -8q47 0 82.5 37.5t35.5 85.5q0 68 -47 109.5t-112 41.5q-10 0 -28.5 -3t-38 -6 t-35 -6t-17.5 -3l-31 -21h-4l-76 -86l-4 -2l-10 12q-4 12 -12.5 35t-20.5 45.5t-26.5 40t-28.5 17.5q-16 0 -29.5 -16.5t-25 -40t-17.5 -46t-8 -35.5q-4 -4 -7 -6t-7 -6q-12 4 -26.5 25.5t-39 46t-64.5 44t-102 19.5q-29 0 -57.5 -11t-51 -30.5t-37 -45t-14.5 -56.5 q0 -55 35 -96t92 -41q33 0 49.5 8t25.5 19.5t15.5 19.5t18.5 8q10 -10 15 -47t7.5 -80t2.5 -84v-59q0 -61 -19.5 -75.5t-44 -21t-44 -21.5t-19.5 -75q0 -23 6 -37t14 -25.5t17.5 -22.5t15.5 -30q-16 -29 -36.5 -46t-20.5 -56q0 -55 34.5 -81.5t83.5 -37.5l13 -14v-340 q0 -14 -5.5 -33.5t-17.5 -27.5h-4q-20 23 -46 40t-58 17q-53 0 -87 -36t-34 -89q0 -76 51 -117t123 -41q57 0 93 19.5t59.5 44t38 46t26.5 28.5zM422 874q0 20 3 55.5t13.5 67t28.5 55t47 23.5t47.5 -24.5t28.5 -57t14 -67.5t4 -56q0 -23 -4 -55.5t-15 -63t-30.5 -53 t-50.5 -22.5q-29 0 -45.5 23.5t-25.5 55t-12 65.5t-3 54zM903 788h-2v-2h2v2z" />
<glyph unicode="l" horiz-adv-x="1597" d="M422 147q2 -12 10 -37.5t19.5 -50t26 -43t32.5 -18.5q20 0 35.5 28.5t28 63.5t18.5 67.5t8 39.5l10 16l2 -2q25 -25 48.5 -53.5t41.5 -57.5q61 -49 137 -71.5t154 -22.5q72 0 138.5 20.5t128.5 55.5q4 2 10 0t10 -4q4 -23 7 -45.5t26 -30.5l16 4q4 4 14.5 15.5t20.5 22.5 t20.5 19.5t16.5 8.5q12 0 19 -7.5t13.5 -16.5t13.5 -16t19 -7q20 0 40 47t35 109.5t24.5 126t9.5 95.5q0 53 -14.5 108.5t-45 99.5t-75.5 73t-107 29q-86 0 -139 -57.5t-53 -141.5q0 -45 14 -70.5t30.5 -42t31 -26.5t14.5 -25l-2 -2l-2 -18q-18 -39 -38 -71t-44.5 -53.5 t-58 -32.5t-82.5 -11q-53 0 -100.5 14t-83.5 43t-57.5 72t-21.5 100v240q0 16 17 26q51 10 82.5 34t31.5 81q0 33 -14 56.5t-37 45.5v13q20 18 36.5 43.5t16.5 54.5q0 72 -69 105q-4 2 -14.5 5t-21.5 8t-19.5 9t-8.5 8v254q0 6 1 18.5t4.5 26t7.5 23.5t12 10t16.5 -8 t19.5 -17.5t28.5 -17.5t46.5 -8q55 0 87.5 40t32.5 93q0 37 -17 64.5t-45 45t-60.5 25.5t-65.5 8h-33q-31 -18 -48 -27.5t-27.5 -14.5t-16.5 -9t-15.5 -13t-23.5 -24.5t-41 -42.5q-8 2 -16 25.5t-19.5 52.5t-27 52.5t-35.5 23.5q-4 0 -12 -4q-33 -33 -42.5 -72t-35.5 -74 q-25 27 -47.5 51.5t-47 43t-54 30t-66.5 11.5q-68 0 -122 -41t-54 -113q0 -49 34.5 -88t85.5 -39q27 0 40.5 5t22.5 13.5t18.5 17.5t27.5 17l2 2q12 -2 16 -19.5t4 -27.5v-283q0 -6 -9 -11t-21.5 -10t-23.5 -9t-17 -6q-55 -29 -55 -101q0 -29 13 -52t34 -42 q0 -16 -7.5 -27.5t-16.5 -23.5t-16 -27.5t-7 -36.5q0 -47 17 -69.5t39.5 -33.5t43 -17.5t26.5 -16.5q0 -53 2.5 -107.5t2.5 -107.5v-41t-3.5 -58.5t-9.5 -54t-18 -28.5q-12 2 -18.5 10t-16.5 17.5t-29.5 17.5t-56.5 8q-53 0 -81 -43t-28 -90q0 -35 15.5 -62.5t41 -46 t57.5 -27.5t63 -9q76 0 122 31.5t87 90.5l8 5zM418 883q0 23 4 56.5t14 65t29.5 54t50.5 22.5q27 0 45.5 -21.5t28.5 -51t14 -61.5t4 -52q0 -51 -8 -95t-41 -85h-10q0 -16 -14.5 -23.5t-28.5 -7.5q-29 0 -46.5 23.5t-26.5 56.5t-12 67t-3 52z" />
<glyph unicode="m" horiz-adv-x="2668" d="M2064 133q6 0 15.5 -22.5t20.5 -50t25.5 -50t31.5 -22.5q16 0 30.5 18.5t24.5 43t18 50t13 37.5l6 4l16 -8q37 -63 87 -97t122 -34q70 0 120 39t50 113q0 53 -39 89t-90 36q-31 0 -53.5 -16.5t-44.5 -35.5l-7 -2q-10 2 -15 22.5t-7 45t-2 47.5v33q0 59 1 118.5t3 118.5 q0 18 20.5 26.5t45 20t45 31t20.5 62.5q0 29 -5 43t-12 23t-16.5 18.5t-17.5 27.5v2v2q8 16 17.5 26.5t17.5 21t12 22.5t4 35q0 49 -19.5 70.5t-44 30.5t-44 13.5t-19.5 20.5v274q0 10 3 23.5t5 23.5l15 15l12 -4l23.5 -23.5t19.5 -15.5t22.5 -8t32.5 -2q53 0 86 35.5 t33 86.5q0 66 -50 107t-114 41q-53 0 -93 -20.5t-67.5 -45t-44 -46t-24.5 -21.5l-8 4l-12.5 37.5t-19.5 50t-26.5 43t-29.5 18.5h-7q-37 -33 -52 -78t-27 -90l-13 -12q-12 8 -21 22.5t-20 26.5q-51 68 -116.5 91.5t-147.5 23.5q-29 0 -50.5 -7t-47.5 -11 q-35 -23 -61.5 -49.5t-26.5 -73.5q0 -43 26.5 -69t63.5 -42q4 -8 4 -14q0 -45 -19.5 -86t-43 -81t-43 -81t-19.5 -86q0 -18 6 -36.5t6 -37.5q0 -10 -12 -20.5t-26.5 -22.5t-27 -28.5t-12.5 -40.5q0 -23 9.5 -40.5t9.5 -35.5l-2 -13q-23 -20 -44.5 -44.5t-25.5 -57.5 q-10 -74 -17 -147.5t-24 -145.5l-14 -16l-6 4q-14 23 -26.5 56.5t-22 69.5t-18.5 71.5t-17 62.5q-4 12 9 22.5t30.5 23.5t33 32.5t15.5 48.5q0 39 -13.5 60.5t-28.5 33.5t-28.5 19.5t-13.5 19.5v2q8 16 14 33.5t6 36.5q0 41 -22.5 69.5t-59.5 44.5q-29 -4 -54 -3t-36 34 l-88 281q-2 4 -1 15t1 16q6 10 19.5 17t27 17.5t23.5 25.5t10 44q0 61 -43 95t-100 34q-49 0 -77 -33t-50 -69l-8 -5q-4 0 -14.5 12.5t-21.5 28t-21.5 29.5t-12.5 19q-12 10 -27.5 24t-31.5 14q-12 0 -21.5 -12t-15.5 -28.5t-8 -34t-2 -25.5q0 -23 2 -44t2 -44l-7 -4h-2 q-43 33 -76.5 62.5t-69.5 52t-79 37t-102 20.5q-53 2 -108.5 -5t-100.5 -26.5t-73 -57.5t-28 -97q0 -55 39 -91t93 -36q57 0 88 47q2 2 5 11t8 18.5t9 16.5t6 7q12 0 21.5 -15.5t15.5 -37t9 -42t3 -28.5q0 -31 -7 -61.5t-15 -59t-15.5 -59.5t-7.5 -62q0 -23 7.5 -42 t14.5 -34.5t14 -25.5t7 -12q0 -6 -21.5 -35t-21.5 -70q0 -27 19.5 -48t19.5 -40q0 -16 -19.5 -47t-19.5 -78q0 -53 12.5 -113.5t22.5 -113.5q2 -14 -1 -48t-10 -69t-19.5 -61.5t-28.5 -26.5h-2q-23 23 -49.5 42.5t-61.5 19.5q-51 0 -80.5 -39t-29.5 -86q0 -61 42 -104.5 t105 -43.5q35 0 68.5 9.5t66.5 25.5q14 0 23.5 -8t17.5 -18.5t17.5 -18.5t23.5 -8t22.5 9t16.5 19.5t16.5 19.5t20.5 9h10q27 -23 57.5 -31t63.5 -8q61 0 107.5 37t46.5 103q0 53 -34 86.5t-87 33.5q-35 0 -56.5 -14t-44.5 -39q-20 0 -31.5 20.5t-17.5 48t-7 55.5t-1 40 q0 68 13.5 133.5t13.5 132.5q0 47 -17.5 74t-17.5 43q0 12 6 20.5t13 18.5t13.5 26.5t6.5 40.5q0 39 -19.5 61.5t-19.5 39.5v6q35 55 35 121q0 49 -15.5 98t-15.5 96q0 6 -1 27.5t0 44t4 41t11 18.5q25 0 53.5 -42t54 -97t42 -108.5t16.5 -73.5q0 -14 -13 -23.5t-30.5 -22 t-31 -31.5t-13.5 -54q0 -29 12.5 -49.5t25.5 -34t25.5 -23.5t12.5 -18q0 -20 -9.5 -39t-9.5 -39q0 -43 31 -80t76 -37q23 0 42 4t30 -26l114 -375q4 -12 -8 -19.5t-29.5 -18.5t-32 -30.5t-14.5 -56.5q0 -53 38 -90t91 -37q41 0 64.5 19.5t38 44t22.5 46t17 25.5 q16 -12 28.5 -30.5t24.5 -38t27.5 -37t35.5 -25.5q16 0 22.5 17.5t10.5 39t8 40t17 18.5h6q41 -43 84 -77t106 -34q53 0 90 36t37 89q0 33 -13 50.5t-28.5 28.5t-29 21.5t-13.5 30.5q0 57 20.5 110.5t44 102.5t44 98.5t20.5 98.5q0 16 -2 31.5t-2 31.5q0 14 11.5 25.5 t23.5 24t23.5 30t11.5 45.5q0 20 -8 37t-8 37v8q45 35 62 91.5t26.5 121t18.5 130t38 118.5q6 12 17.5 29.5t27.5 17.5q12 0 22.5 -16.5t17.5 -38t11 -42t4 -30.5v-217q0 -14 -20.5 -19.5t-45 -14.5t-45 -31.5t-20.5 -69.5q0 -33 15.5 -55.5t33.5 -47.5v-10 q-49 -41 -49 -106q0 -47 32 -78t79 -33q16 -12 16 -24v-310q0 -6 -1 -19t-4 -27.5t-8 -26t-13 -11.5h-5q-23 23 -49 37.5t-59 14.5h-23q-18 -14 -34.5 -22.5t-28.5 -20t-19.5 -29t-7.5 -47.5q0 -78 48.5 -116t121.5 -38q55 0 92 19.5t61.5 44t39 44t24.5 19.5zM2062 854 q0 20 4.5 56t15.5 71t30.5 59.5t48.5 24.5q31 0 50 -21.5t29.5 -52t13.5 -64.5t3 -57q0 -41 -6 -90t-37 -80h-2q-10 -12 -22.5 -23t-30.5 -11q-27 0 -45.5 21.5t-29.5 52t-16.5 62.5t-5.5 52zM834 985q0 27 9 53.5t42 26.5q37 0 71.5 -35t61 -83t43 -100t16.5 -87 q0 -29 -8 -55.5t-45 -26.5h-18q-35 20 -67 56t-55.5 78t-36.5 87t-13 86z" />
<glyph unicode="n" horiz-adv-x="2115" d="M1331 121q8 2 24.5 -18.5t38 -46t47 -47t56.5 -21.5q12 0 18.5 17.5t9.5 39t3 41.5v29q4 0 5 1t5 1h2q29 -25 50.5 -45.5t44 -34.5t49 -22.5t63.5 -8.5q53 0 97 31t44 90q0 47 -14 66.5t-32.5 32t-33 29.5t-14.5 64q0 86 18.5 170t18.5 158q0 27 -6 45.5t-13.5 31.5 t-13.5 22.5t-6 19.5v8q16 18 28.5 39t12.5 47q0 29 -12.5 51.5t-28.5 44.5v13q8 10 24.5 35.5t16.5 35.5q0 78 -18.5 154t-18.5 154q0 10 4 31.5t12.5 42t19.5 36t26 15.5q8 -4 17 -17.5t21.5 -29t29 -26.5t40.5 -11q55 0 91 35.5t36 91.5q0 41 -16.5 69.5t-43 46 t-60.5 24.5t-68 7q-39 0 -60.5 -15.5t-46.5 -15.5q-14 0 -22.5 9.5t-16.5 19.5t-16 19.5t-23 9.5q-14 0 -24 -9.5t-18.5 -19.5t-18.5 -19.5t-25 -9.5h-6q-39 20 -62.5 25.5t-66.5 5.5q-31 -4 -60.5 -12.5t-52 -23.5t-36 -39.5t-13.5 -63.5q0 -51 31 -91t84 -40q35 0 56.5 13 t33.5 30.5t19.5 31t13.5 13.5q12 0 23.5 -12.5t20.5 -29t14 -32.5t5 -27q0 -84 -15 -149.5t-15 -126.5q0 -53 19.5 -84t19.5 -51v-8q-16 -18 -29.5 -40t-13.5 -49q0 -29 13 -53t30 -45q0 -4 -6.5 -16.5t-15.5 -29.5t-16 -37.5t-7 -41.5q0 -72 20 -143.5t20 -143.5v-14 t-1 -21.5t-4 -20.5t-9 -9h-4q-10 8 -28.5 38t-41 67.5t-44 81.5t-40 82t-29.5 64.5t-11 31.5v10q25 23 44 47t19 59q0 39 -16.5 61.5t-37 35t-37 18.5t-16.5 16q0 14 4.5 27.5t4.5 28.5q0 47 -29 82.5t-78 35.5q-16 0 -29.5 -6t-29.5 -6q-8 0 -24.5 23.5t-38 60.5t-44 81 t-42 85t-32 72.5t-12.5 42.5q0 10 10.5 19t22.5 21.5t22.5 30t10.5 41.5q0 53 -40 88t-93 35q-41 0 -68 -19.5t-43 -42t-26.5 -42t-16.5 -19.5t-22.5 22.5t-39 48.5t-51 48.5t-59.5 22.5q-12 0 -18.5 -11.5t-8.5 -26t-1 -28.5t1 -20v-33q0 -14 5 -31l-11 -14h-6 q-41 31 -76.5 56.5t-74.5 44t-82 29.5t-97 11q-41 0 -85 -9t-78.5 -29.5t-57 -54.5t-22.5 -83q0 -53 35.5 -89t89.5 -36q23 0 47 8t39 29q8 12 12 35.5t22 23.5q14 0 24.5 -14t17 -32.5t9.5 -38t3 -29.5q0 -63 -14.5 -131t-24.5 -130q-4 -18 2 -36.5t14 -35t15.5 -30.5 t7.5 -22v-9q-14 -16 -26.5 -36.5t-12.5 -43.5q0 -29 13 -51t30 -45v-16q-43 -49 -43 -109q0 -72 18.5 -144.5t18.5 -146.5q0 -16 -3 -43.5t-10.5 -55t-21.5 -48t-35 -20.5q-18 14 -24.5 29.5t-15.5 28.5t-24.5 21.5t-52.5 8.5q-53 0 -87 -35t-34 -88q0 -72 53.5 -113 t121.5 -41q35 0 66.5 12.5t64.5 22.5l12 -4q14 -14 30.5 -27.5t39.5 -13.5q14 0 24 6t19.5 14.5t18.5 14.5t22 6q25 0 49 -15.5t45 -15.5q37 0 74.5 5t68.5 20.5t49.5 45t18.5 77.5q0 16 -8.5 38.5t-20.5 42t-28.5 34t-34.5 14.5h-70q-16 -8 -29.5 -22.5t-25 -28 t-19.5 -22.5t-10 -9q-18 0 -31.5 21.5t-22 49t-11.5 55t-3 42.5l-2 4q0 55 17.5 114.5t17.5 114.5q0 51 -6 78t-13.5 42t-13.5 23.5t-6 22.5q0 16 21.5 37.5t21.5 52.5q0 35 -21.5 62.5t-21.5 44.5l2 8q23 25 32 52.5t9 61.5q0 61 -19.5 121t-19.5 121q0 14 1 34.5t22 20.5 q10 0 21.5 -9t21.5 -22.5t18 -26.5t13 -21l114 -234q0 -8 -10 -17.5t-22.5 -22.5t-22.5 -31.5t-10 -43.5q0 -37 16 -60.5t35.5 -36.5t36 -21.5t16.5 -14.5q0 -16 -4 -29.5t-4 -29.5q0 -51 32.5 -84t84.5 -33q16 0 29.5 4t29.5 8l10 -8l207 -411q-4 -4 -15 -15.5t-22.5 -25 t-19.5 -24.5t-8 -15q0 -68 28.5 -111t104.5 -43q55 0 85.5 32t53.5 79zM1161 690q-37 0 -82 37t-85 88t-66.5 106.5t-26.5 90.5q0 20 9.5 36.5t31.5 16.5q35 0 81 -39t86 -92t67.5 -108.5t27.5 -88.5q0 -20 -10 -33.5t-33 -13.5z" />
<glyph unicode="o" horiz-adv-x="2000" d="M727 49q14 0 44 -10t69 -22.5t83 -22.5t89 -10q49 0 95 11t83 23.5t62.5 23.5t31.5 11t8 -4t3 -10t5.5 -10t14.5 -4q27 0 53.5 12t50 27.5t42 28.5t26.5 13q10 0 18 -6t15 -14q51 0 95 28.5t81 75t65.5 104.5t48 117.5t29.5 116t10 97.5q0 27 20.5 34t44 15t44 27.5 t20.5 70.5q0 23 -9 40t-19.5 31.5t-19.5 24t-9 17.5v4q25 23 39 46t14 58q0 43 -17.5 65.5t-39 32t-42 13.5t-26.5 10q-2 2 -6 21.5t-8 44t-9 48t-7 29.5q-12 43 -40 101.5t-67 114t-87 96.5t-97 45q-10 -2 -24.5 -10.5t-24.5 -12.5h-13q-12 8 -34.5 21.5t-47 28t-47 24.5 t-34.5 10q-10 0 -13.5 -6t-5.5 -13t-4 -13.5t-10 -6.5q-12 0 -36 14.5t-34 20.5q-18 10 -44 16.5t-54.5 10.5t-56 6t-48.5 2q-72 0 -139 -18.5t-131 -51.5q-14 0 -20.5 4.5t-8.5 9.5t-4 9t-10 4q-23 0 -46.5 -10.5t-46 -24.5t-44 -29.5t-41.5 -23.5q-14 0 -22.5 10t-22.5 10 q-43 0 -84 -30.5t-78 -74.5t-64.5 -92t-41.5 -83q-23 -53 -29 -102.5t-17 -102.5q-4 -16 -23.5 -22.5t-43 -16.5t-42 -31.5t-18.5 -68.5q0 -35 18.5 -56.5t35.5 -48.5v-2q-4 -14 -12.5 -24.5t-16.5 -21.5t-14 -25.5t-6 -38.5q0 -53 35.5 -79t82.5 -34q8 -6 14.5 -30.5 t9.5 -54.5t5 -56.5t4 -38.5q4 -39 34 -104.5t73 -128t93 -107.5t95 -45q20 0 30.5 9t26.5 9h9l84 -45q23 -2 39 -16.5t47 -14.5h8zM1001 131q-94 0 -159.5 43t-107.5 109.5t-61.5 149.5t-19.5 163q0 33 20.5 45t45 21.5t45 27t20.5 62.5q0 25 -8 44t-17 32.5t-17.5 23.5 t-8.5 16l2 9q23 23 34 47t11 57q0 49 -20.5 69.5t-45 28.5t-45 13.5t-20.5 25.5q0 80 21.5 158t64.5 139.5t108.5 99t155.5 37.5q88 0 154 -34.5t109 -93t63.5 -133t20.5 -154.5q0 -25 -19.5 -34t-44.5 -18.5t-44 -30t-19 -67.5q0 -20 8 -36.5t17 -31t17.5 -24.5t8.5 -18 q0 -10 -7.5 -17.5t-16.5 -18t-16 -26.5t-7 -47q0 -29 10 -56.5t39 -41.5q6 -4 19.5 -6t25.5 -6.5t22.5 -10.5t10.5 -14q0 -86 -14.5 -176t-52.5 -162t-107 -118t-175 -46zM299 872q0 25 4 59t15.5 64.5t32 52t50.5 21.5q33 0 53.5 -21.5t33 -52t17.5 -64.5t5 -59 q0 -27 -3 -62.5t-14.5 -68t-33 -55t-56.5 -22.5t-55 23.5t-30.5 56t-14.5 68t-4 60.5zM1493 881q0 25 4 58.5t16.5 66t33 55t52.5 22.5q31 0 50.5 -22.5t32 -53t17.5 -64.5t5 -56q0 -23 -4 -59.5t-15.5 -70.5t-32 -58.5t-50.5 -24.5h-13q-35 18 -54 38.5t-28.5 46 t-11.5 55.5t-2 67z" />
<glyph unicode="p" horiz-adv-x="1736" d="M418 160l6 -4q2 -10 9 -35t17.5 -51.5t24.5 -47t33 -20.5q16 0 29.5 19.5t24.5 46t17.5 50t10.5 34.5l10 8l8 -4q39 -63 88 -101.5t127 -38.5q66 0 114 41t48 111q0 49 -35 83t-84 34q-25 0 -41 -8.5t-28.5 -17.5t-21.5 -16t-15 -7q-14 0 -18.5 17t-4.5 28v202q0 41 1 80 t3 80l19 16l39 3q14 8 28.5 13t28.5 15q33 0 63.5 -8t63.5 -8q66 0 135 26h12l23 -22q39 0 77 11t68.5 25.5t52 26t25.5 11.5q16 0 27.5 -8.5t28.5 -8.5q20 0 39.5 9.5t35.5 21.5q98 76 152.5 184.5t54.5 231.5q0 14 -3 40.5t-8 54.5t-11 53.5t-13 37.5q-16 31 -40.5 73 t-57.5 80t-70.5 63.5t-76.5 25.5q-16 0 -27.5 -10.5t-28.5 -10.5q-35 16 -72.5 43t-76.5 27h-15q-4 -8 -7 -16.5t-11 -14.5q-12 0 -36.5 8.5t-55.5 18.5t-64.5 18t-64.5 8q-104 0 -169 -30.5t-103.5 -68.5t-57 -69.5t-29.5 -33.5q-8 0 -17 33.5t-21.5 73.5t-30 74t-37.5 34 q-18 -6 -31.5 -32t-24 -55.5t-18.5 -52t-16 -22.5h-6q-37 55 -87.5 98t-121.5 43q-33 0 -63.5 -9t-55.5 -27.5t-39 -46t-14 -62.5q0 -47 33.5 -86t83.5 -39q35 0 59 17.5t47 39.5h4l12 -8q12 -23 14.5 -64.5t2.5 -70.5q0 -51 -2 -102.5t-2 -102.5q-6 -16 -26.5 -19 t-44.5 -9.5t-42 -26t-18 -64.5q0 -25 5 -39t12 -24t16.5 -20.5t17.5 -28.5q0 -12 -8.5 -20.5l-17.5 -17.5t-17 -19.5t-8 -22.5q0 -70 21.5 -100.5t92.5 -41.5q4 -4 8.5 -10t4.5 -10v-211v-43t-2.5 -62.5t-10.5 -57t-22 -25.5h-4q-41 53 -101 53q-51 0 -86 -36t-35 -87 q0 -35 14.5 -62.5t39 -47t56.5 -30t65 -10.5q57 0 88.5 16.5t52 40t37 47.5t45.5 36zM512 1079q27 0 46.5 -21.5t32.5 -51t19 -61.5t6 -52q0 -23 -4 -59.5t-16 -71.5t-32.5 -59.5t-51.5 -24.5q-23 0 -40 15.5t-29.5 37t-18.5 46t-6 42.5v119q0 18 6 42t18.5 46.5t29.5 37.5 t40 15zM821 874v3q6 16 14.5 26t17.5 20.5t15 25t6 38.5q0 51 -34.5 74.5t-81.5 28.5l-13 16q-2 29 -3 59.5t-1 59.5q0 55 10.5 109.5t37 98.5t69.5 71.5t109 27.5q72 0 125 -29.5t86.5 -78t50 -111t16.5 -125.5q0 -61 -16.5 -126t-51 -118t-87 -88t-121.5 -35q-12 0 -37 3 t-49.5 9.5t-43 16.5t-18.5 24z" />
<glyph unicode="q" horiz-adv-x="2101" d="M711 61q66 -41 139.5 -60t148.5 -19q39 0 83 9t81 19t60.5 19.5t25.5 9.5q8 0 12.5 -5t6.5 -10.5t5 -10.5t11 -5q20 0 47 11.5t51.5 25.5t44 25.5t29.5 11.5q16 0 25.5 -10.5t25.5 -10.5q25 0 45.5 10.5t42.5 20.5q18 0 45 -16.5t61 -34.5t78 -34.5t99 -16.5q37 0 73 10 t64.5 31.5t46 51.5t17.5 71q0 61 -37 105t-103 44q-39 0 -63.5 -19.5t-36.5 -54.5q0 -4 -3 -15t-6 -22.5t-7 -20.5t-8 -9q-8 0 -22.5 5t-29 14t-24.5 18.5t-10 19.5l2 10q12 37 26.5 66t27.5 57.5t25.5 61t22.5 75.5q-4 20 1 40t7 40.5t3 30.5t5 15.5t14.5 6.5t30.5 5 q41 6 62.5 36.5t21.5 69.5q0 27 -7 44.5t-15 27.5t-17.5 18t-11.5 21q6 14 15.5 24.5t19.5 20.5t17.5 25.5t7.5 39.5q0 41 -16.5 62.5t-38 33t-42 15.5t-26.5 12q-2 2 -7.5 25.5t-10.5 52.5t-10 54.5t-7 35.5q-10 27 -18.5 59.5t-22.5 57t-39 63.5t-56.5 76t-65.5 63.5 t-66 26.5q-16 0 -28.5 -9t-29.5 -9h-10q-29 29 -64.5 48t-72.5 36l-4 4h-31l-4 -4l-10 -27h-17q-61 41 -133 58.5t-143 17.5q-29 0 -62.5 -4t-67.5 -11.5t-66 -19.5t-54 -26q-12 0 -17.5 5t-8.5 12t-7 12t-12 5q-25 0 -47.5 -11t-46 -25.5t-45 -30t-41.5 -21.5 q-10 -4 -25.5 9.5t-30.5 13.5q-43 0 -91 -38t-90 -91t-73.5 -109.5t-40.5 -93.5q-2 -10 -7 -34.5t-12 -52.5t-13 -50.5t-13 -26.5q-49 -4 -72.5 -19.5t-41.5 -60.5v-65q0 -12 7 -21.5t15 -17.5t15.5 -17.5t7.5 -21.5v-6q-20 -18 -37 -41t-17 -51q0 -49 18.5 -74t42 -36 t43 -17t21.5 -21l21 -172q4 -41 31.5 -105.5t68.5 -126t89 -105.5t96 -44q16 0 27 8.5t28 8.5q8 0 29.5 -13.5t46 -30t50 -29.5t44.5 -13q8 0 11 5t5 12t5 12t10 5h4zM645 571v43t17 39q49 10 83.5 35t34.5 80q0 31 -12 55.5t-31 46.5q0 18 8.5 28.5t17.5 21t17 26t8 43.5 q0 68 -61 98q-4 2 -13 5.5t-20.5 7.5t-19.5 7t-8 7q0 88 20.5 167t65.5 139.5t113.5 95t164.5 34.5q86 0 147.5 -36.5t101.5 -95t58.5 -133.5t18.5 -148v-33l-13 -21q-47 -2 -83.5 -26.5t-36.5 -77.5q0 -35 14 -61.5t35 -53.5q-2 -12 -11.5 -20t-18.5 -18.5t-16 -27 t-7 -46.5q0 -59 29.5 -83t80.5 -38q12 -16 12 -39v-19q0 -10 -2 -21t-6 -20.5t-12 -9.5q-47 18 -77 38t-59.5 35t-66.5 25.5t-98 10.5q-72 0 -125 -42t-53 -120q0 -57 35.5 -97t95.5 -40q55 0 81.5 32.5t30.5 86.5l5 8q16 0 50 -13.5t66.5 -32t57 -40t24.5 -37.5 q0 -10 -5 -20.5t-11 -20.5q-53 -78 -116.5 -120t-160.5 -42q-94 0 -160.5 37t-108.5 98.5t-61.5 140t-19.5 162.5zM1497 842q0 25 4 60.5t15.5 69.5t32 58.5t53.5 24.5q23 0 42 -14.5t32.5 -36t20.5 -46t7 -45.5v-47q0 -27 -4 -62.5t-15.5 -69.5t-33 -57.5t-56.5 -23.5 q-33 0 -52 20.5t-29.5 50.5t-13.5 61.5t-3 56.5zM299 874q0 25 5 62t17.5 71.5t34 59.5t54.5 25t53 -21.5t31.5 -53.5t15.5 -65.5t4 -58.5t-5 -60.5t-18.5 -68.5t-35 -56.5t-54.5 -23.5q-31 0 -50 21.5t-30.5 51t-16.5 62t-5 55.5z" />
<glyph unicode="r" d="M416 143q8 0 16 -24.5t19.5 -53t26 -52t36.5 -23.5q14 0 26.5 18.5t23.5 43t19.5 48t12.5 33.5q0 2 3 8t5 6q10 0 24.5 -22.5t39 -49t60.5 -49t91 -22.5q70 0 124 38t54 114q0 53 -37.5 91t-91.5 38q-33 0 -53 -14.5t-43 -37.5q-12 0 -18 11.5t-7.5 27t-1.5 29.5v25 q0 72 -2 152.5t11 148.5q2 12 19.5 16t39 11.5t40.5 23.5t30 51q6 23 6 39q0 18 31 18q74 0 123 -31.5t82.5 -84t55 -119t38 -134t32 -130t39.5 -107.5q14 -27 35 -55.5t46.5 -51t56 -38t63.5 -15.5q14 0 25.5 6.5t23.5 6.5l10 -2q16 -12 39 -24.5t45 -12.5q8 0 10.5 5 t4.5 12t4 12.5t10 5.5q27 0 50.5 -17.5t49.5 -17.5q35 0 70 5t61.5 20.5t43 43t16.5 70.5q0 55 -33 93t-90 38q-31 0 -53.5 -14t-44.5 -35q-14 0 -24.5 40t-19 90t-14.5 99.5t-8 67.5q-8 53 -25.5 92t-42 73t-55.5 64.5t-63 67.5v4q10 18 29.5 21.5t35.5 13.5 q117 59 175.5 168.5t58.5 238.5q0 43 -21.5 102.5t-58.5 112t-83 89t-95 36.5q-14 0 -25.5 -6t-26.5 -6h-8q-41 25 -86 47.5t-94 22.5q-12 0 -16 -11.5t-17 -11.5q-12 0 -31.5 11.5t-27.5 11.5h-6q-20 4 -48 11t-49 7q-80 0 -141 -5t-113.5 -25.5t-98.5 -58.5t-95 -105h-6 l-10 4q-2 16 -8.5 52t-17.5 71.5t-28.5 63.5t-40.5 28l-8 -2q-35 -27 -49 -67t-27 -81l-10 -8h-2q-29 31 -48 56.5t-42 43t-52.5 27.5t-74.5 10q-72 0 -122 -33.5t-50 -111.5q0 -55 36 -92t91 -37q25 0 39 6t23.5 15.5t17.5 19.5t22 16h2h2q10 -12 14.5 -35.5t5.5 -51.5 t0 -54.5t-1 -42.5q0 -35 1 -76t-5 -76q-4 -18 -24.5 -23t-43 -14.5t-42 -29t-19.5 -64.5q0 -59 49 -104v-17q-27 -23 -40 -44t-13 -58q0 -53 34.5 -81t83.5 -38l7 -14v-305q0 -6 -1 -22.5t-4.5 -33t-8.5 -29t-15 -12.5q-29 29 -47.5 43.5t-61.5 14.5q-45 0 -85 -31t-40 -78 q0 -70 46.5 -118t117.5 -48q45 0 76 8.5t56.5 25t48 39.5t51.5 54zM424 877q0 20 5 53t17.5 63.5t31 53t44.5 22.5q31 0 49.5 -23.5t28.5 -55.5t13 -66.5t3 -55.5q0 -20 -4 -53t-15 -63.5t-29.5 -53t-45.5 -22.5q-29 0 -48 23.5t-30.5 55t-15.5 65.5t-4 57zM891 958 q-2 14 -3 30t-5 28q-16 47 -68 65q-6 2 -30.5 8.5t-24.5 14.5v76q0 68 9 129t35.5 108t76 75t129.5 28q57 0 111.5 -16.5t95 -49.5t65.5 -81t25 -111q0 -78 -30 -136.5t-79 -97.5t-114.5 -58.5t-137.5 -19.5h-45z" />
<glyph unicode="s" horiz-adv-x="1527" d="M289 104q2 0 19.5 -10t39 -22.5t41 -23.5t25.5 -13q61 -31 142 -42t149 -11q80 0 157.5 12t151.5 41q27 0 31 -11.5t20 -11.5q20 0 35.5 10.5t31 22.5t32 22.5t34.5 10.5q10 0 21.5 -4t21.5 -4q39 0 78 28.5t71.5 68.5t56 85t36.5 78q14 41 18 83t4 83q0 98 -34.5 179 t-94 146.5t-136.5 114.5t-163 84q-8 4 -20.5 8t-12.5 14q0 29 -5 57.5t-17 51.5t-34.5 36t-57.5 13q-23 0 -40.5 -8t-37.5 -16q-12 0 -24.5 12t-28 27.5t-35 28.5t-49.5 13q-31 0 -49.5 -12t-31.5 -26.5t-22.5 -26.5t-21.5 -12q-27 0 -50.5 16t-42 40t-28.5 51.5t-10 51.5 q0 61 34.5 101.5t86 64t111 33.5t106.5 10q49 0 100 -5t97 -20.5t83 -45t62 -78.5l-4 -17q-61 -51 -62 -125q0 -72 49 -121t121 -49q57 0 98 25t67 63.5t37 88t11 100.5q0 20 -6 65.5t-16.5 89.5t-24.5 77.5t-33 33.5q-16 0 -24.5 -13t-24.5 -13q-10 0 -28.5 24.5 t-26.5 32.5l-6 2q-14 0 -21.5 -11.5t-12.5 -24.5t-11.5 -24.5t-20.5 -11.5q-12 0 -23.5 7.5t-19.5 17.5q-90 47 -170 65.5t-180 18.5q-53 0 -92 -5t-74 -12.5t-72 -17.5t-84 -23h-2l-28 27q-23 0 -46.5 -12t-45 -26.5t-39 -27t-27.5 -12.5q-8 0 -19.5 3t-19.5 5 q-55 -8 -97 -49t-71 -96t-43 -115.5t-14 -107.5q0 -96 32.5 -175t89 -142.5t130 -112.5t155.5 -86l13 -13q0 -25 2 -51t11 -48.5t27.5 -37t53.5 -14.5q27 0 51.5 9t48.5 9q8 0 17.5 -13t23.5 -28.5t34.5 -29t49.5 -13.5q47 0 72.5 22.5t46.5 61.5l12 4q25 8 54.5 -10t56 -48 t45 -65.5t18.5 -62.5q0 -70 -34.5 -117t-87 -75.5t-116 -41t-120.5 -12.5q-41 0 -80 2t-80 7q-23 14 -50.5 26t-54 25.5t-49 31t-34.5 46.5v12v12q35 33 56.5 64.5t21.5 83.5q0 37 -16.5 69.5t-42 56t-59.5 37t-71 13.5q-57 0 -101 -22.5t-75 -61.5t-47.5 -88t-16.5 -103 q0 -16 4.5 -61t13.5 -93t22.5 -86t31.5 -38q16 0 31.5 8t30.5 18q12 0 20 -12t16.5 -26.5t16.5 -26.5t24 -12q12 0 18.5 12t11.5 27.5t10.5 28.5t17.5 13zM547 918q0 20 13 31.5t32.5 17.5t41 7t36.5 1q27 0 72.5 -10.5t90 -28.5t76 -46t31.5 -63q0 -20 -12.5 -32.5 t-30.5 -19.5t-38.5 -9t-35.5 -2q-31 0 -77 9t-91 28.5t-76.5 48.5t-31.5 68z" />
<glyph unicode="t" horiz-adv-x="1841" d="M809 131q2 -12 9 -37.5t18.5 -50.5t24.5 -43t32 -18q14 0 28.5 17t25.5 40.5t19.5 47.5t10.5 36l12 8q14 -4 25.5 -26.5t35 -47t65.5 -45t116 -20.5q63 0 107 46t44 109q0 49 -36.5 88t-85.5 39q-31 0 -55.5 -14t-47.5 -35q-12 0 -18 12.5t-7.5 28t-1.5 31.5v25 q0 76 1.5 150.5t11.5 150.5q6 10 26.5 15t44 15.5t41 33t17.5 67.5q0 20 -5 33.5t-12.5 23.5t-15.5 21.5t-14 27.5q0 8 8 18.5t17.5 20.5t17.5 22.5t8 28.5q0 68 -26.5 97.5t-92.5 44.5q-10 10 -10 30q0 45 2 111.5t17.5 128t50 105.5t100.5 44q68 0 118 -46t50 -115v-15 q-37 -29 -60.5 -65.5t-23.5 -85.5q0 -35 14.5 -69t39 -59.5t57 -41t69.5 -15.5q68 0 113 29t72.5 75t39 103.5t11.5 112.5q0 18 -6.5 67.5t-17.5 100.5t-28.5 91t-42.5 40q-16 0 -23 -13.5t-22 -13.5q-12 0 -21 11.5t-18.5 24.5t-19.5 24.5t-25 11.5q-12 0 -18 -9t-10 -21.5 t-11.5 -21.5t-19.5 -9h-6q-29 18 -52.5 30.5t-47 18.5t-50 9t-59.5 3q-57 0 -96 -8t-71 -25.5t-61.5 -45.5t-68.5 -66l-10 12q-4 12 -11.5 38.5t-19.5 53.5t-26.5 47.5t-30.5 20.5q-14 0 -28.5 -20.5t-27 -47.5t-20.5 -53.5t-10 -38.5l-11 -8h-2q-31 33 -59.5 61.5t-59 51 t-68.5 35.5t-89 13q-123 0 -232 -57q-12 0 -18 10.5t-10 23.5t-11.5 23.5t-19.5 10.5t-22.5 -11.5t-19.5 -23.5t-18.5 -23.5t-19.5 -11.5l-6 2l-20.5 20.5t-26.5 10.5q-25 0 -44.5 -46t-32.5 -105.5t-20.5 -116t-7.5 -76.5q0 -53 14.5 -103.5t44.5 -90.5t74 -64.5t103 -24.5 q20 0 40.5 7t41.5 12q41 18 67.5 67t26.5 92q0 41 -7 59.5t-18.5 30t-24.5 23.5t-26 41v8q0 31 14.5 59.5t37 50t51 35t59.5 13.5q51 0 84 -21.5t52.5 -55.5t26.5 -76t7 -85q0 -8 -1 -35.5t-2 -57.5t-2 -54.5t-3 -28.5q-4 -12 -24.5 -17t-44 -15.5t-43 -34t-19.5 -72.5 q0 -29 13 -52.5t34 -41.5v-15q-25 -27 -39 -49t-14 -59q0 -72 65 -96q4 -2 14.5 -5.5t20.5 -7.5t18.5 -8t8.5 -8v-227v-37q0 -27 -3 -57.5t-8.5 -54.5t-17.5 -24h-6q-23 23 -46.5 40.5t-56.5 17.5q-53 0 -89.5 -36t-36.5 -89q0 -68 47 -115t114 -47q82 0 129 31t95 96l10 4z M905 672q-27 0 -43 23.5t-26.5 55t-14.5 64.5t-4 51q0 20 4 54t15.5 67t31 55.5t47.5 22.5q31 0 48.5 -22.5t26.5 -53.5t12.5 -63.5t3.5 -53.5q0 -23 -4.5 -56.5t-15.5 -66t-30.5 -55t-50.5 -22.5z" />
<glyph unicode="u" horiz-adv-x="1931" d="M803 59q55 -31 114.5 -48t122.5 -17q131 0 240 47t185.5 130t118.5 193.5t42 237.5q0 25 -1 61.5t-9 59.5q-4 10 -17.5 28.5t-13.5 28.5q0 8 6 16.5t14.5 19.5t14.5 25.5t6 37.5q0 37 -14.5 54t-26.5 46q0 20 20.5 38.5t20.5 45.5q0 63 -8 121.5t-19 122.5 q-2 14 1.5 42.5t11.5 57.5t21.5 50.5t31.5 21.5q29 -35 51.5 -58.5t71.5 -23.5q59 0 90 45t31 98q0 31 -16.5 56.5t-42 44t-56.5 28.5t-57 10q-35 0 -70 -10t-68 -27q-16 0 -25 8.5t-18.5 18.5t-18.5 18.5t-24 8.5q-14 0 -23 -8.5t-18.5 -17.5t-18.5 -17t-21 -8 q-27 0 -63 17t-81 17q-63 0 -112.5 -37.5t-49.5 -105.5q0 -53 33 -92t88 -39q31 0 54.5 10t41.5 37q4 6 8.5 18.5t14.5 12.5q16 0 28.5 -16.5t19.5 -39t10 -45t3 -34.5q0 -53 -15 -106.5t-15 -102.5q0 -35 1 -52.5t6 -32t13 -29.5t23 -44v-2q-8 -16 -16.5 -24.5l-15.5 -15.5 t-11 -19.5t-4 -38.5q0 -16 6 -29.5t13 -24t13.5 -21.5t6.5 -24q0 -16 -19.5 -44.5t-19.5 -78.5q0 -41 5 -78.5t5 -78.5q0 -76 -23.5 -140.5t-66.5 -111.5t-105.5 -73.5t-140.5 -26.5q-96 0 -159.5 40.5t-102.5 106t-55.5 146.5t-16.5 161v43q0 14 20.5 18.5t45 13.5t45 29.5 t20.5 69.5q0 31 -15 55.5t-38 45.5l-2 6q0 12 8 19t19.5 18.5t19.5 28t8 46.5q0 45 -19.5 66.5t-44 32t-44 15.5t-19.5 15v68q0 66 2 132.5t15 131.5l8 4q12 0 19 -8t17.5 -18.5t27 -18.5t48.5 -8q53 0 88 34t35 87q0 31 -11 58.5t-31.5 50t-47 36t-59.5 13.5 q-72 0 -115 -19.5t-68.5 -42t-40 -42t-28.5 -19.5q-6 0 -12 22.5t-15.5 49t-23 49t-33.5 22.5q-23 0 -37 -19.5t-25.5 -44t-20.5 -44t-17 -19.5q-16 0 -34 16.5t-42.5 37t-58 37t-84.5 16.5q-70 0 -121.5 -37t-51.5 -113q0 -49 35 -87t86 -38q33 0 49.5 8.5t25.5 18.5 t16.5 18t21.5 8q8 0 12 -19.5t5 -43t1 -45.5v-25q0 -53 -2 -105t-6 -106q-6 -8 -26.5 -11t-44 -12t-41 -32t-17.5 -70q0 -29 13.5 -57.5t35.5 -44.5q0 -12 -8 -21.5t-17 -20.5t-16.5 -25.5t-7.5 -32.5v-15q0 -49 21.5 -70.5t46 -30.5t45 -14.5t20.5 -21.5q0 -152 44 -289 t155 -245q23 -23 51.5 -39.5t61.5 -16.5q14 0 26 7.5t27 7.5q18 0 33.5 -7.5t31 -16.5t30.5 -16.5t34 -7.5q8 0 11 6.5t5 13.5t4 13t13 6h8zM406 895q0 20 4 54t14 64.5t29.5 53.5t48.5 23q27 0 44 -23t28.5 -53.5t16.5 -63t5 -53.5q0 -20 -3 -55t-12.5 -68t-27.5 -57.5 t-47 -24.5q-33 0 -52.5 22.5t-30.5 55.5t-14 66.5t-3 58.5zM1272 1524v-13v13z" />
<glyph unicode="v" horiz-adv-x="2103" d="M899 113q14 -10 27.5 -31t29 -40t33 -33.5t37.5 -14.5q18 0 24.5 18.5t9.5 41t7 41t14 18.5h4q39 -43 84 -72t105 -29q53 0 93 30t40 87q0 29 -8 46.5t-19.5 29.5t-19.5 21.5t-8 23.5q0 61 26.5 115.5t57 106.5t57.5 105.5t27 112.5q0 16 -4.5 31.5t-4.5 32.5 q0 6 12.5 16t28 23.5t28.5 33t13 47.5q0 16 -6 32t-6 32q0 12 10.5 23.5t23.5 23.5t25.5 27.5t16.5 34.5q12 63 20.5 113t20.5 94t31.5 86t54.5 92q8 10 20.5 24t28.5 14q14 0 22.5 -12t19.5 -25.5t31.5 -25.5t57.5 -12q53 0 85 39t32 88q0 66 -48 108.5t-112 42.5 q-37 0 -57.5 -6t-36 -14t-29.5 -17.5t-41 -15.5l-2 -2q-10 0 -16 11t-14.5 25.5t-17.5 26t-24 11.5q-14 0 -27.5 -12.5t-25.5 -26t-23.5 -25.5t-21.5 -12h-4q-41 25 -81 41t-87 16q-63 0 -111.5 -37t-48.5 -104q0 -49 32 -90t85 -41q37 0 68.5 18.5t44.5 55.5l8 4 q12 0 23.5 -12.5t18.5 -29t11 -34t4 -27.5q0 -43 -19.5 -82t-43 -74.5t-43 -71.5t-19.5 -75q0 -18 6.5 -35.5t6.5 -36.5l-10 -11q-11 -11 -24 -25.5t-25.5 -28.5t-16.5 -23q0 -27 6 -49t6 -47q0 -6 -9 -15t-20.5 -19.5t-22.5 -21.5t-17 -20q-8 -14 -16.5 -51t-16.5 -83 t-18.5 -97t-20.5 -94t-23.5 -71t-27.5 -28l-15 17q-4 10 -21.5 61t-37 109.5t-34.5 105.5t-15 52q0 8 14 16t30.5 21.5t31 34t14.5 50.5q0 23 -8.5 45.5t-22.5 38.5q-6 8 -31.5 20.5t-25.5 22.5v2q4 6 11 25.5t7 24.5q0 53 -22.5 95t-85.5 42q-18 0 -39 -4t-29 20l-76 232 q-2 4 -5 23.5t-3 23.5q0 6 1 19t5 26.5t9.5 24t15.5 10.5q6 0 14 -12.5t20.5 -27t31 -26.5t49.5 -12q14 0 26 3t27 1q78 39 78 123q0 72 -51.5 113.5t-118.5 41.5q-61 0 -116.5 -22.5t-96.5 -71.5q-4 -6 -12.5 -21.5t-16.5 -31.5t-16.5 -29.5t-14.5 -13.5q-8 8 -22.5 33.5 t-32.5 57.5t-38.5 63.5t-41.5 52.5q-20 0 -33.5 -19.5t-21.5 -44t-13.5 -49t-7.5 -37.5l-8 -4q-8 0 -26.5 21.5t-49 48t-73.5 48t-101 21.5q-29 0 -58.5 -11t-52 -29.5t-37 -45t-14.5 -57.5q0 -55 36 -96t94 -41q27 0 46 12t33.5 27.5t22.5 29t12 13.5q10 0 24.5 -25.5 t31 -64.5t32 -85t28.5 -87t22.5 -70t11.5 -33q6 -16 -6.5 -27.5t-30 -25.5t-32.5 -33.5t-15 -54.5q0 -37 13 -55.5t28.5 -29.5t29 -19.5t13.5 -22.5q0 -18 -8.5 -35.5t-8.5 -36.5q0 -43 30 -79.5t77 -36.5q27 0 45 3t29 -30l118 -354q6 -16 -7 -26.5t-30.5 -23t-33 -32 t-15.5 -56.5q0 -59 42 -93t98 -34q37 0 62.5 14.5t41.5 33t27.5 34t17.5 15.5zM604 1012q0 18 11.5 37.5t33.5 19.5q39 0 79 -37t70.5 -87t50 -104.5t19.5 -88.5q0 -23 -11 -39.5t-36 -16.5q-41 0 -80 36t-69.5 87t-49 104.5t-18.5 88.5z" />
<glyph unicode="w" horiz-adv-x="3172" d="M1925 113q12 -8 25.5 -30t29 -43.5t32 -37.5t34.5 -16q12 0 20.5 15t13.5 36.5t8 41t5 30.5l8 8q43 -45 84 -81t109 -36q49 0 94 31.5t45 85.5q0 27 -12.5 47t-26.5 34.5t-26.5 24.5t-12.5 19q0 55 31 110.5t67.5 110.5t67.5 109.5t31 105.5q0 16 -6 28.5t-6 28.5 q0 6 13 14.5t30.5 21.5t31 33.5t13.5 51.5q0 16 -4.5 31.5t-4.5 32.5q0 20 22.5 32.5t35.5 26.5q14 16 27.5 58t28.5 95.5t32.5 110.5t39 105.5t48 79t59.5 30.5q10 0 16.5 -13t17.5 -30.5t30.5 -31t58.5 -13.5q51 0 83 37t32 86q0 72 -49 113t-117 41q-41 0 -79 -14.5 t-73 -37.5q-12 0 -20 12.5t-16.5 27t-16.5 26.5t-22 12q-29 -12 -49.5 -33.5t-43.5 -44.5q-8 -4 -12 -4q-6 0 -21.5 10.5t-37 21.5t-49 21.5t-58.5 10.5q-72 0 -119 -35t-47 -111q0 -49 35 -88t86 -39q25 0 43.5 10.5t32.5 22.5t22.5 22.5t12.5 10.5q23 -23 40 -35t17 -49 q0 -47 -21.5 -85t-48 -75t-48 -75.5t-21.5 -84.5q0 -16 6 -30.5t6 -30.5q0 -8 -13 -15t-28.5 -19.5t-29 -33t-13.5 -51.5q0 -16 6 -31.5t6 -31.5q0 -6 -4 -15q-39 -20 -63.5 -59t-39.5 -88t-24.5 -101.5t-18.5 -96.5t-21.5 -74.5t-32.5 -34.5q-10 6 -27.5 49t-34 96 t-30 101.5t-15.5 64.5l4 19q41 12 63.5 41.5t22.5 70.5q0 27 -13 47.5t-28.5 34.5t-28 24.5t-12.5 20.5q0 23 10.5 40t10.5 40q0 53 -39 79.5t-86 24.5h-33l-10 7q-8 12 -22.5 53t-28 88t-23.5 91t-10 62q0 6 2 20.5t6 28t9 24.5t14 11q14 -35 44.5 -61.5t69.5 -26.5 q59 0 92 39t33 95q0 37 -17.5 64.5t-44 47t-60 28.5t-66.5 9q-74 0 -117 -28.5t-67.5 -65.5t-38 -71t-27.5 -46l-4 4q-6 12 -21.5 48t-36 76t-40 70.5t-33.5 30.5q-16 0 -27.5 -17t-18.5 -40.5t-13.5 -47.5t-8.5 -36l-8 -8q-16 6 -33.5 28.5t-42 47t-60.5 44t-89 19.5 q-63 0 -115.5 -40t-52.5 -107q0 -55 35 -94t92 -39q23 0 37 6t25.5 16t20.5 22.5t23 24.5q8 2 16.5 -13t10.5 -22q2 -8 11 -34.5t20.5 -62.5t25 -76t23.5 -73.5t17 -57t7 -27.5q0 -12 -14 -19.5t-30.5 -17.5t-31 -28.5t-14.5 -53.5q0 -12 2 -25.5t2 -25.5q0 -16 -17 -20.5 t-28 -10.5q-35 -18 -50 -55t-25 -72q-10 -41 -19.5 -101.5t-23 -124t-32 -119.5t-44.5 -87l-17 20q-2 8 -16 56.5t-31.5 102.5t-31 98t-13.5 46q0 8 14.5 16.5t31 20t30.5 28.5t14 46q0 41 -12 64.5t-26.5 38t-26.5 21.5t-12 17q0 18 10 36t10 38q0 43 -31.5 79t-77.5 36 q-12 0 -24 -2t-25 -2q-10 4 -27.5 49t-35 100t-30.5 105.5t-13 62.5q0 16 2 35.5t16 30.5q12 -8 17.5 -22.5t15.5 -29t29.5 -24.5t58.5 -10q53 0 87 37.5t34 89.5q0 35 -15.5 64.5t-41 50t-57 31.5t-64.5 11q-55 0 -91 -13t-61.5 -37.5t-45 -60.5t-40.5 -81h-2l-10 8 q-6 10 -21.5 44t-36 69.5t-39 64.5t-30.5 29q-14 0 -26.5 -20.5t-21.5 -47t-15.5 -52.5l-8.5 -34l-8 -10q-31 29 -56.5 55.5t-52 47t-59.5 32.5t-80 12q-66 0 -113 -39.5t-47 -107.5q0 -53 34 -92t87 -39q29 0 48.5 12.5t31.5 27.5t19.5 28.5t13.5 13.5q8 0 17.5 -10.5 t18.5 -23.5t15 -27.5t8 -20.5l93 -287q6 -16 -7.5 -24.5t-32 -20.5t-34 -30.5t-15.5 -55.5q0 -31 12.5 -53.5t28 -37.5t28.5 -24.5t13 -15.5q0 -18 -10 -34.5t-10 -37.5q0 -31 6 -48t18.5 -28.5t30 -20.5t37.5 -21q6 0 18.5 1t24.5 0t22.5 -5.5t14.5 -12.5q4 -14 14 -45 t23.5 -70.5t29 -83.5t27.5 -82t20.5 -67t8.5 -37l-4 -12q-35 -16 -61.5 -37.5t-26.5 -62.5q0 -59 38.5 -95.5t96.5 -36.5q31 0 52.5 8.5t36.5 24t27.5 37t26.5 45.5l8 6l11 -6q20 -35 41.5 -70.5t54.5 -64.5l10 -2q10 -2 19.5 16.5t15.5 43t10 47t6 30.5q14 0 28.5 -18.5 t36 -41t53.5 -41t83 -18.5q53 0 94 32t41 89q0 27 -11 44.5t-23.5 30.5t-23.5 23.5t-11 20.5q0 45 19 102.5t46 117t54.5 112.5t43.5 88l13 8h4q45 -29 94 -29q10 0 20.5 1t14.5 -11q8 -29 27.5 -82t39 -111.5t33.5 -109.5t14 -76q0 -18 -13 -27.5t-28.5 -19.5t-29 -27.5 t-13.5 -50.5q0 -59 41 -96t99 -37q51 0 80.5 31t54.5 70zM1661 997q0 23 4 42.5t37 19.5q39 0 77 -36t67.5 -87t48 -104.5t18.5 -86.5q0 -20 -8.5 -40.5t-32.5 -20.5q-41 0 -79 36t-66.5 86t-47 103t-18.5 88zM592 997q0 27 10 48.5t41 21.5q35 0 71 -36t65.5 -85t48 -100 t18.5 -82q0 -23 -9.5 -46.5t-37.5 -23.5q-37 0 -74 35t-66.5 84t-48 100t-18.5 84zM2578 1438v-4l-2 2v2h2zM471 1688v-9v9z" />
<glyph unicode="x" horiz-adv-x="2033" d="M1292 229h2q33 -25 57.5 -58.5t51.5 -67t58.5 -65.5t80.5 -52q18 0 20.5 26.5t2.5 38.5q0 16 -2 32.5t-2 33.5l8 14h4q51 -53 114.5 -90t141.5 -37q72 0 127 36t55 116q0 53 -33.5 91t-87.5 38q-39 0 -60.5 -15.5t-33.5 -35t-18 -35t-15 -15.5q-10 0 -23.5 8.5 t-25.5 20.5t-22.5 25.5t-16.5 21.5l-256 397q-6 12 -6 27v8q23 16 40 39t17 51q0 53 -33.5 85t-80.5 48l-4 5q0 35 19.5 44t49 16t62.5 25.5t59 73.5l125 260q4 8 16.5 26.5t27.5 37t30.5 33t25.5 14.5q8 0 15.5 -11.5t18.5 -25.5t30.5 -25.5t50.5 -11.5q53 0 89 39t36 92 q0 68 -50 109t-116 41q-35 0 -65.5 -15.5t-46.5 -15.5t-25.5 8t-16 18.5t-13.5 18.5t-21 8t-24.5 -8t-18.5 -18.5t-17.5 -18.5t-23.5 -8t-28.5 6t-31 13.5t-36 13.5t-43.5 6q-31 0 -61 -8t-54.5 -24.5t-39.5 -41t-15 -59.5q0 -55 33.5 -99t92.5 -44q37 0 63 23.5t40 55.5 l6 2q14 0 17.5 -16t3.5 -27q0 -47 -33 -82.5t-74 -72.5t-81 -78t-52 -98l-16 -9q-27 -2 -48.5 -7t-46.5 -9l-8 2q-10 6 -45 51t-71.5 102.5t-65.5 118t-29 97.5q0 12 5 34.5t22 22.5l4 -4q10 -41 38.5 -71.5t74.5 -30.5q53 0 84.5 36.5t31.5 88.5q0 41 -18.5 69.5t-47 47 t-64.5 27.5t-70 9q-104 0 -159.5 -58.5t-78.5 -154.5l-8 -8q-16 14 -27.5 33.5t-25.5 36.5q-37 45 -76 83.5t-80 79.5q-8 4 -16.5 7.5t-18.5 7.5l-14 -10q-10 -29 -8 -59t-5 -58v-6t-4 -4q-33 12 -52 31.5t-42.5 39t-59.5 33.5t-100 14q-29 0 -57.5 -8t-52 -25.5t-37.5 -42 t-14 -57.5q0 -59 31.5 -99t93.5 -40q49 0 69.5 21.5t44.5 60.5q12 0 39 -32t58.5 -78t64.5 -99t60.5 -100t45 -78t17.5 -33l-2 -8q-23 -23 -38 -43.5t-15 -54.5q0 -41 19.5 -63.5t42 -35t42 -19.5t19.5 -16q0 -49 -15.5 -63t-37 -20.5t-47 -19.5t-46.5 -58l-141 -312 q-6 -12 -19.5 -33.5t-30 -44t-34 -40t-31.5 -19.5q-14 4 -21.5 16.5t-15.5 24.5t-17 21.5t-28 9.5q-10 0 -16 -8.5t-17 -8.5q-10 0 -14 8.5t-14 8.5q-25 0 -42.5 -11.5t-29.5 -30t-18.5 -41t-6.5 -42.5q0 -68 52.5 -107t115.5 -39q33 0 65 11.5t60 25.5q12 0 20.5 -8 t15.5 -18.5t15.5 -18.5t20.5 -8q14 0 23.5 8t18.5 18.5t18.5 18.5t21.5 8q29 0 58.5 -18.5t70.5 -18.5q37 0 71.5 5.5t62.5 20.5t44.5 44t16.5 74q0 55 -33 93t-90 38q-31 0 -51.5 -12.5t-33 -27.5t-19.5 -27.5t-11 -12.5q-16 0 -19.5 21.5t-3.5 31.5q0 35 19.5 71 t46.5 67.5t55.5 61.5t46.5 52q29 33 35 70t27 72q23 4 42 9t42 5q8 0 31.5 -29t53 -73t63.5 -97t61.5 -101t45 -85t17.5 -47t-5 -27.5t-17 -17.5q-27 45 -48.5 66.5t-76.5 21.5q-53 0 -83 -39t-30 -88q0 -78 54.5 -113t125.5 -35q109 0 166.5 52.5t79.5 156.5zM1151 698 q-35 0 -91 38t-109.5 90.5t-91.5 107.5t-38 90q0 37 39 37q33 0 63.5 -19.5t53.5 -42.5q16 -18 51 -49.5t70 -68.5t60.5 -74t25.5 -68q0 -18 -5 -29.5t-28 -11.5z" />
<glyph unicode="y" horiz-adv-x="1998" d="M895 131q2 -12 9 -35.5t18.5 -46t26 -39t30.5 -16.5q18 0 32.5 23.5t26 53t19.5 53t14 23.5h6q37 -57 91.5 -98t125.5 -41q31 0 60.5 9.5t54.5 27.5t40 44t15 58q0 55 -32.5 98.5t-92.5 43.5q-35 0 -59.5 -15.5t-44.5 -40.5q-10 0 -14 19.5t-7.5 43t-3.5 46.5v29 q0 59 -1 133t10 131q2 10 21.5 14t43 14.5t43 32t19.5 66.5q0 35 -13.5 59.5t-38.5 46.5v4q0 23 19.5 36.5t27.5 31.5q6 16 7 39q0 25 12 37q6 6 24.5 9t41 12.5t45 26.5t38.5 48l138 270q6 10 16 25.5t23.5 29t28 22.5t26.5 9l8 -2q10 -16 19.5 -31.5t23.5 -25.5h4l10 16h2 q4 -14 15.5 -28.5t27.5 -14.5q57 0 90 36t33 91q0 66 -44 108t-109 42q-37 0 -71 -11.5t-69 -27.5q-12 0 -19 9t-13.5 21.5t-13.5 21.5t-19 9q-6 0 -19 -4l-53 -49q-8 -4 -16 -4q-14 0 -48 20.5t-81 20.5q-33 0 -64.5 -8t-56.5 -26.5t-40 -45t-15 -63.5q0 -16 6 -38 t17 -42.5t27.5 -33.5t37.5 -13q29 0 48 1t33.5 7t27 19.5t28.5 37.5l8 2q12 -6 15.5 -21.5t3.5 -27.5q0 -31 -22.5 -59.5t-53.5 -56t-61.5 -52t-49.5 -45.5q-8 -10 -12 -23.5t-8 -27.5t-10.5 -25.5t-20.5 -15.5t-34.5 -10t-35.5 -6l-6 2q-12 8 -48 55t-76 104.5t-70.5 110.5 t-30.5 74v18l6 4q20 -23 41 -44t53 -21q61 0 99.5 28.5t38.5 94.5q0 74 -56.5 113.5t-124.5 39.5q-37 0 -73.5 -11t-68.5 -32.5t-53.5 -52.5t-25.5 -70q-2 -18 -3 -36.5t-5 -34.5h-6q-4 4 -21.5 25.5t-42 50t-55.5 60.5t-60.5 59.5t-56 45t-45.5 17.5q-14 0 -19 -16.5 t-6 -37t1 -40t2 -27.5l-6 -4q-14 4 -36 21.5t-34 27.5q-16 2 -32.5 12t-36 21.5t-44 19.5t-55.5 8q-35 0 -70 -10t-61.5 -29.5t-43 -49t-16.5 -68.5q0 -53 41 -89t95 -36q29 0 48 16t31.5 34.5t20.5 35t16 16.5q14 0 44 -30.5t67 -75.5t75 -99.5t70.5 -101.5t54 -80 t25.5 -37v-18q-16 -20 -29.5 -43t-13.5 -51q0 -25 12.5 -43.5t28 -33t28.5 -24.5t13 -16q0 -20 -8 -38t-8 -38q0 -55 19.5 -72.5t42 -24.5t42 -18.5t19.5 -56.5q0 -72 2 -146.5t-6 -146.5q0 -4 -2.5 -15.5t-4.5 -22.5t-6 -19t-10 -8q-4 0 -12 4q-20 23 -43 37t-56 14 q-51 0 -82.5 -37t-31.5 -86q0 -25 9 -51.5t26.5 -50t41 -38t52.5 -14.5q80 0 112.5 7.5t49 22.5t31 39t59.5 54zM825 1020q0 29 10.5 56.5t45.5 27.5q39 0 72.5 -32t59 -77t40 -93t14.5 -81q0 -29 -11.5 -54.5t-45.5 -25.5q-39 0 -73 31t-58.5 75t-39 92t-14.5 81z" />
<glyph unicode="z" horiz-adv-x="1835" d="M1470 51q18 0 23.5 -11t7.5 -23.5t6 -23.5t19 -11q12 0 22.5 12t20.5 25.5t19 25.5t22 12q10 0 16 -7t12.5 -14t12.5 -14.5t16 -7.5q25 0 48.5 45t40 103.5t26.5 114t10 77.5q0 55 -11.5 115.5t-39 111t-72.5 84t-110 33.5q-41 0 -78 -13t-66 -37.5t-46 -59.5t-17 -78 q0 -37 8 -59.5t22.5 -40t34 -34t39.5 -40.5q0 -33 -14.5 -62.5t-39 -51t-55 -34t-63.5 -12.5q-39 0 -73.5 11.5t-68.5 25.5t-67 29.5t-69 21.5q-10 2 -35 6t-50.5 9.5t-48 10.5t-28.5 11q0 6 19.5 36t48 68.5t62.5 84t63.5 83t50 63.5t22.5 26q16 0 33.5 -6.5t34.5 -6.5 q51 0 80.5 35t29.5 84q0 10 -2 21.5t-2 21.5q0 12 17.5 19.5t38 19.5t38 32.5t17.5 61.5q0 31 -9.5 47.5t-19.5 26.5t-19.5 17t-9.5 22q0 14 19.5 48t50.5 76t66.5 87t67.5 83t55.5 61.5t29.5 23.5q14 0 33.5 -11.5t44.5 -11.5q47 0 76.5 32t29.5 79q0 18 -7 39.5t-19 40 t-29.5 31t-38.5 12.5q-53 0 -78.5 -7.5t-42 -17.5t-33 -22.5t-49.5 -22.5l-8 8q-2 6 -4 20.5t-5 29t-9 24.5t-14 10q-10 0 -33 -15.5t-46.5 -36t-45 -39.5t-29.5 -28q-6 0 -20.5 16.5t-34 38t-43 39t-50.5 17.5q-49 0 -72.5 -15.5t-34.5 -35t-20.5 -34.5t-29.5 -15 q-45 0 -94.5 17t-101.5 36.5t-108.5 37t-115.5 17.5q-49 0 -98.5 -14.5t-89.5 -42.5q-14 0 -19.5 12t-8.5 26.5t-7 27t-19 10.5q-10 -2 -21.5 -11.5t-23.5 -22t-22.5 -24.5t-16.5 -18q-25 0 -36 17.5t-31 17.5l-21 -13q-35 -61 -52 -129.5t-17 -140.5q0 -55 12 -109.5 t39.5 -97.5t73 -69.5t108.5 -26.5q80 0 138.5 50t58.5 134q0 35 -8.5 53.5t-20.5 31.5t-26.5 28.5t-26.5 42.5q8 47 55 73.5t96 26.5q43 0 90.5 -15.5t96.5 -33.5t98 -35.5t98 -19.5l8 -6q-4 -12 -8 -17q-129 -135 -231 -289l-19 -12q-16 0 -30.5 6t-30.5 6q-43 0 -80 -30.5 t-37 -77.5q0 -12 2 -24.5t2 -24.5t-11 -17.5t-28.5 -13.5t-37 -23.5t-33.5 -52.5v-57q0 -14 9 -24.5t19.5 -19.5t19.5 -17.5t9 -16.5q0 -18 -19.5 -55t-50 -82t-65.5 -94t-67.5 -90t-56.5 -71t-30 -34q-8 -4 -16 -4q-18 0 -34.5 8t-37.5 8q-51 0 -85 -34.5t-34 -85.5 q0 -59 38 -96.5t98 -37.5q35 0 65.5 14.5t55 32t42 32t25.5 14.5q10 0 12 -17.5t3 -38t4.5 -38t19.5 -17.5q14 0 35.5 20.5t44 47t44 48t36.5 25.5q6 -6 11 -27.5t19.5 -45t41 -42t77.5 -18.5h35q37 16 57.5 45t34.5 66q12 8 25 8q55 0 108.5 -20.5t105.5 -45t106.5 -45 t113.5 -20.5q102 0 192 55zM754 713q0 35 32.5 91t79.5 109.5t98.5 91t88.5 37.5q18 0 31.5 -8t13.5 -28q0 -37 -32 -94.5t-79 -110.5t-99 -91t-91 -38q-43 0 -43 41z" />
<glyph unicode="&#x2000;" horiz-adv-x="886" />
<glyph unicode="&#x2001;" horiz-adv-x="1772" />
<glyph unicode="&#x2002;" horiz-adv-x="886" />
<glyph unicode="&#x2003;" horiz-adv-x="1772" />
<glyph unicode="&#x2004;" horiz-adv-x="590" />
<glyph unicode="&#x2005;" horiz-adv-x="443" />
<glyph unicode="&#x2006;" horiz-adv-x="295" />
<glyph unicode="&#x2007;" horiz-adv-x="295" />
<glyph unicode="&#x2008;" horiz-adv-x="221" />
<glyph unicode="&#x2009;" horiz-adv-x="354" />
<glyph unicode="&#x200a;" horiz-adv-x="98" />
<glyph unicode="&#x202f;" horiz-adv-x="354" />
<glyph unicode="&#x205f;" horiz-adv-x="443" />
<glyph unicode="&#x25fc;" horiz-adv-x="1699" d="M0 1700h1700v-1700h-1700v1700z" />
</font>
</defs>
</svg>
